<svg width="220" height="220" viewBox="0 0 220 220" fill="none" xmlns="http://www.w3.org/2000/svg">
<path d="M7.80103 207.2H211.961" stroke="#263238" stroke-width="1.15942" stroke-linecap="round" stroke-linejoin="round"/>
<path d="M136.162 191.558L136.475 207.341L116.838 207.829C116.908 205.951 126.958 201.933 126.958 201.933L126.342 191.813L136.162 191.558Z" fill="#90CAF9"/>
<g opacity="0.6">
<path d="M133.021 200.93C133.207 200.982 133.368 201.1 133.474 201.262C133.58 201.424 133.623 201.618 133.597 201.81C133.553 202.001 133.437 202.168 133.273 202.276C133.109 202.384 132.91 202.425 132.717 202.391C132.515 202.335 132.341 202.206 132.228 202.028C132.116 201.851 132.074 201.638 132.11 201.432C132.178 201.236 132.319 201.075 132.504 200.981C132.689 200.888 132.902 200.87 133.1 200.93" fill="white"/>
</g>
<g opacity="0.6">
<path d="M136.475 207.341L136.382 205.752L117.59 206.8C117.59 206.8 116.71 207.204 116.838 207.816L136.475 207.341Z" fill="white"/>
</g>
<path d="M126.65 201.841C126.65 201.938 127.138 201.968 127.618 202.281C128.097 202.593 128.357 202.976 128.445 202.936C128.533 202.897 128.374 202.347 127.789 201.995C127.204 201.643 126.628 201.753 126.65 201.841Z" fill="#263238"/>
<path d="M124.612 202.743C124.612 202.835 125.013 202.989 125.347 203.385C125.682 203.781 125.787 204.212 125.884 204.204C125.981 204.195 126.029 203.654 125.598 203.17C125.167 202.686 124.612 202.65 124.612 202.743Z" fill="#263238"/>
<path d="M123.503 205.238C123.591 205.238 123.715 204.776 123.455 204.256C123.195 203.737 122.742 203.539 122.703 203.618C122.663 203.698 122.949 203.975 123.143 204.402C123.336 204.828 123.411 205.229 123.503 205.238Z" fill="#263238"/>
<path d="M126.768 199.522C126.808 199.61 127.244 199.465 127.789 199.487C128.335 199.509 128.757 199.672 128.806 199.588C128.854 199.504 128.44 199.174 127.798 199.148C127.156 199.122 126.72 199.447 126.768 199.522Z" fill="#263238"/>
<path d="M127.16 197.182C127.484 197.26 127.823 197.249 128.141 197.151C128.705 197.038 129.242 196.815 129.721 196.495C129.83 196.433 129.928 196.353 130.011 196.258C130.073 196.188 130.109 196.1 130.115 196.008C130.12 195.915 130.095 195.823 130.042 195.747C129.991 195.679 129.924 195.624 129.848 195.588C129.771 195.551 129.687 195.533 129.602 195.536C129.478 195.538 129.355 195.559 129.237 195.598C129.028 195.653 128.824 195.728 128.63 195.822C128.306 195.982 128.009 196.192 127.75 196.442C127.31 196.882 127.16 197.234 127.191 197.252C127.222 197.27 127.45 196.979 127.908 196.618C128.176 196.407 128.473 196.234 128.788 196.104C128.969 196.025 129.156 195.962 129.347 195.914C129.554 195.853 129.734 195.848 129.787 195.941C129.84 196.033 129.787 195.989 129.787 196.051C129.723 196.119 129.65 196.178 129.571 196.227C129.406 196.338 129.236 196.441 129.061 196.535C128.76 196.694 128.445 196.824 128.119 196.922C127.793 196.984 127.473 197.071 127.16 197.182Z" fill="#263238"/>
<path d="M127.305 197.313C127.485 197.029 127.567 196.694 127.538 196.359C127.553 195.774 127.4 195.197 127.098 194.695C127.043 194.567 126.955 194.455 126.843 194.371C126.731 194.287 126.599 194.233 126.46 194.216C126.373 194.22 126.289 194.248 126.217 194.298C126.146 194.348 126.09 194.417 126.056 194.497C126.009 194.615 125.978 194.737 125.963 194.863C125.93 195.081 125.93 195.304 125.963 195.523C126.024 195.89 126.175 196.236 126.403 196.53C126.799 197.027 127.204 197.133 127.208 197.102C127.213 197.071 126.9 196.873 126.597 196.394C126.422 196.116 126.308 195.804 126.262 195.479C126.236 195.289 126.236 195.096 126.262 194.907C126.289 194.7 126.364 194.528 126.438 194.55C126.513 194.572 126.707 194.695 126.79 194.863C126.894 195.03 126.98 195.207 127.05 195.391C127.168 195.703 127.24 196.03 127.266 196.363C127.345 196.939 127.252 197.3 127.305 197.313Z" fill="#263238"/>
<path d="M152.17 191.246L152.482 207.028L132.849 207.521C132.915 205.642 142.969 201.621 142.969 201.621L142.353 191.501L152.17 191.246Z" fill="#90CAF9"/>
<g opacity="0.6">
<path d="M149.028 200.64C149.212 200.695 149.37 200.814 149.475 200.975C149.579 201.136 149.624 201.329 149.6 201.52C149.555 201.71 149.438 201.876 149.275 201.984C149.111 202.092 148.913 202.134 148.72 202.1C148.518 202.045 148.344 201.917 148.232 201.741C148.119 201.564 148.077 201.352 148.113 201.146C148.179 200.949 148.32 200.786 148.505 200.692C148.69 200.599 148.905 200.581 149.103 200.644" fill="white"/>
</g>
<g opacity="0.6">
<path d="M152.482 207.029L152.39 205.44L133.597 206.505C133.597 206.505 132.717 206.906 132.849 207.522L152.482 207.029Z" fill="white"/>
</g>
<path d="M142.657 201.52C142.657 201.617 143.145 201.648 143.625 201.96C144.104 202.272 144.364 202.651 144.452 202.611C144.54 202.572 144.382 202.022 143.796 201.674C143.211 201.326 142.635 201.441 142.657 201.52Z" fill="#263238"/>
<path d="M140.62 202.435C140.62 202.528 141.02 202.682 141.354 203.078C141.689 203.474 141.794 203.9 141.891 203.896C141.988 203.892 142.036 203.346 141.61 202.858C141.183 202.369 140.62 202.343 140.62 202.435Z" fill="#263238"/>
<path d="M139.511 204.926C139.599 204.948 139.722 204.464 139.462 203.944C139.203 203.425 138.75 203.227 138.71 203.306C138.67 203.386 138.956 203.663 139.15 204.094C139.344 204.525 139.418 204.921 139.511 204.926Z" fill="#263238"/>
<path d="M142.776 199.21C142.815 199.298 143.251 199.157 143.796 199.179C144.342 199.201 144.764 199.364 144.813 199.28C144.861 199.197 144.448 198.84 143.805 198.84C143.163 198.84 142.723 199.14 142.776 199.21Z" fill="#263238"/>
<path d="M143.185 196.869C143.508 196.951 143.848 196.942 144.166 196.843C144.519 196.77 144.862 196.654 145.187 196.499C145.379 196.407 145.566 196.303 145.746 196.187C145.854 196.122 145.952 196.04 146.036 195.945C146.098 195.876 146.134 195.788 146.14 195.695C146.145 195.603 146.12 195.511 146.067 195.435C146.015 195.368 145.948 195.314 145.872 195.278C145.795 195.242 145.711 195.225 145.627 195.228C145.503 195.231 145.38 195.25 145.262 195.285C145.052 195.342 144.849 195.418 144.654 195.514C144.331 195.673 144.035 195.881 143.774 196.13C143.334 196.57 143.185 196.926 143.216 196.944C143.246 196.961 143.475 196.667 143.933 196.306C144.202 196.097 144.498 195.924 144.813 195.791C144.994 195.715 145.181 195.652 145.372 195.602C145.578 195.545 145.759 195.536 145.812 195.628C145.864 195.721 145.812 195.677 145.812 195.738C145.748 195.806 145.675 195.865 145.596 195.914C145.432 196.027 145.262 196.13 145.086 196.222C144.784 196.381 144.469 196.512 144.144 196.614C143.819 196.676 143.498 196.761 143.185 196.869Z" fill="#263238"/>
<path d="M143.312 197.005C143.491 196.721 143.573 196.386 143.546 196.051C143.558 195.464 143.405 194.887 143.106 194.383C143.049 194.255 142.961 194.144 142.849 194.06C142.738 193.976 142.606 193.922 142.468 193.903C142.379 193.905 142.293 193.933 142.221 193.984C142.149 194.035 142.094 194.106 142.063 194.189C142.016 194.305 141.985 194.426 141.97 194.55C141.939 194.77 141.939 194.994 141.97 195.215C142.032 195.58 142.183 195.925 142.41 196.218C142.806 196.719 143.211 196.821 143.22 196.79C143.229 196.759 142.912 196.565 142.604 196.081C142.428 195.804 142.314 195.492 142.27 195.166C142.243 194.978 142.243 194.787 142.27 194.599C142.296 194.387 142.371 194.216 142.45 194.238C142.529 194.26 142.714 194.387 142.802 194.55C142.901 194.719 142.987 194.896 143.057 195.078C143.174 195.392 143.247 195.721 143.273 196.055C143.352 196.631 143.26 196.992 143.312 197.005Z" fill="#263238"/>
<path d="M117.04 113.991C116.851 113.991 117.92 133.791 118.747 138.67C120.019 146.344 124.251 198.845 124.251 198.845H137.117L137.381 125.805L139.717 153.921L140.597 198.994L153.173 198.66L154.493 150.845C154.097 147.277 155.166 114.457 155.166 114.457L117.04 113.991Z" fill="#263238"/>
<path d="M122.861 40.1014C121.343 39.3974 120.393 37.8442 119.834 36.269C119.275 34.6938 119.02 32.9998 118.399 31.4642C117.959 30.307 118.443 28.4634 117.405 27.7726C116.107 26.9146 116.12 24.6266 116.622 23.487C117.167 22.2462 118.65 21.3222 118.751 20.9306C119.015 19.8966 118.118 18.779 118.452 17.767C119.235 15.3866 121.176 15.699 121.176 15.699C122.056 14.6298 123.253 13.213 125.193 12.7114C127.292 12.1702 130.394 11.7654 132.264 12.8654C134.134 13.9654 135.511 14.7046 136.114 16.7902" fill="#263238"/>
<path d="M140.162 45.2316L135.762 52.7908L129.681 58.8628L126.113 53.9612V49.02V44.8796C126.113 44.8796 120.617 44.1228 120.454 38.6404C120.375 36.0004 120.657 30.5268 120.974 25.5856C121.136 23.0223 122.257 20.614 124.114 18.8398C125.972 17.0657 128.429 16.0559 130.997 16.0112H131.525C137.245 16.2488 140.228 21.2296 139.832 26.932L140.193 45.2404" fill="#CE947A"/>
<path d="M122.549 29.6428C122.552 29.8468 122.634 30.0417 122.778 30.1868C122.921 30.3319 123.115 30.416 123.319 30.4216C123.419 30.4276 123.519 30.4135 123.613 30.3803C123.708 30.3471 123.794 30.2953 123.869 30.2281C123.943 30.1609 124.003 30.0796 124.045 29.9889C124.087 29.8983 124.111 29.8 124.115 29.7C124.112 29.496 124.03 29.3012 123.887 29.1561C123.743 29.011 123.549 28.9269 123.345 28.9212C123.245 28.9153 123.145 28.9294 123.051 28.9626C122.956 28.9958 122.87 29.0476 122.795 29.1148C122.721 29.182 122.661 29.2633 122.619 29.3539C122.577 29.4446 122.553 29.5428 122.549 29.6428Z" fill="#263238"/>
<path d="M122.078 27.9573C122.179 28.0585 122.764 27.6097 123.605 27.5965C124.445 27.5833 125.074 27.9969 125.162 27.8913C125.25 27.7857 125.105 27.6625 124.832 27.4513C124.464 27.2027 124.027 27.075 123.583 27.0861C123.143 27.1 122.719 27.2542 122.373 27.5261C122.117 27.7197 122.029 27.9133 122.078 27.9573Z" fill="#263238"/>
<path d="M130.464 29.4534C130.465 29.6573 130.546 29.8528 130.689 29.9982C130.832 30.1437 131.026 30.2276 131.23 30.2322C131.33 30.2381 131.43 30.2241 131.524 30.1908C131.619 30.1576 131.706 30.1059 131.78 30.0387C131.854 29.9715 131.914 29.8902 131.956 29.7995C131.999 29.7088 132.022 29.6106 132.026 29.5106C132.024 29.3062 131.943 29.1108 131.799 28.9654C131.655 28.8201 131.461 28.7363 131.256 28.7318C131.157 28.7259 131.057 28.7399 130.963 28.7732C130.869 28.8065 130.782 28.8583 130.708 28.9255C130.634 28.9928 130.575 29.0742 130.533 29.1648C130.491 29.2555 130.468 29.3536 130.464 29.4534Z" fill="#263238"/>
<path d="M130.473 27.579C130.561 27.689 131.19 27.3062 132.031 27.3854C132.871 27.4646 133.443 27.9398 133.544 27.8254C133.645 27.711 133.513 27.5878 133.263 27.3854C132.924 27.0983 132.504 26.9244 132.061 26.8882C131.624 26.8465 131.185 26.9452 130.807 27.1698C130.535 27.3502 130.429 27.5262 130.473 27.579Z" fill="#263238"/>
<path d="M127.499 34.562C127.052 34.4307 126.591 34.3553 126.126 34.3376C125.91 34.3376 125.708 34.2804 125.686 34.1352C125.666 33.9127 125.712 33.6892 125.818 33.4928C126.012 32.9692 126.214 32.4192 126.43 31.8472C127.27 29.4976 127.877 27.5704 127.785 27.5352C127.692 27.5 126.927 29.3788 126.082 31.7284L125.501 33.3828C125.371 33.6458 125.335 33.9457 125.4 34.232C125.433 34.3071 125.483 34.3739 125.545 34.4272C125.608 34.4805 125.681 34.5191 125.761 34.54C125.88 34.5701 126.003 34.5849 126.126 34.584C126.583 34.6344 127.044 34.627 127.499 34.562Z" fill="#263238"/>
<path d="M129.989 35.1028C129.853 35.1028 129.866 36.0136 129.109 36.6736C128.352 37.3336 127.349 37.2544 127.349 37.382C127.349 37.4392 127.569 37.5536 127.978 37.558C128.515 37.5578 129.034 37.3676 129.444 37.0212C129.836 36.6873 130.084 36.2141 130.134 35.7012C130.161 35.3228 130.051 35.094 129.989 35.1028Z" fill="#263238"/>
<path d="M130.526 24.8025C130.596 25.0357 131.441 24.9829 132.422 25.1677C133.404 25.3525 134.182 25.6781 134.323 25.4801C134.389 25.3877 134.266 25.1633 133.958 24.9169C133.549 24.6136 133.074 24.4115 132.572 24.3273C132.072 24.2308 131.555 24.2565 131.067 24.4021C130.68 24.5253 130.5 24.6925 130.526 24.8025Z" fill="#263238"/>
<path d="M122.434 25.8016C122.584 25.9908 123.165 25.8016 123.86 25.762C124.555 25.7224 125.154 25.8676 125.286 25.6652C125.343 25.5684 125.246 25.3748 124.986 25.1988C124.636 24.9872 124.23 24.8846 123.821 24.9042C123.412 24.9238 123.018 25.0646 122.69 25.3088C122.443 25.52 122.368 25.7092 122.434 25.8016Z" fill="#263238"/>
<path d="M135.705 16.3984C135.707 17.0079 135.575 17.6104 135.318 18.1631C135.061 18.7158 134.685 19.2051 134.218 19.5961C133.75 19.9872 133.202 20.2705 132.613 20.4258C132.023 20.5811 131.407 20.6046 130.808 20.4948C129.879 20.3276 128.863 19.8568 128.062 20.354C127.261 20.8512 127.182 22.1448 126.434 22.796C125.365 23.7244 123.662 22.8532 122.302 23.236C121.255 23.5484 120.6 24.556 119.904 25.392C119.209 26.228 118.144 27.0376 117.115 26.712C117.146 25.7665 117.284 24.8276 117.528 23.9136C117.781 22.9919 118.344 22.1855 119.121 21.63C119.574 21.3931 120.015 21.1332 120.441 20.8512C121.321 20.1472 121.515 18.924 122.052 17.9428C122.406 17.3121 122.905 16.7749 123.508 16.3754C124.111 15.976 124.8 15.726 125.519 15.646C126.716 15.5228 127.943 15.8792 129.109 15.5888C129.967 15.3688 130.72 14.81 131.591 14.6472C133.289 14.3216 134.864 15.5272 136.096 16.7548" fill="#263238"/>
<path d="M130.275 18.8143C131.036 18.5943 132.594 18.1015 132.999 17.4415C133.879 16.0071 135.45 15.0303 137.047 15.1183C137.873 15.1823 138.656 15.5124 139.279 16.0589C139.901 16.6055 140.33 17.3391 140.501 18.1499C141.493 18.186 142.457 18.4886 143.291 19.0259C144.126 19.5632 144.8 20.3154 145.244 21.2035C145.7 22.1354 145.922 23.1642 145.893 24.2013C145.863 25.2383 145.581 26.2526 145.072 27.1567C144.743 27.5837 144.529 28.0883 144.452 28.6219C144.452 29.2995 144.945 29.8319 145.297 30.3819C146.256 31.9043 146.177 33.9987 145.442 35.6619C144.707 37.3251 144.175 37.9015 143.119 38.2359C141.046 38.8827 143.119 43.0495 139.66 43.0495L138.965 30.7295C138.865 30.7857 138.757 30.8258 138.644 30.8483C136.602 31.3103 136.334 27.3283 136.792 26.1887C136.022 25.5599 135.335 24.837 134.746 24.0371C134.182 23.2055 133.685 20.9571 133.804 19.9143C133.069 19.9407 129.941 18.9199 130.275 18.8143Z" fill="#263238"/>
<path d="M138.679 30.8C138.772 30.756 142.428 29.6208 142.371 33.3696C142.314 37.1184 138.56 36.2912 138.556 36.1856C138.552 36.08 138.679 30.8 138.679 30.8Z" fill="#CE947A"/>
<path d="M139.722 34.7598C139.722 34.7598 139.788 34.8082 139.898 34.861C140.054 34.9253 140.23 34.9253 140.386 34.861C140.787 34.7202 141.13 34.0954 141.156 33.4222C141.17 33.1013 141.113 32.7814 140.989 32.485C140.955 32.3676 140.893 32.26 140.809 32.1713C140.725 32.0825 140.621 32.0151 140.505 31.9746C140.43 31.9538 140.35 31.9595 140.279 31.9908C140.207 32.022 140.149 32.0769 140.114 32.1462C140.065 32.2518 140.087 32.3266 140.065 32.331C140.043 32.3354 139.986 32.2694 140.017 32.1154C140.041 32.023 140.095 31.9411 140.171 31.8822C140.274 31.8054 140.404 31.7722 140.532 31.7898C140.685 31.8226 140.828 31.8945 140.946 31.9985C141.064 32.1026 141.153 32.2353 141.205 32.3838C141.36 32.7102 141.433 33.0698 141.416 33.431C141.381 34.1878 140.976 34.8874 140.439 35.037C140.338 35.0648 140.233 35.0698 140.13 35.0515C140.027 35.0332 139.93 34.9922 139.845 34.9314C139.731 34.8654 139.709 34.7818 139.722 34.7598Z" fill="#A56349"/>
<path d="M144.901 36.775C144.672 37.0234 144.5 37.3187 144.397 37.6403C144.294 37.9618 144.262 38.302 144.304 38.6371C144.346 38.9722 144.461 39.2941 144.64 39.5804C144.819 39.8667 145.058 40.1106 145.341 40.295C145.187 40.4336 145.007 40.5396 144.811 40.6069C144.615 40.6742 144.408 40.7013 144.201 40.6866C144.056 41.1574 144.72 41.483 144.857 41.9582C144.888 42.1038 144.88 42.2551 144.834 42.3965C144.787 42.538 144.704 42.6646 144.593 42.7634C144.37 42.9629 144.108 43.1129 143.823 43.2034C142.99 43.5021 142.115 43.6698 141.231 43.7006C140.976 43.7362 140.716 43.7152 140.469 43.6392C140.223 43.5631 139.996 43.4339 139.805 43.2606C139.567 42.9012 139.455 42.4721 139.489 42.0418L139.396 38.843C139.354 38.5294 139.413 38.2105 139.563 37.9322C139.804 37.6623 140.133 37.4875 140.492 37.4394L145.037 36.2778" fill="#263238"/>
<path d="M156.429 109.872C155.844 106.44 152.328 89.87 152.328 89.87L154.502 50.27C153.498 49.5968 140.153 44.7568 140.153 44.7568C140.153 44.7568 138.098 50.8552 131.569 52.1928C125.039 53.5304 126.078 48.642 126.078 48.642C126.078 48.642 113.318 55.4576 112.574 55.9592C111.83 56.4608 108.654 69.2648 108.654 69.2648L106.251 77.55L116.34 79.8952C116.34 79.8952 116.591 99.6468 116.34 101.068C116.09 102.489 115.584 113.96 115.584 113.96L155.184 114.462C155.184 114.462 157.014 113.304 156.429 109.872Z" fill="#90CAF9"/>
<path d="M154.501 50.2832C154.501 50.2832 156.943 52.6768 157.762 55.044C158.58 57.4112 161.11 72.9344 161.11 72.9344C161.11 72.9344 147.224 74.8968 147.224 74.6504C147.224 74.404 148.447 65.7448 148.856 63.052C149.265 60.3592 154.501 50.2832 154.501 50.2832Z" fill="#90CAF9"/>
<path d="M124.696 69.3657L123.776 71.5041H123.2L122.285 69.3657H122.94L123.521 70.7605L124.115 69.3657H124.696Z" fill="white"/>
<path d="M124.683 70.4352C124.667 70.1964 124.723 69.9584 124.844 69.7521C124.966 69.5457 125.146 69.3807 125.362 69.2783C125.579 69.1759 125.821 69.1409 126.057 69.1779C126.293 69.215 126.513 69.3223 126.688 69.4859C126.863 69.6495 126.984 69.8619 127.036 70.0954C127.088 70.3289 127.069 70.5727 126.981 70.7952C126.893 71.0176 126.74 71.2084 126.542 71.3428C126.344 71.4771 126.11 71.5487 125.871 71.5484C125.719 71.558 125.566 71.5363 125.423 71.4848C125.279 71.4332 125.148 71.3528 125.036 71.2485C124.925 71.1442 124.836 71.0183 124.775 70.8784C124.715 70.7385 124.683 70.5877 124.683 70.4352ZM126.443 70.4352C126.437 70.3216 126.398 70.2123 126.33 70.1209C126.262 70.0294 126.169 69.9598 126.063 69.9207C125.956 69.8815 125.84 69.8746 125.729 69.9007C125.619 69.9269 125.518 69.9849 125.44 70.0676C125.362 70.1504 125.31 70.2542 125.291 70.3662C125.271 70.4783 125.285 70.5936 125.33 70.6978C125.376 70.8021 125.451 70.8907 125.546 70.9527C125.641 71.0148 125.753 71.0475 125.866 71.0468C125.946 71.0482 126.024 71.0331 126.098 71.0024C126.171 70.9718 126.237 70.9263 126.291 70.8688C126.346 70.8112 126.388 70.743 126.415 70.6684C126.442 70.5937 126.453 70.5143 126.447 70.4352H126.443Z" fill="white"/>
<path d="M127.375 69.3657H127.978V71.0245H128.999V71.5041H127.375V69.3657Z" fill="white"/>
<path d="M129.197 70.5537V69.3657H129.8V70.5317C129.8 70.9013 129.954 71.0465 130.209 71.0465C130.464 71.0465 130.61 70.9013 130.61 70.5317V69.3657H131.208V70.5537C131.191 70.8089 131.078 71.0481 130.891 71.2228C130.705 71.3976 130.458 71.4948 130.203 71.4948C129.947 71.4948 129.701 71.3976 129.514 71.2228C129.327 71.0481 129.214 70.8089 129.197 70.5537Z" fill="white"/>
<path d="M133.65 69.3657V71.5041H133.153L132.207 70.3645V71.5041H131.613V69.3657H132.11L133.056 70.5053V69.3657H133.65Z" fill="white"/>
<path d="M134.53 69.8453H133.874V69.3657H135.788V69.8453H135.137V71.5041H134.53V69.8453Z" fill="white"/>
<path d="M137.72 71.0377V71.5041H136.004V69.3657H137.68V69.8321H136.602V70.1929H137.553V70.6329H136.602V71.0245L137.72 71.0377Z" fill="white"/>
<path d="M139.784 71.0377V71.5041H138.068V69.3657H139.744V69.8321H138.666V70.1929H139.616V70.6329H138.666V71.0245L139.784 71.0377Z" fill="white"/>
<path d="M141.051 70.9365H140.721V71.5041H140.118V69.3657H141.095C141.68 69.3657 142.045 69.6693 142.045 70.1577C142.05 70.2987 142.013 70.4379 141.938 70.5578C141.864 70.6776 141.756 70.7727 141.627 70.8309L142.089 71.5041H141.438L141.051 70.9365ZM141.051 69.8409H140.712V70.4701H141.051C141.302 70.4701 141.425 70.3513 141.425 70.1577C141.425 69.9641 141.31 69.8409 141.06 69.8409H141.051Z" fill="white"/>
<path d="M116.376 86.4864C116.352 86.417 116.34 86.3441 116.34 86.2708C116.34 86.0992 116.305 85.888 116.279 85.6372C116.239 85.0916 116.195 84.3172 116.164 83.314C116.098 81.3472 116.076 78.6368 116.098 75.636C116.12 72.6352 116.173 69.916 116.23 67.9624C116.261 67.0076 116.292 66.2024 116.31 65.6392C116.31 65.384 116.336 65.1772 116.345 65.0056C116.345 64.9312 116.355 64.8572 116.376 64.7856C116.386 64.8586 116.386 64.9327 116.376 65.0056C116.376 65.1772 116.376 65.3884 116.376 65.6392C116.376 66.2244 116.376 67.012 116.376 67.9668C116.376 69.96 116.336 72.6572 116.31 75.6404C116.283 78.6236 116.288 81.3604 116.31 83.3096C116.31 84.2908 116.336 85.0696 116.354 85.6328C116.354 85.888 116.354 86.0728 116.354 86.2664C116.371 86.3385 116.378 86.4125 116.376 86.4864Z" fill="#263238"/>
<path d="M148.478 60.6626C148.5 60.8335 148.5 61.0065 148.478 61.1774C148.478 61.5602 148.478 62.0266 148.456 62.581C148.456 63.8218 148.429 65.4322 148.412 67.2186C148.394 69.005 148.363 70.6682 148.302 71.8562C148.271 72.4502 148.24 72.9298 148.205 73.2598C148.197 73.432 148.172 73.6029 148.13 73.7702C148.108 73.5993 148.108 73.4263 148.13 73.2554C148.13 72.8726 148.13 72.4062 148.13 71.8518C148.13 70.611 148.157 69.0006 148.174 67.2142C148.192 65.4278 148.227 63.7646 148.284 62.5766C148.315 61.9826 148.35 61.503 148.381 61.173C148.396 61.0001 148.429 60.8291 148.478 60.6626Z" fill="#263238"/>
<path d="M154.084 50.5996C152.17 51.2714 150.499 52.4966 149.283 54.1196C149.384 53.8395 149.533 53.579 149.723 53.3496C150.161 52.769 150.683 52.2573 151.272 51.8316C151.858 51.4022 152.505 51.0613 153.19 50.8196C153.472 50.6929 153.775 50.6183 154.084 50.5996Z" fill="#263238"/>
<path d="M115.641 60.3943C115.584 60.4295 115.003 59.4263 114.145 58.2955C113.287 57.1647 112.49 56.3199 112.539 56.2715C113.866 57.3935 114.919 58.8035 115.619 60.3943H115.641Z" fill="#263238"/>
<path d="M139.942 85.2234C139.902 85.2954 139.855 85.3632 139.801 85.4258C139.687 85.571 139.546 85.7558 139.361 85.9758C138.987 86.4554 138.424 87.133 137.711 87.9514C135.849 90.0884 133.873 92.1241 131.793 94.0498C129.712 95.9735 127.531 97.7859 125.259 99.4794C124.379 100.126 123.666 100.637 123.16 100.971L122.575 101.358C122.51 101.408 122.439 101.449 122.364 101.481C122.42 101.422 122.482 101.369 122.549 101.323L123.108 100.883C123.6 100.522 124.3 100.003 125.162 99.3298C126.878 98.0098 129.206 96.1134 131.639 93.865C134.072 91.6166 136.136 89.443 137.592 87.8282C138.318 87.023 138.912 86.363 139.295 85.901L139.735 85.3774C139.876 85.2762 139.92 85.219 139.942 85.2234Z" fill="#263238"/>
<path d="M156.671 135.96L161.92 119.887C162.703 117.484 163.561 114.967 165.44 113.287C166.535 112.301 168.203 111.659 169.479 112.407C169.897 112.688 170.24 113.066 170.479 113.509C170.718 113.952 170.846 114.447 170.852 114.95C170.858 115.956 170.693 116.956 170.363 117.907C168.251 125.224 165.682 132.396 163.011 139.528L163.284 139.035" fill="#90CAF9"/>
<path d="M163.68 132.282C163.68 132.352 162.848 132.172 161.92 131.771C160.991 131.371 160.283 130.922 160.323 130.856C160.362 130.79 161.101 131.129 162.025 131.516C162.949 131.903 163.711 132.207 163.68 132.282Z" fill="#263238"/>
<path d="M165.44 128.401C165.409 128.471 164.56 128.123 163.482 127.701C162.404 127.279 161.555 126.931 161.577 126.856C161.599 126.781 162.51 127.015 163.583 127.446C164.657 127.877 165.44 128.33 165.44 128.401Z" fill="#263238"/>
<path d="M167.05 125.193C167.006 125.259 166.17 124.722 165.048 124.243C163.926 123.763 162.971 123.517 162.989 123.433C163.007 123.35 164.014 123.49 165.158 123.988C166.302 124.485 167.094 125.136 167.05 125.193Z" fill="#263238"/>
<path d="M168.08 121.15C168.027 121.211 167.306 120.617 166.294 120.102C165.282 119.588 164.388 119.337 164.406 119.258C164.424 119.178 165.374 119.315 166.421 119.856C167.468 120.397 168.128 121.101 168.08 121.15Z" fill="#263238"/>
<path d="M156.565 122.214H154.999V125.316H156.565V122.214Z" fill="#263238"/>
<path d="M154.814 131.37V124.898H156.724V130.297C156.724 130.297 158.734 130.354 158.985 131.238C159.535 133.183 159.293 137.557 159.293 137.557L154.814 131.37Z" fill="#455A64"/>
<path d="M171.336 148.57C170.795 145.318 169.963 142.102 169.805 138.811C169.699 136.554 169.915 134.279 169.633 132.035C169.294 129.333 168.252 126.777 167.218 124.26C166.549 122.628 165.818 120.916 164.424 119.829C163.579 119.196 162.558 118.84 161.502 118.813C159.584 118.025 154.321 117.801 152.658 121.33C151.778 123.204 151.672 125.338 151.166 127.353C150.489 130.064 150.977 130.957 150.088 133.606C148.201 139.268 145.336 146.295 146.172 152.209C146.335 153.357 148.249 155.249 148.9 156.208C149.838 157.594 151.54 158.215 153.195 158.567C157.868 159.545 162.73 159.024 167.09 157.08C168.648 156.38 170.201 155.43 170.988 153.916C171.824 152.306 171.635 150.365 171.336 148.57ZM166.346 130.31C165.466 131.049 164.182 130.688 163.042 130.631C161.674 130.561 160.336 131.005 158.985 131.238C157.634 131.472 156.125 131.463 155.025 130.627C154.221 129.943 153.716 128.972 153.617 127.921C153.523 126.881 153.581 125.833 153.789 124.81C153.881 124.011 154.086 123.229 154.396 122.487C154.711 121.737 155.299 121.134 156.042 120.802C156.922 120.362 160.098 120.071 161.322 119.886C162.409 120.432 163.355 121.223 164.085 122.196C165.063 123.551 165.854 125.031 166.439 126.596C166.725 127.196 166.911 127.838 166.989 128.497C167.029 128.828 166.992 129.165 166.88 129.479C166.769 129.794 166.586 130.078 166.346 130.31Z" fill="#FAFAFA"/>
<path d="M166.346 130.31C166.561 130.092 166.725 129.829 166.826 129.54C166.941 129.195 166.982 128.829 166.945 128.466C166.884 127.978 166.753 127.501 166.558 127.05C166.073 125.815 165.501 124.617 164.846 123.464C164.025 121.981 162.787 120.771 161.286 119.983H161.348L158.774 120.322C158.334 120.384 157.894 120.454 157.428 120.538C156.976 120.609 156.533 120.73 156.108 120.898C155.409 121.211 154.853 121.773 154.546 122.474C154.27 123.101 154.082 123.762 153.987 124.44C153.877 125.114 153.767 125.76 153.723 126.429C153.669 127.068 153.704 127.71 153.828 128.339C153.954 128.935 154.207 129.496 154.572 129.984C154.928 130.44 155.403 130.789 155.945 130.992C156.463 131.175 157.01 131.266 157.56 131.26C158.557 131.221 159.547 131.074 160.512 130.82C161.324 130.624 162.158 130.531 162.994 130.543C163.728 130.587 164.349 130.702 164.859 130.702C165.251 130.721 165.643 130.65 166.003 130.495C166.245 130.376 166.351 130.279 166.36 130.288C166.262 130.389 166.149 130.474 166.025 130.539C165.662 130.713 165.262 130.799 164.859 130.79C164.34 130.79 163.711 130.702 162.989 130.671C162.166 130.673 161.345 130.776 160.547 130.979C159.569 131.235 158.566 131.383 157.555 131.419C156.983 131.431 156.414 131.338 155.874 131.146C155.296 130.937 154.788 130.57 154.409 130.086C153.656 129.009 153.331 127.689 153.498 126.385C153.542 125.716 153.652 125.065 153.762 124.37C153.863 123.673 154.057 122.992 154.339 122.346C154.67 121.589 155.273 120.985 156.028 120.652C156.475 120.476 156.94 120.35 157.414 120.278C157.854 120.194 158.321 120.124 158.77 120.062L161.339 119.732H161.374H161.405C162.939 120.542 164.198 121.788 165.022 123.314C165.675 124.479 166.236 125.693 166.703 126.944C166.896 127.409 167.021 127.9 167.072 128.4C167.103 128.775 167.05 129.152 166.918 129.505C166.835 129.724 166.711 129.926 166.553 130.099C166.496 130.18 166.426 130.251 166.346 130.31Z" fill="#263238"/>
<path d="M171.336 148.57C171.336 148.57 171.424 148.944 171.516 149.67C171.578 150.118 171.614 150.569 171.622 151.021C171.639 151.64 171.576 152.258 171.433 152.86C171.249 153.62 170.885 154.325 170.372 154.915C169.756 155.604 169.021 156.178 168.203 156.609C166.215 157.652 164.078 158.381 161.867 158.769C159.186 159.256 156.439 159.256 153.758 158.769C153.02 158.649 152.295 158.465 151.589 158.219C150.849 157.972 150.161 157.59 149.56 157.093C149.26 156.835 148.994 156.539 148.768 156.213C148.544 155.896 148.289 155.593 148.034 155.285C147.498 154.671 147.001 154.024 146.546 153.349C146.304 152.995 146.139 152.595 146.062 152.174C146.023 151.756 145.961 151.338 145.948 150.915C145.906 150.062 145.92 149.206 145.992 148.355C146.152 146.603 146.459 144.868 146.907 143.167C147.347 141.433 147.897 139.695 148.487 137.949C148.786 137.069 149.09 136.189 149.393 135.309C149.697 134.429 150.022 133.549 150.273 132.633C150.486 131.711 150.615 130.772 150.66 129.826C150.741 128.884 150.901 127.951 151.14 127.037C151.558 125.233 151.703 123.367 152.407 121.664C152.492 121.452 152.592 121.246 152.706 121.048C152.812 120.845 152.938 120.652 153.08 120.472C153.354 120.108 153.68 119.786 154.048 119.517C154.778 119 155.606 118.639 156.482 118.457C157.329 118.271 158.198 118.2 159.064 118.245C159.914 118.275 160.754 118.437 161.555 118.725H161.621V118.8L161.52 118.694C162.758 118.723 163.944 119.201 164.855 120.041C165.679 120.866 166.331 121.847 166.773 122.927C167.642 124.881 168.401 126.882 169.048 128.92C169.333 129.86 169.546 130.82 169.686 131.793C169.803 132.702 169.86 133.618 169.858 134.534C169.858 136.294 169.796 137.913 169.906 139.374C170.005 140.678 170.171 141.977 170.403 143.264C170.597 144.39 170.782 145.354 170.927 146.137C171.072 146.92 171.178 147.519 171.248 147.928C171.279 148.126 171.301 148.28 171.318 148.39C171.336 148.5 171.318 148.548 171.318 148.548C171.318 148.548 171.318 148.495 171.283 148.394C171.248 148.293 171.23 148.13 171.195 147.932C171.112 147.519 170.997 146.92 170.843 146.146C170.689 145.371 170.491 144.408 170.284 143.281C170.044 141.992 169.87 140.69 169.761 139.383C169.642 137.913 169.708 136.303 169.69 134.543C169.684 133.633 169.621 132.725 169.501 131.824C169.361 130.86 169.148 129.908 168.863 128.977C168.206 126.948 167.439 124.957 166.566 123.011C166.132 121.956 165.492 120.999 164.683 120.195C163.808 119.392 162.671 118.935 161.484 118.91H161.383V118.8L161.449 118.897C160.67 118.626 159.854 118.478 159.029 118.457C158.182 118.414 157.333 118.483 156.504 118.663C155.657 118.84 154.857 119.191 154.154 119.693C153.803 119.948 153.492 120.253 153.23 120.599C153.095 120.771 152.978 120.955 152.878 121.149C152.767 121.342 152.67 121.542 152.588 121.748C151.906 123.402 151.756 125.268 151.338 127.081C151.1 127.985 150.941 128.908 150.863 129.839C150.817 130.797 150.686 131.748 150.471 132.682C150.225 133.61 149.895 134.49 149.591 135.379C149.288 136.268 148.988 137.139 148.685 138.019C148.095 139.779 147.55 141.495 147.11 143.224C146.66 144.912 146.353 146.634 146.19 148.372C146.119 149.214 146.103 150.059 146.142 150.902C146.142 151.32 146.221 151.734 146.256 152.143C146.321 152.534 146.471 152.907 146.696 153.234C147.143 153.904 147.633 154.545 148.161 155.153C148.416 155.465 148.672 155.769 148.905 156.094C149.116 156.42 149.371 156.716 149.662 156.974C150.243 157.455 150.908 157.825 151.624 158.065C152.32 158.307 153.036 158.491 153.762 158.615C156.42 159.109 159.144 159.121 161.806 158.651C164.004 158.273 166.13 157.559 168.111 156.534C168.919 156.114 169.647 155.556 170.262 154.884C170.767 154.308 171.127 153.62 171.314 152.878C171.546 151.839 171.589 150.768 171.442 149.714C171.398 149.358 171.362 149.085 171.34 148.891C171.318 148.698 171.336 148.57 171.336 148.57Z" fill="#263238"/>
<path d="M166.346 130.31C166.555 130.089 166.715 129.827 166.817 129.54C166.932 129.195 166.973 128.829 166.936 128.466C166.875 127.979 166.743 127.503 166.544 127.054C166.059 125.82 165.486 124.624 164.828 123.472C164.01 121.991 162.773 120.784 161.273 120.001H161.348L158.774 120.34C158.334 120.406 157.894 120.472 157.432 120.555C156.981 120.627 156.538 120.746 156.112 120.912C155.42 121.225 154.869 121.783 154.563 122.478C154.289 123.104 154.102 123.764 154.009 124.44C153.894 125.109 153.789 125.76 153.74 126.429C153.581 127.667 153.881 128.919 154.585 129.949C154.938 130.403 155.41 130.749 155.949 130.948C156.465 131.131 157.008 131.223 157.555 131.221C158.551 131.179 159.539 131.031 160.503 130.781C161.317 130.582 162.152 130.489 162.989 130.504C163.728 130.548 164.344 130.666 164.855 130.666C165.245 130.687 165.635 130.618 165.994 130.464C166.236 130.35 166.342 130.253 166.355 130.262C166.26 130.366 166.147 130.453 166.021 130.517C165.659 130.695 165.258 130.783 164.855 130.772C164.336 130.772 163.706 130.684 162.985 130.658C162.163 130.661 161.344 130.766 160.547 130.97C159.569 131.236 158.564 131.392 157.551 131.436C156.977 131.444 156.407 131.352 155.866 131.164C155.282 130.953 154.77 130.583 154.387 130.094C153.632 129.012 153.305 127.686 153.472 126.376C153.516 125.708 153.626 125.056 153.736 124.361C153.832 123.66 154.028 122.975 154.317 122.328C154.649 121.568 155.256 120.96 156.015 120.626C156.462 120.446 156.929 120.319 157.406 120.247C157.846 120.159 158.316 120.093 158.761 120.032L161.335 119.702H161.374H161.41C162.946 120.514 164.208 121.763 165.035 123.292C165.685 124.46 166.245 125.674 166.712 126.926C166.906 127.392 167.03 127.885 167.077 128.387C167.105 128.764 167.051 129.142 166.918 129.496C166.835 129.715 166.711 129.917 166.553 130.09C166.498 130.175 166.428 130.25 166.346 130.31Z" fill="#263238"/>
<path d="M167.772 144.091C167.736 143.799 167.627 143.521 167.456 143.282C167.284 143.043 167.056 142.851 166.791 142.723C165.972 142.366 165.031 142.859 164.437 143.537C163.843 144.214 163.522 145.068 162.989 145.776C162.521 146.389 161.918 146.885 161.226 147.226C160.535 147.566 159.774 147.742 159.003 147.739C157.128 147.739 155.258 146.634 153.468 147.189C152.856 147.378 152.244 147.858 152.24 148.509C152.279 148.948 152.482 149.356 152.808 149.653C153.702 150.609 154.878 151.253 156.165 151.492C158.391 151.417 160.581 150.905 162.611 149.987C164.96 148.984 166.69 147.743 167.499 145.816C167.748 145.277 167.842 144.68 167.772 144.091Z" fill="#E0E0E0"/>
<path d="M167.464 146.731C167.358 146.884 167.232 147.023 167.09 147.145C166.724 147.499 166.337 147.833 165.933 148.143C163.236 150.212 159.973 151.409 156.578 151.575C156.068 151.608 155.557 151.608 155.047 151.575C154.86 151.575 154.674 151.552 154.493 151.505C154.493 151.452 155.289 151.505 156.565 151.395C159.896 151.122 163.09 149.948 165.805 147.998C166.852 147.241 167.433 146.691 167.464 146.731Z" fill="#263238"/>
<path d="M166.817 136.796C166.822 137.031 166.8 137.266 166.751 137.495C166.69 137.935 166.593 138.587 166.434 139.379C166.252 140.312 165.995 141.229 165.664 142.12C165.261 143.222 164.675 144.249 163.931 145.156C163.178 146.07 162.208 146.781 161.11 147.224C160.211 147.564 159.25 147.714 158.29 147.664C157.646 147.64 157.008 147.529 156.394 147.334C156.178 147.264 156.015 147.197 155.905 147.149C155.795 147.101 155.742 147.07 155.747 147.061C156.577 147.297 157.432 147.433 158.294 147.466C159.226 147.482 160.152 147.313 161.018 146.969C162.07 146.531 162.998 145.84 163.72 144.958C165.286 143.084 165.871 140.862 166.241 139.322C166.426 138.538 166.553 137.9 166.646 137.456C166.681 137.231 166.738 137.01 166.817 136.796Z" fill="#263238"/>
<path d="M152.596 144.496C152.318 144.315 152.081 144.076 151.901 143.796C151.416 143.159 151.062 142.432 150.858 141.658C150.65 140.883 150.594 140.074 150.691 139.278C150.711 138.947 150.798 138.623 150.946 138.327C151.039 138.327 150.634 139.823 151.122 141.583C151.611 143.343 152.68 144.443 152.596 144.496Z" fill="#263238"/>
<path d="M153.274 131.287C153.087 130.739 152.953 130.175 152.874 129.602C152.6 128.224 152.514 126.815 152.618 125.413C152.734 123.995 153.23 122.635 154.053 121.475C154.305 121.128 154.601 120.814 154.933 120.542C155.046 120.431 155.179 120.342 155.324 120.278C154.925 120.693 154.555 121.134 154.216 121.598C153.467 122.756 153.014 124.079 152.896 125.453C152.795 126.832 152.852 128.218 153.067 129.584C153.172 130.147 153.241 130.716 153.274 131.287Z" fill="#263238"/>
<path d="M149.679 74.4656L153.133 89.9888L154.167 114.356L161.691 113.797L162.782 88.9636L160.336 73.0444L149.679 74.4656Z" fill="#CE947A"/>
<path d="M154.968 123.332C154.894 123.367 154.812 123.385 154.73 123.384C154.648 123.384 154.567 123.366 154.493 123.33C154.419 123.295 154.354 123.244 154.302 123.18C154.25 123.116 154.213 123.042 154.193 122.962C153.907 121.897 153.168 119.002 153.186 117.929C153.212 116.578 153.987 111.373 153.987 111.373L161.832 111.425L163.803 118.584C163.803 118.584 163.288 121.523 162.773 121.695C162.446 121.778 162.114 121.843 161.779 121.889L161.563 122.791C161.123 124.168 159.491 123.789 159.491 123.789C159.418 124.055 159.286 124.301 159.103 124.507C158.921 124.714 158.694 124.876 158.439 124.982C158.204 125.065 157.949 125.081 157.706 125.025C157.462 124.97 157.239 124.847 157.062 124.669C157.062 124.669 155.989 125.299 155.518 124.775C155.047 124.251 155.179 123.125 155.179 123.125C155.135 123.216 155.06 123.289 154.968 123.332Z" fill="#CE947A"/>
<path d="M155.197 123.715C155.21 123.634 155.21 123.553 155.197 123.473C155.199 123.254 155.189 123.035 155.166 122.817C155.122 122.267 155.008 121.497 154.88 120.679C154.763 119.972 154.688 119.26 154.656 118.545C154.656 117.999 154.722 117.665 154.7 117.665C154.663 117.737 154.638 117.814 154.625 117.893C154.58 118.109 154.555 118.329 154.55 118.549C154.552 119.272 154.616 119.993 154.739 120.705C154.867 121.537 154.994 122.289 155.065 122.835C155.135 123.38 155.175 123.715 155.197 123.715Z" fill="#A56349"/>
<path d="M157.018 124.678C157.091 124.496 157.133 124.302 157.141 124.106C157.195 123.639 157.208 123.168 157.181 122.698C157.15 122.148 157.097 121.651 157.049 121.299C157.038 121.103 157.002 120.91 156.943 120.723C156.938 121.384 156.968 122.045 157.031 122.703C157.058 123.167 157.058 123.633 157.031 124.097C157.011 124.29 157.006 124.485 157.018 124.678Z" fill="#A56349"/>
<path d="M159.509 123.802C159.628 123.252 159.668 122.688 159.628 122.126C159.634 121.563 159.553 121.002 159.39 120.463C159.35 120.463 159.452 121.211 159.478 122.13C159.504 123.05 159.465 123.798 159.509 123.802Z" fill="#A56349"/>
<path d="M161.563 122.791C161.746 121.937 161.728 121.053 161.511 120.208C161.497 120.639 161.507 121.071 161.541 121.502C161.559 122.21 161.524 122.786 161.563 122.791Z" fill="#A56349"/>
<path d="M159.28 119.389C159.28 119.389 159.324 119.297 159.28 119.147C159.242 118.952 159.14 118.775 158.989 118.646C158.834 118.519 158.64 118.449 158.439 118.448C158.29 118.448 158.202 118.492 158.206 118.509C158.452 118.535 158.687 118.619 158.893 118.756C159.073 118.931 159.206 119.149 159.28 119.389Z" fill="#A56349"/>
<path d="M161.506 118.641C161.546 118.641 161.506 118.347 161.203 118.157C161.126 118.092 161.033 118.049 160.934 118.033C160.835 118.017 160.733 118.028 160.64 118.065C160.64 118.109 160.886 118.118 161.124 118.281C161.361 118.443 161.48 118.655 161.506 118.641Z" fill="#A56349"/>
<path d="M156.679 119.024C156.719 119.024 156.732 118.813 156.543 118.668C156.354 118.523 156.151 118.58 156.165 118.619C156.178 118.659 156.319 118.672 156.455 118.782C156.591 118.892 156.64 119.029 156.679 119.024Z" fill="#A56349"/>
<path d="M154 111.373C153.999 111.393 153.999 111.414 154 111.434L153.969 111.628C153.938 111.804 153.899 112.068 153.85 112.371C153.749 113.018 153.608 113.964 153.45 115.152C153.375 115.751 153.292 116.402 153.221 117.115C153.174 117.484 153.158 117.856 153.173 118.228C153.205 118.623 153.258 119.017 153.331 119.407C153.476 120.208 153.67 121.048 153.886 121.919C153.943 122.135 153.996 122.359 154.053 122.579C154.084 122.689 154.114 122.799 154.141 122.914C154.167 123.039 154.225 123.155 154.308 123.253C154.397 123.355 154.519 123.423 154.652 123.447C154.786 123.471 154.923 123.449 155.043 123.385C155.078 123.359 155.103 123.321 155.113 123.279C155.125 123.247 155.136 123.215 155.144 123.182C155.144 123.121 155.17 123.063 155.179 123.002C155.195 122.878 155.204 122.753 155.206 122.628C155.206 122.609 155.198 122.591 155.185 122.578C155.172 122.565 155.154 122.557 155.135 122.557C155.117 122.557 155.099 122.565 155.085 122.578C155.072 122.591 155.065 122.609 155.065 122.628C155.057 122.945 155.069 123.262 155.1 123.578C155.125 123.905 155.198 124.227 155.316 124.533C155.38 124.699 155.494 124.842 155.641 124.942C155.798 125.03 155.977 125.069 156.156 125.052C156.499 125.015 156.831 124.906 157.128 124.731H157.036C157.161 124.86 157.311 124.963 157.476 125.035C157.691 125.119 157.922 125.152 158.152 125.129C158.382 125.106 158.602 125.028 158.796 124.903C159.169 124.642 159.44 124.259 159.562 123.82L159.474 123.873C159.914 123.967 160.373 123.932 160.794 123.772C160.996 123.687 161.176 123.558 161.323 123.394C161.469 123.23 161.577 123.036 161.638 122.826C161.709 122.518 161.779 122.219 161.85 121.919L161.797 121.972C161.99 121.946 162.184 121.911 162.373 121.875L162.655 121.818L162.8 121.779C162.853 121.754 162.901 121.72 162.941 121.677C163.064 121.525 163.159 121.352 163.222 121.167C163.293 120.991 163.35 120.815 163.403 120.639C163.591 119.971 163.745 119.294 163.865 118.611V118.584L162.404 113.379C162.228 112.767 162.092 112.283 161.995 111.945C161.946 111.786 161.907 111.659 161.88 111.566C161.871 111.523 161.857 111.482 161.836 111.443C161.842 111.486 161.851 111.529 161.863 111.571C161.889 111.667 161.92 111.791 161.96 111.953C162.048 112.297 162.18 112.781 162.342 113.401C162.681 114.655 163.165 116.446 163.75 118.619V118.593C163.629 119.271 163.474 119.942 163.284 120.604C163.231 120.775 163.174 120.947 163.104 121.119C163.045 121.287 162.959 121.445 162.848 121.585C162.825 121.613 162.794 121.636 162.76 121.651L162.628 121.686L162.351 121.743C162.162 121.779 161.973 121.809 161.779 121.836C161.766 121.839 161.754 121.845 161.744 121.855C161.734 121.864 161.726 121.876 161.722 121.889C161.652 122.188 161.581 122.487 161.506 122.769C161.455 122.964 161.359 123.145 161.226 123.298C161.093 123.45 160.927 123.57 160.741 123.649C160.35 123.795 159.926 123.827 159.518 123.741C159.499 123.739 159.48 123.743 159.465 123.752C159.449 123.762 159.436 123.776 159.43 123.794C159.317 124.197 159.068 124.548 158.726 124.788C158.549 124.902 158.348 124.972 158.139 124.993C157.93 125.014 157.72 124.984 157.524 124.907C157.375 124.846 157.239 124.757 157.124 124.643C157.111 124.633 157.094 124.628 157.078 124.628C157.061 124.628 157.045 124.633 157.032 124.643C156.754 124.807 156.445 124.91 156.125 124.947C155.973 124.963 155.819 124.932 155.685 124.859C155.565 124.772 155.472 124.653 155.417 124.515C155.306 124.221 155.236 123.913 155.21 123.6C155.181 123.292 155.169 122.982 155.175 122.672H155.034C155.032 122.788 155.023 122.904 155.008 123.019C155.008 123.077 155.008 123.138 154.977 123.191C154.946 123.244 154.928 123.301 154.942 123.319C154.846 123.355 154.743 123.366 154.642 123.349C154.541 123.326 154.448 123.273 154.378 123.195C154.308 123.117 154.261 123.021 154.242 122.918C154.216 122.804 154.185 122.694 154.154 122.584C154.097 122.364 154.04 122.144 153.987 121.924C153.767 121.044 153.547 120.221 153.419 119.425C153.345 119.039 153.29 118.65 153.256 118.259C153.241 117.893 153.254 117.527 153.296 117.163C153.362 116.455 153.437 115.799 153.512 115.205C153.661 114.026 153.78 113.08 153.864 112.415C153.908 112.099 153.938 111.848 153.96 111.672C153.96 111.593 153.96 111.527 153.96 111.478C153.96 111.43 154 111.373 154 111.373Z" fill="#A56349"/>
<path d="M126.078 44.8796C128.61 44.8844 131.087 44.1354 133.192 42.728C133.192 42.728 131.569 46.688 126.086 46.3008L126.078 44.8796Z" fill="#A56349"/>
<path opacity="0.3" d="M148.144 74.6721L149.679 74.4653L152.482 87.0625L152.328 89.8697L153.327 94.5997L153.661 102.485C153.661 102.485 149.882 90.6309 149.679 87.8017C149.459 84.7657 148.144 74.6545 148.144 74.6545" fill="black"/>
<path d="M79.4771 198.58C79.4771 198.58 79.9742 201.704 79.9566 202.25L82.1566 204.151L87.771 202.897L88.233 198.303L79.4771 198.58Z" fill="#F4C3AE"/>
<path d="M87.8856 202.206V202.708C87.8856 202.708 96.3732 205.999 96.4832 207.601L79.7104 207.715L79.8996 202.131C81.147 202.718 82.5062 203.028 83.8845 203.041C85.2627 203.054 86.6275 202.769 87.8856 202.206Z" fill="#90CAF9"/>
<g opacity="0.6">
<path d="M79.7192 207.715L79.7632 206.373L95.8232 206.751C95.8232 206.751 96.5712 207.073 96.492 207.601L79.7192 207.715Z" fill="white"/>
</g>
<path d="M87.9559 202.752C87.9559 202.836 87.5423 202.875 87.1419 203.139C86.7415 203.403 86.5303 203.755 86.4511 203.72C86.3719 203.685 86.4951 203.214 86.9879 202.902C87.4807 202.589 87.9735 202.677 87.9559 202.752Z" fill="#263238"/>
<path d="M89.7203 203.469C89.7203 203.548 89.3859 203.689 89.1087 204.037C88.8315 204.384 88.7567 204.754 88.6687 204.749C88.5807 204.745 88.5323 204.283 88.8843 203.869C89.2363 203.456 89.7159 203.39 89.7203 203.469Z" fill="#263238"/>
<path d="M90.7324 205.568C90.6576 205.568 90.5432 205.176 90.7324 204.728C90.9216 204.279 91.322 204.094 91.3572 204.164C91.3924 204.235 91.1548 204.472 90.992 204.846C90.8292 205.22 90.816 205.559 90.7324 205.568Z" fill="#263238"/>
<path d="M97.7415 198.58C97.7415 198.58 98.2387 201.704 98.2211 202.25L100.421 204.151L106.04 202.897L106.506 198.303L97.7415 198.58Z" fill="#F4C3AE"/>
<path d="M106.154 202.206V202.708C106.154 202.708 114.642 205.999 114.752 207.601L97.9749 207.715L98.1641 202.131C99.4122 202.718 100.772 203.028 102.151 203.041C103.53 203.054 104.896 202.769 106.154 202.206Z" fill="#90CAF9"/>
<g opacity="0.6">
<path d="M97.9836 207.715L98.032 206.373L114.092 206.751C114.092 206.751 114.84 207.073 114.761 207.601L97.9836 207.715Z" fill="white"/>
</g>
<path d="M106.22 202.752C106.22 202.836 105.811 202.875 105.406 203.139C105.002 203.403 104.795 203.755 104.72 203.72C104.645 203.685 104.764 203.214 105.252 202.902C105.741 202.589 106.238 202.677 106.22 202.752Z" fill="#263238"/>
<path d="M107.985 203.469C107.985 203.548 107.65 203.689 107.373 204.037C107.096 204.384 107.021 204.754 106.933 204.749C106.845 204.745 106.797 204.283 107.149 203.869C107.501 203.456 107.985 203.39 107.985 203.469Z" fill="#263238"/>
<path d="M108.997 205.568C108.926 205.568 108.808 205.176 108.997 204.728C109.186 204.279 109.586 204.094 109.622 204.164C109.657 204.235 109.419 204.472 109.256 204.846C109.094 205.22 109.08 205.559 108.997 205.568Z" fill="#263238"/>
<path d="M111.852 120.256H74.9803L71.1699 137.716L78.7863 199.791H90.5783L93.2755 145.116L96.1135 199.791H108.755L114.066 138.402L111.852 120.256Z" fill="#263238"/>
<path d="M83.666 198.924C83.6 198.924 83.4416 187.981 83.3052 174.491C83.1688 161 83.1116 150.04 83.16 150.04C83.2084 150.04 83.3844 160.974 83.5164 174.473C83.6484 187.972 83.7276 198.92 83.666 198.924Z" fill="#455A64"/>
<path d="M102.546 198.713C102.542 198.667 102.542 198.622 102.546 198.576C102.546 198.475 102.568 198.343 102.586 198.176C102.626 197.811 102.678 197.296 102.753 196.64C102.903 195.32 103.105 193.38 103.334 190.995C103.563 188.61 103.774 185.768 104.007 182.604C104.24 179.441 104.381 175.965 104.487 172.313C104.592 168.661 104.606 165.171 104.584 162.003C104.562 158.835 104.474 155.984 104.377 153.591C104.28 151.197 104.188 149.257 104.108 147.919C104.078 147.263 104.051 146.749 104.029 146.379C104.029 146.212 104.029 146.08 104.029 145.979C104.026 145.933 104.026 145.888 104.029 145.842C104.043 145.886 104.051 145.932 104.051 145.979L104.091 146.375C104.117 146.744 104.161 147.255 104.214 147.915C104.32 149.235 104.438 151.188 104.553 153.582C104.667 155.975 104.76 158.831 104.808 162.003C104.856 165.176 104.808 168.661 104.729 172.317C104.65 175.973 104.443 179.458 104.232 182.622C104.02 185.785 103.761 188.628 103.51 191.013C103.259 193.397 103.035 195.325 102.854 196.653C102.762 197.305 102.696 197.815 102.643 198.18C102.643 198.347 102.599 198.479 102.586 198.581C102.578 198.626 102.564 198.67 102.546 198.713Z" fill="#455A64"/>
<path d="M91.9027 64.2397L77.8227 65.0009L76.6743 70.3073C76.6743 70.3073 80.5595 73.4269 80.9467 73.5545C81.3339 73.6821 90.1867 74.9185 90.1867 74.9185C90.1867 74.9185 99.7127 70.4789 99.5851 70.5185C99.4575 70.5581 91.9027 64.2397 91.9027 64.2397Z" fill="#F4C3AE"/>
<path d="M79.64 39.6656C78.8392 38.834 77.484 38.9924 76.3488 39.2256C75.68 39.3214 75.0291 39.5156 74.4172 39.802C74.1124 39.9491 73.8432 40.1606 73.6282 40.4219C73.4132 40.6833 73.2575 40.9882 73.172 41.3156C72.974 42.3232 73.6912 43.322 73.5636 44.3428C73.4965 44.6982 73.3532 45.0349 73.1435 45.3296C72.9339 45.6243 72.6629 45.8701 72.3492 46.05C71.7193 46.4072 71.0403 46.6696 70.334 46.8288C70.6807 47.2667 71.1149 47.6274 71.6088 47.888C72.1028 48.1487 72.6457 48.3034 73.2028 48.3424C73.1368 48.7076 72.6704 48.8132 72.3228 48.8616C71.9752 48.91 71.4868 49.1168 71.5396 49.4864C71.5908 49.6704 71.7104 49.8278 71.874 49.9264C73.8253 51.3875 76.2293 52.1136 78.6632 51.9768C79.7984 51.9108 80.9996 51.6072 81.7432 50.758C82.4868 49.9088 82.6232 48.8352 82.6232 47.7748C82.6022 46.3172 82.2707 44.8808 81.6508 43.5614C81.0309 42.242 80.1369 41.0699 79.0284 40.1232" fill="#E0E0E0"/>
<path d="M79.0195 40.194C78.8444 39.4685 78.838 38.7124 79.0009 37.9841C79.1638 37.2557 79.4916 36.5744 79.9591 35.9926C80.4266 35.4108 81.0213 34.944 81.6975 34.6281C82.3737 34.3122 83.1133 34.1556 83.8595 34.1704C84.3802 34.2436 84.9103 34.2091 85.4171 34.0692C85.8376 33.8316 86.2142 33.5235 86.5303 33.1584C87.5599 32.2256 88.9943 31.9132 90.3627 31.6976C92.3119 31.3896 94.3535 31.2136 96.2147 31.8604C98.0759 32.5072 99.7083 34.1792 99.7347 36.1504C99.7347 37.0304 99.4575 37.8576 99.4091 38.72C99.3607 39.5824 99.6467 40.5724 100.43 40.92C100.936 41.1576 101.596 41.1136 101.957 41.5404C102.089 41.7368 102.156 41.9694 102.15 42.206C102.143 42.4425 102.064 42.6712 101.922 42.8604C101.617 43.2312 101.236 43.5314 100.804 43.7404C101.162 43.837 101.478 44.0487 101.704 44.3429C101.93 44.6371 102.053 44.9975 102.054 45.3684C102.04 45.739 101.945 46.102 101.774 46.4314C101.604 46.7608 101.363 47.0484 101.068 47.2736C100.475 47.7181 99.7914 48.0275 99.0659 48.18C95.6647 49.0292 92.0523 48.1536 88.8535 46.7236C85.3248 45.1382 82.1283 42.8987 79.4331 40.1236L79.7059 39.8112" fill="#E0E0E0"/>
<path d="M78.1484 41.8308C78.2584 41.5184 79.178 39.4108 79.508 39.4328C79.7412 39.4328 79.1956 41.404 79.3188 41.6064C80.5112 43.5204 80.8896 45.8524 80.7752 48.1052C80.6394 50.2925 80.2586 52.4576 79.64 54.56" fill="#E0E0E0"/>
<path d="M79.64 54.56C78.8491 52.5271 78.2367 50.4292 77.8096 48.29L79.64 54.56Z" fill="#E0E0E0"/>
<path d="M86.0729 72.5603C84.4474 72.5726 82.8818 71.9482 81.7108 70.8209C80.5399 69.6935 79.8566 68.1526 79.8073 66.5279L79.2001 46.1999C78.8613 40.7395 81.7565 35.9919 87.2213 35.8071H87.7273C90.1821 35.8686 92.5239 36.852 94.2866 38.5617C96.0493 40.2714 97.1037 42.5821 97.2401 45.0339C97.5085 49.7683 97.7417 54.9999 97.6493 57.5299C97.4557 62.7747 92.1933 63.4655 92.1933 63.4655C92.1933 63.4655 92.1933 64.6799 92.2285 66.2199C92.2436 67.0416 92.0959 67.8581 91.794 68.6224C91.492 69.3867 91.0417 70.0837 90.469 70.6731C89.8964 71.2626 89.2127 71.7328 88.4574 72.0567C87.7021 72.3806 86.8902 72.5518 86.0685 72.5603H86.0729Z" fill="#F4C3AE"/>
<path d="M92.202 63.5271C89.778 63.4577 87.4247 62.6942 85.4216 61.3271C85.4216 61.3271 86.9924 65.1815 92.2372 64.8471L92.202 63.5271Z" fill="#CC937F"/>
<path d="M88.5235 55.0526C88.6386 54.9278 88.7803 54.8305 88.9381 54.768C89.096 54.7055 89.2659 54.6793 89.4353 54.6913C89.6046 54.7034 89.7691 54.7535 89.9164 54.8379C90.0638 54.9222 90.1903 55.0386 90.2865 55.1786C90.3827 55.3185 90.4461 55.4782 90.4721 55.646C90.4982 55.8138 90.4861 55.9853 90.4367 56.1477C90.3874 56.3102 90.3022 56.4595 90.1873 56.5845C90.0724 56.7095 89.9308 56.807 89.773 56.8698C89.4804 56.9774 89.1607 56.9867 88.8623 56.8962C88.6324 56.8416 88.4259 56.7152 88.2726 56.5355C88.1794 56.3946 88.1229 56.2326 88.1083 56.0643C88.0937 55.896 88.1214 55.7267 88.189 55.5718C88.2907 55.3114 88.461 55.0833 88.6819 54.9118" fill="#CC937F"/>
<path d="M95.9198 48.5537C95.9175 48.7491 95.8389 48.9358 95.7008 49.0739C95.5627 49.212 95.376 49.2906 95.1806 49.2929C95.085 49.2983 94.9893 49.2844 94.8991 49.2521C94.8089 49.2198 94.7261 49.1698 94.6555 49.105C94.585 49.0402 94.5282 48.962 94.4884 48.8748C94.4486 48.7877 94.4266 48.6935 94.4238 48.5977C94.4272 48.4027 94.5062 48.2167 94.6441 48.0788C94.782 47.9409 94.968 47.8619 95.163 47.8585C95.2587 47.8532 95.3544 47.8671 95.4446 47.8994C95.5348 47.9316 95.6176 47.9816 95.6881 48.0464C95.7587 48.1112 95.8155 48.1895 95.8553 48.2766C95.8951 48.3638 95.917 48.458 95.9198 48.5537Z" fill="#263238"/>
<path d="M96.0827 47.5904C95.9859 47.6828 95.4271 47.2516 94.6219 47.234C93.8167 47.2164 93.2139 47.6036 93.1303 47.5068C93.0467 47.41 93.1875 47.2868 93.4515 47.1064C93.8059 46.8728 94.2239 46.7545 94.6483 46.7676C95.0672 46.7761 95.4726 46.9179 95.8055 47.1724C96.0475 47.366 96.1267 47.5464 96.0827 47.5904Z" fill="#263238"/>
<path d="M88.3739 48.5537C88.3705 48.7495 88.2909 48.9362 88.1521 49.0742C88.0133 49.2122 87.8261 49.2907 87.6303 49.2929C87.5351 49.2977 87.4398 49.2833 87.3501 49.2508C87.2604 49.2182 87.1782 49.1681 87.1081 49.1034C87.038 49.0386 86.9816 48.9606 86.9421 48.8737C86.9025 48.7869 86.8807 48.6931 86.8779 48.5977C86.8802 48.4024 86.9588 48.2157 87.097 48.0776C87.2351 47.9394 87.4218 47.8608 87.6171 47.8585C87.7128 47.8532 87.8085 47.8671 87.8987 47.8994C87.9889 47.9316 88.0717 47.9816 88.1422 48.0464C88.2128 48.1112 88.2696 48.1895 88.3094 48.2766C88.3492 48.3638 88.3711 48.458 88.3739 48.5537Z" fill="#263238"/>
<path d="M88.3211 47.5947C88.2287 47.6915 87.6699 47.2559 86.8647 47.2383C86.0595 47.2207 85.4567 47.6123 85.3731 47.5111C85.2895 47.4099 85.4259 47.2911 85.6899 47.1107C86.0446 46.8776 86.4625 46.7593 86.8867 46.7719C87.3065 46.7833 87.7124 46.9248 88.0483 47.1767C88.2903 47.3747 88.3695 47.5507 88.3211 47.5947Z" fill="#263238"/>
<path d="M90.9128 53.6489C91.3419 53.5228 91.7857 53.4533 92.2328 53.4421C92.4396 53.4421 92.6376 53.3893 92.6728 53.2485C92.6966 53.0368 92.6535 52.8229 92.5496 52.6369L91.96 51.0397C91.168 48.7913 90.6004 46.9389 90.6884 46.9081C90.7764 46.8773 91.498 48.6681 92.2856 50.9297C92.4792 51.4841 92.6596 52.0165 92.8312 52.5225C92.9573 52.7729 92.9886 53.0605 92.9192 53.3321C92.888 53.4035 92.8408 53.4668 92.7813 53.5171C92.7218 53.5675 92.6516 53.6035 92.576 53.6225C92.4614 53.6534 92.3427 53.6667 92.224 53.6621C91.7881 53.711 91.3477 53.7066 90.9128 53.6489Z" fill="#263238"/>
<path d="M88.5279 54.1461C88.6599 54.1461 88.6379 55.0261 89.3727 55.6553C90.1075 56.2845 91.0403 56.2229 91.0447 56.3461C91.0447 56.3989 90.8335 56.5089 90.4419 56.5133C89.9282 56.5061 89.4331 56.3192 89.0427 55.9853C88.6695 55.6652 88.4358 55.2121 88.3915 54.7225C88.3651 54.3573 88.4663 54.1417 88.5279 54.1461Z" fill="#263238"/>
<path d="M88.44 44.4397C88.352 44.6553 87.56 44.5321 86.6052 44.6245C85.6504 44.7169 84.8848 44.9545 84.7616 44.7565C84.7088 44.6597 84.8452 44.4573 85.162 44.2549C85.577 43.9989 86.0482 43.8478 86.5348 43.8149C87.0193 43.7672 87.5082 43.8366 87.9604 44.0173C88.2816 44.1669 88.44 44.3429 88.44 44.4397Z" fill="#E0E0E0"/>
<path d="M95.8188 45.3197C95.6736 45.5001 95.1236 45.3197 94.4548 45.2713C93.786 45.2229 93.2184 45.3637 93.0952 45.1701C93.038 45.0777 93.1304 44.8973 93.3856 44.7301C93.7204 44.5283 94.1086 44.4332 94.4988 44.4573C94.892 44.4735 95.2703 44.6119 95.5812 44.8533C95.81 45.0205 95.8848 45.2097 95.8188 45.3197Z" fill="#E0E0E0"/>
<path d="M79.53 50.1598C79.442 50.1202 75.9528 49.007 75.9792 52.5974C76.0056 56.1878 79.6048 55.4178 79.6092 55.3122C79.6136 55.2066 79.53 50.1598 79.53 50.1598Z" fill="#F4C3AE"/>
<path d="M78.5048 53.9524C78.5048 53.9524 78.4432 53.9964 78.3376 54.0448C78.1882 54.1059 78.0207 54.1059 77.8712 54.0448C77.4884 53.9128 77.1628 53.31 77.1408 52.6632C77.1333 52.3608 77.1918 52.0605 77.3124 51.7832C77.3444 51.6704 77.4036 51.5672 77.485 51.4827C77.5663 51.3983 77.6673 51.3353 77.7788 51.2992C77.8502 51.2785 77.9267 51.284 77.9944 51.3146C78.0622 51.3453 78.1168 51.3991 78.1484 51.4664C78.1968 51.5676 78.1748 51.638 78.1924 51.6424C78.21 51.6468 78.2716 51.5852 78.2408 51.4356C78.2169 51.3475 78.1661 51.2691 78.0956 51.2112C78.0471 51.1729 77.9911 51.1453 77.9312 51.1302C77.8713 51.115 77.8089 51.1126 77.748 51.1232C77.6011 51.1541 77.4646 51.2221 77.3514 51.3206C77.2381 51.4192 77.152 51.5451 77.1012 51.6864C76.951 51.9972 76.88 52.3403 76.8944 52.6852C76.9208 53.4112 77.2948 54.0844 77.8184 54.2296C77.9145 54.2567 78.0155 54.2618 78.1138 54.2442C78.2122 54.2267 78.3052 54.1871 78.386 54.1284C78.496 54.0404 78.518 53.9612 78.5048 53.9524Z" fill="#CC937F"/>
<path d="M94.9431 39.2654C95.5195 38.9354 93.6231 37.0082 92.1931 36.3834C90.0195 35.4418 86.7151 34.8962 84.7351 35.5034C82.3503 36.225 80.3835 37.4482 79.2175 39.6482C78.0945 41.8863 77.5888 44.3832 77.7523 46.8818C77.7831 47.6386 76.3443 48.0742 76.7623 48.7122C77.2683 49.4866 77.1495 49.1214 78.0163 50.195C78.2583 50.4986 78.6367 50.8418 78.8963 51.1322C79.5739 51.911 81.2679 52.065 81.6331 51.383C82.388 50.1073 82.8016 48.6586 82.8343 47.1766C82.8651 46.0766 82.8871 44.409 82.5967 43.3486C82.4875 42.9549 82.4385 42.547 82.4515 42.1386C82.4527 41.4682 82.6484 40.8126 83.0147 40.251C83.1121 40.132 83.2195 40.0216 83.3359 39.921C83.7641 39.5552 84.2806 39.3078 84.8341 39.2036C85.3876 39.0994 85.9587 39.142 86.4907 39.327C88.5367 40.0046 90.1867 41.1222 92.5275 40.119C92.9289 39.9006 93.2727 39.5899 93.5307 39.2126C93.7272 39.0387 93.9818 38.9449 94.2442 38.9498C94.5066 38.9547 94.7576 39.0579 94.9475 39.239L94.9431 39.2654Z" fill="#E0E0E0"/>
<path d="M83.0191 40.0661C83.5982 39.7433 84.2365 39.5407 84.8958 39.4704C85.555 39.4001 86.2217 39.4635 86.8559 39.6569C87.9251 39.9869 88.8491 40.6733 89.8787 41.1133C91.0354 41.5921 92.2975 41.7591 93.539 41.5977C94.7805 41.4364 95.9579 40.9523 96.9539 40.1937C97.244 40.0059 97.4914 39.7592 97.6801 39.4697C97.8689 39.1801 97.9947 38.8542 98.0495 38.5129C98.0516 38.2244 97.9891 37.9391 97.8665 37.678C97.7439 37.4168 97.5644 37.1864 97.3411 37.0037C96.8921 36.644 96.3783 36.3736 95.8275 36.2073C93.3023 35.3916 90.6197 35.1865 87.9999 35.6089C85.8923 35.9081 83.7407 36.5637 82.2227 38.0465C82.014 38.2338 81.8476 38.4633 81.7343 38.7197C81.6771 38.8521 81.6551 38.9971 81.6706 39.1405C81.686 39.2839 81.7382 39.4209 81.8223 39.5381C81.9121 39.6499 82.0424 39.7218 82.1848 39.7382C82.3273 39.7547 82.4705 39.7144 82.5835 39.6261" fill="#E0E0E0"/>
<path d="M97.0375 48.3381C97.0375 48.3997 96.8439 48.4745 96.5975 48.5537C96.3511 48.6329 96.1575 48.6989 96.1179 48.6461C96.0783 48.5933 96.2543 48.4305 96.5227 48.3381C96.7911 48.2457 97.0331 48.2765 97.0375 48.3381Z" fill="#CC937F"/>
<path d="M97.3457 48.906C97.3457 48.9676 97.0773 48.9808 96.7692 48.9852C96.4612 48.9896 96.2016 48.9852 96.1928 48.906C96.184 48.8268 96.4392 48.752 96.7692 48.752C97.0993 48.752 97.3545 48.84 97.3457 48.906Z" fill="#CC937F"/>
<path d="M84.845 48.5756C84.845 48.6416 84.4886 48.6548 84.0574 48.6548C83.6262 48.6548 83.2742 48.6548 83.2698 48.5756C83.2654 48.4964 83.613 48.4216 84.0574 48.426C84.5018 48.4304 84.8538 48.514 84.845 48.5756Z" fill="#CC937F"/>
<path d="M84.8012 49.302C84.8012 49.368 84.4844 49.3592 84.1148 49.3592C83.7452 49.3592 83.446 49.3592 83.4328 49.3064C83.4196 49.2536 83.7232 49.1304 84.1148 49.1304C84.5064 49.1304 84.8144 49.2448 84.8012 49.302Z" fill="#CC937F"/>
<path d="M88.1142 50.4764C88.1142 50.4764 88.013 50.6392 87.7534 50.7844C87.4109 50.9672 87.0223 51.0452 86.6358 51.0088C86.2472 50.9678 85.8789 50.815 85.5754 50.5688C85.351 50.3752 85.263 50.2124 85.285 50.1948C85.6931 50.4884 86.1625 50.6854 86.6578 50.7712C87.159 50.7809 87.6562 50.6803 88.1142 50.4764Z" fill="#CC937F"/>
<path d="M88.4795 50.3007C88.5059 50.3579 88.1231 50.5559 87.5995 50.5559C87.4435 50.5751 87.2852 50.5628 87.1341 50.5197C86.9829 50.4767 86.8419 50.4037 86.7195 50.3051C86.7195 50.2435 87.1243 50.3315 87.5995 50.3051C88.0747 50.2787 88.4399 50.2391 88.4795 50.3007Z" fill="#CC937F"/>
<path d="M96.2718 49.7992C95.8827 50.0462 95.4404 50.1974 94.9815 50.2402C94.5225 50.283 94.06 50.2163 93.6318 50.0456C93.6318 49.9796 94.2302 50.0808 94.9518 50.0104C95.6734 49.94 96.2454 49.72 96.2718 49.7992Z" fill="#CC937F"/>
<path d="M95.8804 50.0762C95.5841 50.4063 95.1865 50.6287 94.75 50.7083C94.3136 50.7879 93.8631 50.7204 93.4692 50.5162C93.883 50.5356 94.2975 50.5268 94.71 50.4898C95.1088 50.3776 95.4998 50.2394 95.8804 50.0762Z" fill="#CC937F"/>
<path d="M94.2082 43.6829C93.9168 43.7997 93.61 43.8738 93.2974 43.9029C92.5533 44.013 91.8006 44.0527 91.049 44.0217C90.2974 43.9923 89.5504 43.8906 88.8182 43.7181C88.511 43.6702 88.2137 43.5721 87.9382 43.4277C87.9382 43.3573 89.3286 43.7313 91.0666 43.7929C92.8046 43.8545 94.195 43.6125 94.2082 43.6829Z" fill="#CC937F"/>
<path d="M94.7541 43.0536C92.8327 43.4231 90.8586 43.4231 88.9373 43.0536C88.9373 42.9876 90.2573 43.1108 91.8457 43.1108C93.4341 43.1108 94.7453 42.9876 94.7541 43.0536Z" fill="#CC937F"/>
<path d="M90.6619 45.6541C90.5959 45.6541 90.5783 45.4869 90.5695 45.3065C90.5607 45.1261 90.5695 44.9677 90.6355 44.9501C90.7015 44.9325 90.7939 45.0865 90.7983 45.2977C90.8027 45.5089 90.7191 45.6717 90.6619 45.6541Z" fill="#CC937F"/>
<path d="M91.7663 45.7994C91.7443 45.8566 91.4891 45.7994 91.3835 45.5002C91.2779 45.201 91.4055 44.9898 91.4627 45.0206C91.5199 45.0514 91.5155 45.223 91.5947 45.4166C91.6739 45.6102 91.7971 45.7598 91.7663 45.7994Z" fill="#CC937F"/>
<path d="M88.4091 53.9173C88.4091 53.9833 88.1539 54.0229 87.9295 54.2121C87.7051 54.4013 87.6039 54.6521 87.5423 54.6169C87.4807 54.5817 87.4807 54.2781 87.7843 54.0317C88.0879 53.7853 88.4399 53.8557 88.4091 53.9173Z" fill="#CC937F"/>
<path d="M87.4675 53.8516C87.4675 53.9132 87.3179 53.9484 87.2167 54.0716C87.1155 54.1948 87.0891 54.3268 87.0275 54.3488C86.9659 54.3708 86.9571 54.318 86.9439 54.23C86.9369 54.1744 86.9423 54.1179 86.9598 54.0647C86.9773 54.0114 87.0064 53.9627 87.0451 53.922C87.081 53.8785 87.126 53.8434 87.1769 53.819C87.2278 53.7947 87.2835 53.7818 87.3399 53.7812C87.4279 53.7812 87.4719 53.8208 87.4675 53.8516Z" fill="#CC937F"/>
<path d="M84.0619 67.8961C84.0619 67.8961 83.9563 67.8961 83.8155 67.7729C83.6285 67.6008 83.5072 67.369 83.4723 67.1173C83.4157 66.7542 83.4307 66.3835 83.5163 66.0261C83.6262 65.6258 83.6262 65.2032 83.5163 64.8029C83.4415 64.6093 83.2963 64.4289 83.2083 64.2001C83.1354 63.9786 83.1354 63.7396 83.2083 63.5181C83.2578 63.3531 83.2578 63.1772 83.2083 63.0121C83.1493 62.8662 83.0741 62.7275 82.9839 62.5985C82.9054 62.4961 82.8517 62.3767 82.8273 62.2499C82.8029 62.1232 82.8083 61.9924 82.8431 61.8681C82.9179 61.6833 83.0411 61.6613 83.0411 61.6745C83.0411 61.6877 82.9619 61.7405 82.9267 61.8901C82.9141 62.0013 82.9248 62.1139 82.9581 62.2207C82.9915 62.3275 83.0467 62.4262 83.1203 62.5105C83.2274 62.6457 83.3175 62.7935 83.3887 62.9505C83.4502 63.1513 83.4502 63.3658 83.3887 63.5665C83.329 63.7465 83.329 63.9409 83.3887 64.1209C83.4591 64.3057 83.5999 64.4817 83.6967 64.7193C83.8268 65.1587 83.8268 65.6263 83.6967 66.0657C83.607 66.3996 83.5757 66.7464 83.6043 67.0909C83.6245 67.3173 83.7101 67.5328 83.8507 67.7113C83.9871 67.8345 84.0707 67.8785 84.0619 67.8961Z" fill="#CC937F"/>
<path d="M86.3412 68.332C86.3412 68.332 86.2268 68.332 86.0684 68.2396C85.8605 68.0746 85.7072 67.8507 85.6284 67.5972C85.3455 66.8126 85.1479 65.9998 85.0388 65.1728C85.0163 64.933 85.009 64.692 85.0168 64.4512C85.0317 64.2388 85.0317 64.0256 85.0168 63.8132C85.0168 63.4172 84.6208 63.2808 84.37 63.052C84.2468 62.949 84.1641 62.8055 84.1368 62.6472C84.1298 62.5851 84.1373 62.5221 84.1586 62.4633C84.18 62.4046 84.2147 62.3515 84.26 62.3084C84.4228 62.1632 84.5592 62.2512 84.5416 62.26C84.524 62.2688 84.4272 62.26 84.326 62.37C84.2974 62.4053 84.2766 62.4464 84.2652 62.4904C84.2539 62.5345 84.2521 62.5804 84.26 62.6252C84.2975 62.7469 84.3731 62.8533 84.4756 62.9288C84.59 63.0256 84.744 63.1004 84.9156 63.2192C85.0055 63.2869 85.0807 63.3721 85.1366 63.4697C85.1926 63.5672 85.2282 63.6751 85.2412 63.7868C85.2589 64.0109 85.2589 64.236 85.2412 64.46C85.2371 64.6906 85.2459 64.9212 85.2676 65.1508C85.3789 65.9605 85.551 66.7606 85.7824 67.5444C85.8366 67.7777 85.9503 67.993 86.1124 68.1692C86.24 68.288 86.3456 68.3144 86.3412 68.332Z" fill="#CC937F"/>
<path d="M87.3486 33.5016C87.4114 33.458 87.4794 33.4225 87.551 33.396C87.6889 33.3285 87.8913 33.2449 88.1582 33.1452C88.9158 32.8745 89.7032 32.6957 90.5034 32.6128C91.6941 32.483 92.8981 32.5589 94.063 32.8372C94.7588 32.9885 95.4288 33.2405 96.0518 33.5852C96.7456 33.9424 97.31 34.508 97.6659 35.2024C98.0218 35.8969 98.1513 36.6854 98.0362 37.4572C97.9507 38.172 97.7007 38.8572 97.3058 39.4592C96.944 39.9936 96.4713 40.4438 95.9198 40.7792C95.4448 41.0805 94.925 41.3047 94.3798 41.4436C93.5982 41.6498 92.7849 41.708 91.9818 41.6152C91.7644 41.5905 91.5484 41.5537 91.335 41.5052C91.259 41.4934 91.185 41.4712 91.115 41.4392C91.115 41.4392 91.4274 41.4876 91.995 41.5272C92.786 41.5808 93.5804 41.5005 94.3446 41.2896C94.8686 41.1431 95.3671 40.9176 95.823 40.6208C96.3497 40.2879 96.7996 39.8469 97.143 39.3272C97.513 38.749 97.7477 38.0947 97.8294 37.4132C97.9336 36.6853 97.8092 35.943 97.4734 35.2889C97.1377 34.6347 96.6071 34.1009 95.955 33.7612C95.3503 33.4259 94.7016 33.1771 94.0278 33.022C92.8848 32.7388 91.7024 32.6496 90.5298 32.758C89.739 32.8209 88.9572 32.9685 88.1978 33.198C87.6478 33.4004 87.3574 33.5236 87.3486 33.5016Z" fill="white"/>
<path d="M99.5807 35.8247C99.6701 36.1099 99.6807 36.414 99.6115 36.7047C99.4763 37.4143 99.1543 38.075 98.6787 38.6187C98.212 39.1547 97.6712 39.6213 97.0727 40.0047C96.8433 40.1875 96.5883 40.3358 96.3159 40.4447C96.5137 40.2307 96.7368 40.0415 96.9803 39.8815C97.5334 39.464 98.0447 38.9939 98.5071 38.4779C98.9516 37.9556 99.2706 37.3385 99.4399 36.6739C99.5763 36.1635 99.5411 35.8291 99.5807 35.8247Z" fill="white"/>
<path d="M86.2399 36.458C85.2474 36.7761 84.2996 37.2197 83.4195 37.778C82.7243 38.2796 82.0995 38.7988 81.9015 39.3092C81.795 39.5896 81.7646 39.8932 81.8135 40.1892C81.8135 40.1892 81.7431 40.1232 81.7035 39.9604C81.6503 39.7264 81.6655 39.482 81.7475 39.2564C81.9455 38.6624 82.5747 38.108 83.2875 37.5932C83.9227 37.1628 84.6222 36.8361 85.3599 36.6252C85.6408 36.5172 85.9389 36.4606 86.2399 36.458Z" fill="white"/>
<path d="M82.7858 35.7324C82.7858 35.7588 82.5966 35.926 82.271 36.1944C81.8388 36.5269 81.4642 36.9283 81.1622 37.3824C80.873 37.8349 80.7401 38.3696 80.7838 38.9048C80.8247 39.1275 80.8775 39.3478 80.9422 39.5648C80.9422 39.5648 80.7178 39.3756 80.6254 38.9312C80.5271 38.3512 80.6478 37.7552 80.9642 37.2592C81.2828 36.7877 81.6946 36.3863 82.1742 36.08C82.354 35.9261 82.5616 35.8081 82.7858 35.7324Z" fill="white"/>
<path d="M75.6316 42.2047C75.7079 41.9369 75.8466 41.6912 76.0364 41.4875C76.4548 40.9582 77.0026 40.5457 77.6269 40.2898C78.2512 40.0339 78.9309 39.9433 79.6004 40.0267C79.8791 40.0371 80.151 40.1156 80.3924 40.2555C80.3924 40.2907 80.08 40.2115 79.5872 40.1895C78.9472 40.1519 78.307 40.2585 77.7137 40.5014C77.1205 40.7444 76.5894 41.1174 76.1596 41.5931C75.8252 41.9539 75.68 42.2399 75.6316 42.2047Z" fill="white"/>
<path d="M78.2494 44.066C78.1324 43.8761 78.0757 43.6552 78.0866 43.4324C78.0613 42.8935 78.218 42.3617 78.5317 41.9227C78.8454 41.4837 79.2977 41.163 79.8158 41.0124C80.0226 40.9291 80.2502 40.9122 80.467 40.964C80.2714 41.0422 80.0716 41.1098 79.8686 41.1664C79.4054 41.3423 79.0044 41.6513 78.7163 42.0545C78.4282 42.4577 78.2658 42.9371 78.2494 43.4324C78.2604 43.6435 78.2604 43.855 78.2494 44.066Z" fill="white"/>
<path d="M100.998 43.8547C100.743 43.9381 100.47 43.9472 100.21 43.8811C99.568 43.7815 98.9763 43.4741 98.5256 43.006C98.075 42.5379 97.7903 41.9349 97.7152 41.2895C97.6608 41.0286 97.6791 40.7577 97.768 40.5063C97.8076 40.5063 97.768 40.8055 97.8736 41.2631C97.9865 41.8588 98.2705 42.4086 98.691 42.8455C99.1114 43.2823 99.6499 43.5871 100.241 43.7227C100.698 43.8327 100.993 43.8195 100.998 43.8547Z" fill="white"/>
<path d="M100.936 45.4652C100.273 45.6327 99.5759 45.6037 98.9294 45.3816C98.2573 45.234 97.6445 44.8893 97.1694 44.3916C97.7544 44.6882 98.3586 44.9455 98.9778 45.1616C99.6238 45.3021 100.278 45.4035 100.936 45.4652Z" fill="white"/>
<path d="M95.1719 64.1957C95.7307 64.1957 101.666 63.4037 105.292 65.7929C108.917 68.1821 118.668 86.6797 118.668 86.6797C118.668 86.6797 121.642 96.5225 117.462 98.4717C113.282 100.421 102.234 106.365 102.234 106.365L99.5411 96.6149L107.157 93.0949V83.6921L95.1719 64.1957Z" fill="#455A64"/>
<path d="M107.157 84.502L111.254 84.7264C112.363 84.7878 113.445 85.0909 114.425 85.6146C115.405 86.1383 116.258 86.8698 116.925 87.758L119.565 91.3044C119.565 91.3044 120.978 93.1392 120.564 93.9444C120.225 94.6044 119.557 94.5516 118.91 93.9708C118.263 93.39 116.199 90.3584 116.199 90.3584C116.199 90.3584 120.001 95.2248 119.134 96.1224C118.267 97.02 117.295 95.8408 117.295 95.8408C117.295 95.8408 117.876 97.7152 116.714 97.5216C115.553 97.328 114.158 95.5856 114.158 95.5856C114.158 95.5856 114.329 96.6812 113.278 96.5536C112.226 96.426 109.212 91.7752 108.953 91.7752C108.693 91.7752 107.342 91.6476 107.342 91.6476L107.157 84.502Z" fill="#CE947A"/>
<path d="M114.637 88.814C115.212 89.3248 115.735 89.8907 116.199 90.5036C116.721 91.068 117.185 91.6826 117.585 92.3384C117.011 91.8275 116.488 91.2616 116.023 90.6488C115.503 90.0834 115.039 89.4689 114.637 88.814Z" fill="#A56349"/>
<path d="M113.432 90.8115C113.665 91.0434 113.875 91.2984 114.057 91.5727C114.422 92.0611 114.937 92.7299 115.5 93.4603C116.063 94.1907 116.6 94.8419 116.983 95.3171C117.209 95.5575 117.407 95.8232 117.572 96.1091C117.309 95.9091 117.069 95.6787 116.859 95.4227C116.446 94.9827 115.891 94.3359 115.319 93.6011C114.747 92.8663 114.259 92.1799 113.925 91.6695C113.724 91.406 113.558 91.1176 113.432 90.8115Z" fill="#A56349"/>
<path d="M112.042 92.8838C112.547 93.2198 112.978 93.6555 113.309 94.1642C113.705 94.6265 114.004 95.1636 114.189 95.7438C114.131 95.7746 113.727 95.0838 113.137 94.3006C112.748 93.8472 112.382 93.3743 112.042 92.8838Z" fill="#A56349"/>
<path d="M104.531 73.8406C104.491 73.8406 104.557 73.3478 104.531 72.5602C104.49 71.5391 104.288 70.5308 103.932 69.5726C103.57 68.6173 103.058 67.7261 102.414 66.9326C101.917 66.3254 101.534 65.9998 101.574 65.969C101.613 65.9382 101.684 66.0262 101.855 66.167C102.099 66.3697 102.327 66.5904 102.537 66.827C103.232 67.6103 103.778 68.514 104.148 69.4934C104.519 70.4774 104.704 71.5218 104.693 72.5734C104.69 72.8888 104.664 73.2036 104.614 73.515C104.605 73.6275 104.576 73.7375 104.531 73.8406Z" fill="#263238"/>
<path d="M78.7864 70.6284C78.7864 70.6284 84.15 73.7084 88.22 72.8284C90.8148 72.181 93.2054 70.892 95.172 69.0796L102.37 85.5576L98.1068 118.558L85.2456 120.234L80.982 88.928L78.7864 70.6284Z" fill="#FAFAFA"/>
<path d="M78.386 64.812L75.592 65.7932L70.4264 99.4884C70.4264 99.4884 66.44 113.52 66.7876 119.583C67.1352 125.646 70.4 144.426 70.4 144.426L93.9664 141.944L92.9896 105.072C92.9896 105.072 94.688 94.4592 89.6544 88.0352C84.6208 81.6112 78.386 64.812 78.386 64.812Z" fill="#455A64"/>
<path d="M91.9028 64.0684C92.2284 64.5348 97.3808 84.1148 96.8264 88.2376C96.272 92.3604 93.2712 100.998 93.2712 100.998V141.821L114.066 139.92C114.066 139.92 115.768 125.017 114.066 117.88C112.363 110.744 109.881 102.291 109.881 102.291L108.24 77.374L97.7768 64.0684H91.9028Z" fill="#455A64"/>
<path d="M115.078 130.803C115.036 130.788 114.996 130.767 114.959 130.741L114.624 130.539C114.325 130.359 113.894 130.099 113.304 129.791C112.605 129.417 111.848 129.163 111.065 129.039C110.578 128.973 110.084 128.992 109.604 129.096C109.07 129.233 108.56 129.45 108.09 129.738C107.593 130.037 107.1 130.403 106.586 130.785L104.975 131.973C103.862 132.787 102.683 133.672 101.416 134.583C100.774 135.079 100.017 135.405 99.2156 135.529C98.3642 135.552 97.5205 135.363 96.7604 134.979C95.216 134.279 93.6188 133.584 91.9512 132.928C91.1152 132.603 90.2924 132.277 89.4696 132.009C88.6704 131.724 87.8274 131.583 86.9792 131.591C86.1646 131.637 85.3767 131.898 84.6956 132.347C84.0375 132.781 83.4282 133.284 82.8784 133.848C81.774 134.921 80.7664 136.048 79.5168 136.721C79.366 136.807 79.2085 136.88 79.046 136.941C78.8917 137.016 78.7293 137.074 78.562 137.113C78.2445 137.218 77.9147 137.281 77.5808 137.302C76.961 137.338 76.339 137.3 75.7284 137.187C73.8975 136.84 72.1216 136.248 70.4484 135.427C69.85 135.155 69.3924 134.926 69.0844 134.772L68.7324 134.596C68.6532 134.552 68.6136 134.53 68.618 134.525L68.7456 134.574L69.102 134.732L70.4836 135.348C72.1652 136.131 73.9394 136.697 75.7636 137.033C76.3631 137.14 76.9734 137.172 77.5808 137.13C77.9015 137.108 78.218 137.044 78.5224 136.941C78.6746 136.901 78.822 136.845 78.9624 136.774C79.1134 136.711 79.2604 136.639 79.4024 136.558C80.608 135.907 81.6024 134.798 82.7068 133.703C83.2654 133.124 83.8851 132.608 84.5548 132.163C85.2668 131.695 86.0891 131.421 86.9396 131.371C87.8168 131.365 88.688 131.514 89.5136 131.811C90.3496 132.088 91.1724 132.413 92.0084 132.735C93.676 133.39 95.2864 134.094 96.822 134.794C97.5469 135.165 98.353 135.35 99.1672 135.331C99.9375 135.223 100.668 134.92 101.288 134.451L104.856 131.863L106.471 130.689C106.964 130.315 107.475 129.967 108.002 129.646C108.486 129.35 109.013 129.131 109.564 128.999C110.061 128.895 110.572 128.88 111.074 128.955C111.87 129.089 112.636 129.36 113.34 129.756C113.784 129.995 114.216 130.258 114.633 130.543L114.959 130.763C115.042 130.772 115.082 130.799 115.078 130.803Z" fill="#FAFAFA"/>
<path d="M87.0628 99.4793C87.1772 99.4397 90.7632 97.4773 91.6696 97.3629C92.576 97.2485 99.6248 96.9229 99.6248 96.9229L101.508 103.747C101.508 103.747 95.634 106.594 94.7276 106.827C93.8212 107.06 89.9712 108.451 89.3288 108.451C88.6864 108.451 86.8736 107.844 86.8736 107.43C86.8651 107.321 86.8849 107.211 86.9312 107.112C86.9774 107.012 87.0485 106.926 87.1376 106.862C87.9589 106.892 88.7811 106.842 89.5928 106.713C90.0178 106.561 90.4336 106.385 90.838 106.185C90.838 106.185 84.3832 107.166 83.93 107.012C83.4768 106.858 83.138 105.916 83.138 105.916C83.138 105.916 82.3812 105.388 82.3064 104.9C82.2316 104.412 82.4956 104.183 82.9092 103.994C83.3228 103.804 86.1168 102.559 86.9484 102.33C87.78 102.102 89.9712 101.728 89.9712 101.728C89.9712 101.728 83.3228 102.445 82.9312 102.256C82.5396 102.066 82.0512 101.349 82.742 100.936C83.5674 100.406 84.4719 100.011 85.4216 99.7653C86.1564 99.6289 87.0628 99.4793 87.0628 99.4793Z" fill="#F4C3AE"/>
<path d="M91.7884 103.541C91.3918 103.753 90.9745 103.924 90.5432 104.051C89.76 104.328 88.6644 104.671 87.4324 104.984C86.2004 105.296 85.074 105.507 84.2556 105.635C83.8136 105.724 83.3644 105.773 82.9136 105.78C83.345 105.645 83.7863 105.543 84.2336 105.477C85.0432 105.309 86.1608 105.067 87.3884 104.759C88.616 104.451 89.7072 104.135 90.5036 103.879C90.9231 103.735 91.3525 103.622 91.7884 103.541Z" fill="#CC937F"/>
<path d="M91.1679 98.4585C90.5219 98.7206 89.8491 98.9109 89.1615 99.0261C88.4912 99.2153 87.8021 99.3304 87.1067 99.3693C87.7527 99.1072 88.4255 98.9168 89.1131 98.8017C89.7836 98.6131 90.4725 98.4981 91.1679 98.4585Z" fill="#CC937F"/>
<path d="M99.7654 99.6335C99.6772 99.653 99.5874 99.6648 99.497 99.6687C99.2607 99.7247 99.0338 99.8151 98.8238 99.9371C98.4965 100.146 98.1204 100.266 97.7326 100.285C97.2926 100.258 96.8526 100.012 96.5006 100.311C96.3247 100.478 96.1315 100.625 95.9242 100.751C95.7016 100.844 95.4562 100.867 95.2202 100.817C94.7802 100.729 94.4546 100.562 94.151 100.544C93.9195 100.518 93.6869 100.584 93.5042 100.729C93.381 100.839 93.3546 100.94 93.337 100.932C93.3194 100.923 93.337 100.817 93.4382 100.668C93.5304 100.57 93.6427 100.494 93.7674 100.445C93.892 100.395 94.026 100.374 94.1598 100.382C94.5279 100.434 94.8923 100.508 95.251 100.606C95.445 100.643 95.6458 100.622 95.8274 100.544C96.0189 100.422 96.1999 100.283 96.3686 100.131C96.4742 100.047 96.5976 99.9879 96.7294 99.9591C96.8561 99.9371 96.9856 99.9371 97.1122 99.9591C97.3498 99.9943 97.5522 100.065 97.7458 100.078C98.0993 100.065 98.4447 99.9689 98.7534 99.7963C98.9823 99.6788 99.2319 99.607 99.4882 99.5851C99.673 99.5763 99.7698 99.6203 99.7654 99.6335Z" fill="#CC937F"/>
<path d="M99.836 101.033C99.6488 101.28 99.3837 101.457 99.0836 101.534C98.7662 101.646 98.4269 101.68 98.0936 101.636C97.9173 101.598 97.7369 101.583 97.5568 101.592C97.4712 101.606 97.3903 101.641 97.3201 101.692C97.2499 101.743 97.1924 101.809 97.152 101.886C97.0296 102.082 96.8405 102.228 96.6196 102.296C96.418 102.339 96.2095 102.339 96.008 102.296C95.7025 102.218 95.39 102.171 95.0752 102.155C94.8734 102.161 94.681 102.241 94.534 102.379C94.4372 102.485 94.4152 102.568 94.3932 102.564C94.3712 102.56 94.3712 102.467 94.4636 102.326C94.5346 102.232 94.6245 102.154 94.7275 102.096C94.8306 102.038 94.9445 102.003 95.062 101.992C95.3904 101.983 95.7186 102.015 96.0388 102.089C96.2119 102.129 96.3932 102.117 96.5589 102.052C96.7247 101.988 96.867 101.875 96.9672 101.728C97.0325 101.635 97.1094 101.551 97.196 101.477C97.2937 101.404 97.4092 101.359 97.5304 101.345C97.73 101.337 97.9298 101.357 98.1244 101.402C98.429 101.454 98.7412 101.439 99.0396 101.358C99.3126 101.269 99.5787 101.16 99.836 101.033Z" fill="#CC937F"/>
<path d="M80.1107 103.963C79.9509 103.991 79.7883 103.999 79.6267 103.985C79.4357 103.986 79.2448 103.977 79.0547 103.959C78.8347 103.937 78.5795 103.924 78.3023 103.875C77.6519 103.774 77.0094 103.627 76.3795 103.435C75.6089 103.197 74.8536 102.912 74.1179 102.582C72.7924 101.97 71.5195 101.25 70.3119 100.43C69.8455 100.118 69.4803 99.858 69.2295 99.6688C69.0922 99.5807 68.9666 99.4758 68.8555 99.3564C69.0122 99.4153 69.1603 99.4952 69.2955 99.594L70.3999 100.32C71.6251 101.096 72.8994 101.791 74.2147 102.401C74.9404 102.734 75.6836 103.028 76.4411 103.281C77.0597 103.477 77.6902 103.633 78.3287 103.748C79.4199 103.91 80.1151 103.919 80.1107 103.963Z" fill="#263238"/>
<path d="M84.6515 109.806C84.4028 109.777 84.157 109.727 83.9167 109.657C83.6291 109.596 83.3455 109.519 83.0675 109.423C82.7375 109.322 82.3591 109.217 81.9587 109.058C81.0064 108.709 80.0763 108.302 79.1735 107.839C78.0738 107.263 77.0073 106.626 75.9791 105.93C74.1226 104.647 72.3757 103.212 70.7563 101.64C70.1359 101.041 69.6475 100.54 69.3219 100.183C69.1444 100.007 68.9811 99.8175 68.8335 99.6157C69.0314 99.7679 69.2168 99.9356 69.3879 100.117C69.7311 100.456 70.2371 100.94 70.8707 101.521C72.5119 103.051 74.2618 104.459 76.1067 105.736C77.1279 106.426 78.1838 107.064 79.2703 107.646C80.1609 108.116 81.0776 108.534 82.0159 108.9C82.4119 109.067 82.7815 109.186 83.1027 109.3C83.4239 109.415 83.7055 109.503 83.9387 109.569C84.1817 109.63 84.42 109.71 84.6515 109.806Z" fill="#263238"/>
<path d="M109.208 92.0742C108.768 92.338 108.309 92.5689 107.835 92.765C106.955 93.1654 105.771 93.7022 104.438 94.2698C103.105 94.8374 101.891 95.3346 101.002 95.669C100.562 95.8362 100.192 95.9682 99.9414 96.0518C99.8143 96.1079 99.6792 96.1435 99.541 96.1574C99.9925 95.9134 100.46 95.7002 100.94 95.5194L104.35 94.0586L107.769 92.6154C108.234 92.3988 108.715 92.2179 109.208 92.0742Z" fill="#263238"/>
<path d="M100.373 73.6118C100.373 73.6118 100.434 73.6602 100.531 73.7658L100.945 74.2366C101.306 74.637 101.825 75.209 102.529 75.891C103.233 76.573 104.047 77.3694 104.94 78.2934C105.924 79.2872 106.792 80.3899 107.527 81.5802C108.245 82.7961 108.716 84.1419 108.913 85.5402C109.08 86.8206 109.133 87.9734 109.177 88.9414C109.221 89.9094 109.23 90.7014 109.234 91.2382C109.234 91.489 109.234 91.6782 109.234 91.863C109.239 91.9371 109.232 92.0114 109.212 92.083C109.195 92.0109 109.186 91.9371 109.186 91.863C109.186 91.6958 109.173 91.489 109.146 91.2426C109.116 90.6662 109.072 89.8918 109.019 88.9502C108.966 88.0086 108.887 86.8338 108.706 85.571C108.503 84.2067 108.037 82.8947 107.334 81.7078C106.609 80.5314 105.756 79.4394 104.79 78.4518C103.91 77.519 103.083 76.7182 102.414 76.0142C101.746 75.3102 101.222 74.7206 100.879 74.3026L100.5 73.8054C100.45 73.7468 100.407 73.6817 100.373 73.6118Z" fill="#263238"/>
<path d="M117.04 98.6567C116.83 98.8002 116.611 98.9296 116.384 99.0439L114.554 100.038C113.005 100.866 110.858 101.996 108.482 103.228C106.04 104.5 103.831 105.631 102.265 106.418L102.177 106.467L102.15 106.37C101.948 105.582 101.781 104.931 101.657 104.438C101.587 104.207 101.536 103.97 101.503 103.73C101.602 103.952 101.682 104.181 101.741 104.416C101.882 104.905 102.075 105.547 102.304 106.33L102.19 106.278C103.739 105.45 105.934 104.293 108.376 103.026C110.818 101.759 112.913 100.685 114.479 99.8931L116.34 98.9647C116.564 98.8421 116.798 98.739 117.04 98.6567Z" fill="#263238"/>
<path d="M93.8562 107.118C93.8669 107.236 93.8669 107.356 93.8562 107.474C93.8562 107.725 93.8122 108.064 93.777 108.486C93.6934 109.366 93.6318 110.638 93.5526 112.213C93.4118 115.359 93.3722 119.693 93.447 124.533C93.5218 129.373 93.6714 133.698 93.799 136.853C93.8606 138.41 93.9134 139.682 93.9486 140.584C93.9486 141.024 93.975 141.35 93.9838 141.6C93.9954 141.719 93.9954 141.838 93.9838 141.957C93.9593 141.841 93.9446 141.723 93.9398 141.605C93.9398 141.35 93.8914 141.015 93.8606 140.593C93.799 139.713 93.7198 138.437 93.6362 136.862C93.469 133.711 93.2886 129.355 93.2182 124.542C93.1478 119.728 93.2182 115.368 93.3898 112.222C93.491 110.646 93.5746 109.37 93.689 108.495C93.7374 108.055 93.777 107.738 93.8078 107.487C93.8127 107.363 93.8289 107.239 93.8562 107.118Z" fill="#263238"/>
<path d="M75.5919 65.793C75.5919 65.793 67.8171 69.1106 65.4191 74.3686C63.0211 79.6266 58.1019 96.3202 57.9875 99.4046C57.8731 102.489 63.5887 112.094 63.5887 112.094L72.6219 106.374L70.9059 102.146L73.6471 83.9694L75.5919 65.793Z" fill="#455A64"/>
<path d="M71.8827 206.914C71.7384 206.914 71.5956 206.886 71.4624 206.83C71.3292 206.775 71.2082 206.694 71.1064 206.592C71.0046 206.489 70.924 206.368 70.8692 206.235C70.8144 206.101 70.7865 205.958 70.7871 205.814C70.7871 204.934 70.9235 117.07 70.8839 115.649C70.8003 112.622 68.9567 111.249 68.8775 111.174C68.6502 111.001 68.4991 110.747 68.4563 110.464C68.4135 110.182 68.4822 109.894 68.648 109.661C68.8138 109.428 69.0636 109.269 69.3446 109.217C69.6256 109.166 69.9156 109.225 70.1535 109.384C70.2679 109.467 72.9695 111.421 73.0839 115.588C73.1235 117.04 72.9915 202.193 72.9871 205.814C72.9859 206.106 72.869 206.386 72.662 206.592C72.455 206.798 72.1748 206.914 71.8827 206.914Z" fill="#263238"/>
<path d="M65.6391 122.183C65.3477 122.181 65.0691 122.064 64.8638 121.857C64.6586 121.65 64.5435 121.37 64.5435 121.079C64.5435 117.814 64.5435 112.855 64.5435 112.565C64.5333 112.422 64.5516 112.278 64.5973 112.142C64.643 112.006 64.7152 111.88 64.8097 111.773C64.9042 111.665 65.0191 111.576 65.1479 111.513C65.2766 111.45 65.4167 111.412 65.5599 111.403C65.8533 111.388 66.1411 111.488 66.3616 111.682C66.5821 111.876 66.7176 112.149 66.7391 112.442C66.7391 112.49 66.7391 112.644 66.7391 121.083C66.7391 121.375 66.6232 121.655 66.4169 121.861C66.2106 122.068 65.9308 122.183 65.6391 122.183Z" fill="#263238"/>
<path d="M67.3198 106.555L65.1902 108.42C64.6578 108.887 63.989 113.014 63.989 113.014C63.989 113.014 66.321 115.509 67.3198 115.61C67.9673 115.645 68.6055 115.443 69.115 115.042C69.115 115.042 70.1138 115.61 70.7166 115.113C71.3194 114.615 69.8806 111.381 69.8806 111.381C69.8806 111.381 69.3438 109.819 70.8618 109.916L71.513 111.087L73.1454 113.881C73.1454 113.881 74.1442 113.744 74.3114 113.247C74.4786 112.75 73.8714 111.087 73.8714 111.087C74.0586 110.799 74.1821 110.475 74.2337 110.136C74.2853 109.796 74.2638 109.45 74.1706 109.12C73.8054 108.152 73.207 106.387 71.4426 105.991C69.6782 105.595 67.3198 106.555 67.3198 106.555Z" fill="#F4C3AE"/>
<path d="M69.036 114.642C69.0052 114.664 68.7368 114.312 68.244 113.797C67.5995 113.134 66.8838 112.544 66.11 112.037C65.878 111.877 65.6805 111.672 65.5292 111.434C65.3978 111.194 65.3498 110.917 65.3928 110.647C65.4746 110.215 65.6723 109.813 65.9648 109.485C66.198 109.204 66.4048 108.992 66.5104 108.834C66.616 108.676 66.6952 108.588 66.7084 108.596C66.5688 108.961 66.3612 109.295 66.0968 109.582C65.8414 109.897 65.6716 110.273 65.604 110.673C65.5708 110.896 65.6126 111.123 65.7228 111.32C65.8599 111.531 66.038 111.712 66.2464 111.852C67.0317 112.372 67.7435 112.995 68.3628 113.705C68.6341 113.981 68.8612 114.297 69.036 114.642Z" fill="#CC937F"/>
<path d="M71.9883 109.402C72.0367 109.446 71.7727 109.776 71.6627 110.255C71.5527 110.735 71.6187 111.135 71.5571 111.166C71.4955 111.197 71.3019 110.752 71.4383 110.202C71.5747 109.652 71.9487 109.353 71.9883 109.402Z" fill="#CC937F"/>
<path d="M60.0908 97.812C60.2987 97.7951 60.5077 97.7951 60.7156 97.812C60.918 97.812 61.1556 97.812 61.4504 97.812L62.4184 97.9352C62.7792 97.9836 63.1576 98.098 63.5756 98.1904C63.7824 98.2432 63.9848 98.3268 64.2004 98.4016C64.4243 98.4705 64.6433 98.5543 64.856 98.6524C65.8113 99.0753 66.7005 99.634 67.496 100.311C68.284 100.987 69.0086 101.734 69.6608 102.542C70.268 103.277 70.7784 103.963 71.214 104.531C71.6496 105.098 72.006 105.565 72.2568 105.851C72.3972 106.007 72.5238 106.175 72.6352 106.352C72.4739 106.221 72.3265 106.074 72.1952 105.912C71.9224 105.613 71.544 105.169 71.0952 104.592C70.6464 104.016 70.114 103.36 69.5024 102.639C68.85 101.846 68.1317 101.11 67.3552 100.439C66.5797 99.7742 65.7147 99.2218 64.7856 98.7976C64.5796 98.7001 64.3681 98.6149 64.152 98.5424C63.9408 98.4676 63.7428 98.3796 63.5404 98.3224C63.1312 98.2256 62.7616 98.1068 62.4096 98.0452L61.4548 97.8912C61.1732 97.8604 60.9312 97.8516 60.7288 97.834C60.516 97.8497 60.3021 97.8424 60.0908 97.812Z" fill="#263238"/>
<path d="M71.9884 82.2314C71.9726 82.4916 71.9388 82.7504 71.8872 83.0058C71.808 83.4986 71.6848 84.2114 71.5264 85.0914C71.1832 86.8866 70.7256 89.2978 70.2064 91.9598C69.6872 94.6218 69.2956 97.077 69.0404 98.8502C68.9172 99.7038 68.816 100.412 68.7412 100.945C68.7174 101.204 68.6748 101.461 68.6136 101.715C68.6061 101.454 68.6193 101.194 68.6532 100.936C68.6928 100.434 68.772 99.717 68.8776 98.8282C69.0932 97.0682 69.476 94.6042 69.982 91.9158C70.488 89.2274 70.9984 86.8162 71.3592 85.0606L71.7992 82.9882C71.8414 82.7312 71.9047 82.4781 71.9884 82.2314Z" fill="#263238"/>
<path d="M74.1311 207.715H70.0039L70.7695 204.433H73.2115L74.1311 207.715Z" fill="#455A64"/>
</svg>
