<svg width="220" height="220" viewBox="0 0 220 220" fill="none" xmlns="http://www.w3.org/2000/svg">
<path d="M7.80127 201.7H211.961" stroke="#263238" stroke-width="1.15942" stroke-linecap="round" stroke-linejoin="round"/>
<path d="M162.096 15.1665H121.88V166.311H162.096V15.1665Z" stroke="#263238" stroke-width="1.15942" stroke-linecap="round" stroke-linejoin="round"/>
<path d="M213.18 15.1666H120.859C120.697 15.1666 120.541 15.1021 120.427 14.9874C120.312 14.8727 120.248 14.7172 120.248 14.555C120.248 14.3928 120.312 14.2372 120.427 14.1225C120.541 14.0078 120.697 13.9434 120.859 13.9434H213.18C213.343 13.9434 213.499 14.0077 213.614 14.1222C213.729 14.2368 213.795 14.3924 213.796 14.555C213.795 14.7176 213.729 14.8731 213.614 14.9877C213.499 15.1023 213.343 15.1666 213.18 15.1666Z" fill="#263238" stroke="#263238" stroke-width="1.15942" stroke-linecap="round" stroke-linejoin="round"/>
<path d="M162.034 129.14H211.332" stroke="#263238" stroke-width="1.15942" stroke-linecap="round" stroke-linejoin="round"/>
<path d="M162.034 126.205H211.332" stroke="#263238" stroke-width="1.15942" stroke-linecap="round" stroke-linejoin="round"/>
<path d="M162.034 69.2998H211.332" stroke="#263238" stroke-width="1.15942" stroke-linecap="round" stroke-linejoin="round"/>
<path d="M162.034 71.8823H211.332" stroke="#263238" stroke-width="1.15942" stroke-linecap="round" stroke-linejoin="round"/>
<path d="M124.797 15.3911V26.9983" stroke="#263238" stroke-width="1.15942" stroke-linecap="round" stroke-linejoin="round"/>
<path d="M126.681 17.1113V92.0213" stroke="#263238" stroke-width="1.15942" stroke-linecap="round" stroke-linejoin="round"/>
<path d="M131.247 15.25V24.2744" stroke="#263238" stroke-width="1.15942" stroke-linecap="round" stroke-linejoin="round"/>
<path d="M131.247 26.4219V31.4379" stroke="#263238" stroke-width="1.15942" stroke-linecap="round" stroke-linejoin="round"/>
<path d="M157.978 28.4282V30.5798" stroke="#263238" stroke-width="1.15942" stroke-linecap="round" stroke-linejoin="round"/>
<path d="M157.978 15.3911V26.4219" stroke="#263238" stroke-width="1.15942" stroke-linecap="round" stroke-linejoin="round"/>
<path d="M136.215 39.459V41.1794" stroke="#263238" stroke-width="1.15942" stroke-linecap="round" stroke-linejoin="round"/>
<path d="M136.215 17.2563V37.4523" stroke="#263238" stroke-width="1.15942" stroke-linecap="round" stroke-linejoin="round"/>
<path d="M139.172 17.1113V23.4165" stroke="#263238" stroke-width="1.15942" stroke-linecap="round" stroke-linejoin="round"/>
<path d="M154.484 17.1113V23.4165" stroke="#263238" stroke-width="1.15942" stroke-linecap="round" stroke-linejoin="round"/>
<path d="M142.934 15.25V69.1412" stroke="#263238" stroke-width="1.15942" stroke-linecap="round" stroke-linejoin="round"/>
<path d="M147.902 15.5361V18.4005" stroke="#263238" stroke-width="1.15942" stroke-linecap="round" stroke-linejoin="round"/>
<path d="M150.858 15.5361V53.7413" stroke="#263238" stroke-width="1.15942" stroke-linecap="round" stroke-linejoin="round"/>
<path d="M146.291 17.8286V25.8498" stroke="#263238" stroke-width="1.15942" stroke-linecap="round" stroke-linejoin="round"/>
<path d="M171.556 61.4502L170.518 62.7438" stroke="#263238" stroke-width="1.15942" stroke-linecap="round" stroke-linejoin="round"/>
<path d="M193.287 35.4946L173.232 59.3602" stroke="#263238" stroke-width="1.15942" stroke-linecap="round" stroke-linejoin="round"/>
<path d="M188.79 49.3237L181.082 58.4625" stroke="#263238" stroke-width="1.15942" stroke-linecap="round" stroke-linejoin="round"/>
<path d="M171.556 118.355L170.518 119.653" stroke="#263238" stroke-width="1.15942" stroke-linecap="round" stroke-linejoin="round"/>
<path d="M194.048 90.3672L173.232 116.266" stroke="#263238" stroke-width="1.15942" stroke-linecap="round" stroke-linejoin="round"/>
<path d="M188.79 106.233L181.082 115.368" stroke="#263238" stroke-width="1.15942" stroke-linecap="round" stroke-linejoin="round"/>
<path d="M197.098 71.9048V125.422" stroke="#263238" stroke-width="1.15942" stroke-linecap="round" stroke-linejoin="round"/>
<path d="M197.098 14.916V69.1944" stroke="#263238" stroke-width="1.15942" stroke-linecap="round" stroke-linejoin="round"/>
<path d="M199.764 71.9707V125.422" stroke="#263238" stroke-width="1.15942" stroke-linecap="round" stroke-linejoin="round"/>
<path d="M199.764 14.916V69.168" stroke="#263238" stroke-width="1.15942" stroke-linecap="round" stroke-linejoin="round"/>
<path d="M25.4901 155.804C24.3006 153.305 24.0325 150.465 24.7333 147.787C25.8949 143.22 26.3173 143.986 25.1073 141.355C23.8973 138.723 22.8501 138.187 23.5717 135.929C24.2933 133.672 25.5341 130.143 25.0853 128.009C24.6365 125.875 23.6597 124.995 24.0997 122.685C24.5397 120.375 25.8993 119.262 25.2349 116.741C24.5705 114.22 23.4089 114.339 23.8489 112.024C24.2889 109.71 24.9049 109.534 24.7289 107.444C24.5529 105.354 25.0369 104.364 25.0369 104.364C25.0369 104.364 25.8333 107.633 26.3569 109.441C26.8805 111.25 26.9553 112.293 26.7045 113.613C26.4537 114.933 29.4457 117.221 29.5337 118.263C29.6217 119.306 30.2597 120.463 29.2653 122.663C28.2709 124.863 28.0201 126.183 28.5921 127.666C29.1641 129.149 29.7845 128.92 29.2169 131.895C28.6493 134.869 26.9289 134.878 28.2049 137.175C29.4809 139.471 30.2465 139.96 29.6569 141.575C29.0673 143.189 28.1345 145.051 28.4953 146.146C28.7052 146.691 28.9614 147.216 29.2609 147.717C29.9928 149.015 30.2377 150.531 29.9517 151.994L29.7801 152.896L30.3389 157.45L27.6241 159.672C27.6241 159.672 26.3657 158.713 25.4901 155.804Z" fill="#90CAF9"/>
<path d="M22.3566 156.2C21.5709 155.327 20.9673 154.305 20.5812 153.195C20.1951 152.085 20.0343 150.909 20.1082 149.737C20.3898 145.803 20.953 146.366 19.2678 144.399C17.5826 142.433 16.4562 142.155 16.7378 140.189C17.0194 138.222 17.5826 135.133 16.7378 133.448C15.893 131.763 14.771 131.199 14.771 129.233C14.771 127.266 15.8974 126.153 14.771 124.177C13.6446 122.201 12.5226 122.492 12.5226 120.525C12.5226 118.558 13.0858 116.873 12.5226 115.188C11.9594 113.503 12.329 113.868 12.329 113.868C12.329 113.868 13.649 116.609 14.4894 118.013C15.3298 119.416 15.6158 120.261 15.6158 121.383C15.6158 122.505 18.9862 123.913 19.2678 124.753C19.5494 125.594 20.3898 126.443 19.8266 128.405C19.2634 130.368 19.2678 131.485 20.1082 132.621C20.9486 133.756 21.5118 133.465 21.5118 135.991C21.5118 138.517 19.8266 138.798 21.5118 140.488C23.197 142.177 24.0418 142.45 23.7602 143.858C23.4786 145.266 22.9198 146.938 23.4786 147.787C23.6905 148.082 23.9259 148.358 24.1826 148.615C25.3509 149.819 26.0056 151.429 26.0086 153.107L27.4122 156.759L25.1638 159.007C25.1638 159.007 23.7602 158.444 22.3566 156.2Z" fill="#90CAF9"/>
<path d="M38.3681 156.2C39.1527 155.326 39.7552 154.304 40.1405 153.194C40.5258 152.084 40.6861 150.909 40.6121 149.737C40.3349 145.803 39.7717 146.366 41.4569 144.399C43.1421 142.433 44.2641 142.155 43.9869 140.189C43.7097 138.222 43.1421 135.133 43.9869 133.448C44.8317 131.763 45.9493 131.199 45.9493 129.233C45.9493 127.266 44.8273 126.153 45.9493 124.177C47.0713 122.201 48.1977 122.492 48.1977 120.525C48.1977 118.558 47.6345 116.873 48.1977 115.188C48.7609 113.503 48.0877 114.466 48.0877 114.466C48.0877 114.466 47.0757 116.591 46.2309 117.986C45.3861 119.381 45.1089 120.235 45.1089 121.357C45.1089 122.479 41.7385 123.887 41.4569 124.727C41.1753 125.567 40.3349 126.417 40.8937 128.379C41.4525 130.341 41.4569 131.459 40.6121 132.594C39.7673 133.729 39.2085 133.439 39.2085 135.965C39.2085 138.49 40.8937 138.772 39.2085 140.461C37.5233 142.151 36.6829 142.424 36.9645 143.832C37.2461 145.24 37.8049 146.912 37.2417 147.761C37.0357 148.052 36.8045 148.324 36.5509 148.575C35.3719 149.794 34.7138 151.424 34.7161 153.12L33.3125 156.772L35.5565 159.021C35.5565 159.021 36.9601 158.444 38.3681 156.2Z" fill="#90CAF9"/>
<path d="M33.4136 156.904C33.9242 156.106 34.2705 155.214 34.4321 154.28C34.5938 153.346 34.5677 152.389 34.3552 151.466C33.616 148.386 33.242 148.892 34.3244 147.106C35.4068 145.319 36.2648 144.945 35.7808 143.418C35.2968 141.892 34.4608 139.502 34.9008 138.05C35.3408 136.598 36.1724 136 35.9128 134.434C35.6532 132.867 34.5928 132.124 35.2484 130.408C35.904 128.692 36.8148 128.771 36.5684 127.209C36.322 125.647 35.64 124.375 35.8688 122.958C36.0976 121.542 35.6004 121.911 35.6004 121.911C35.3726 123.112 35.0624 124.295 34.672 125.453C34.1836 126.681 34.0736 127.389 34.232 128.282C34.3904 129.176 31.8824 130.742 31.768 131.446C31.6536 132.15 31.0948 132.938 31.8032 134.429C32.5116 135.921 32.6568 136.814 32.1332 137.822C31.6096 138.829 31.1256 138.675 31.4556 140.69C31.7856 142.706 33.1672 142.706 32.0496 144.268C30.932 145.83 30.2896 146.168 30.7032 147.246C31.1168 148.324 31.7812 149.596 31.4424 150.326C30.9424 151.16 30.3696 151.948 29.7308 152.68L30.1004 154.916L29.4624 157.996L31.548 159.487C31.548 159.487 32.5908 158.88 33.4136 156.904Z" fill="#90CAF9"/>
<path d="M41.6555 154.616L40.9955 171.09H39.1651V183.793H20.6279V171.09H18.9163L18.2563 154.616H41.6555Z" fill="#263238" stroke="#263238" stroke-width="1.15942" stroke-miterlimit="10"/>
<path d="M18.3745 157.63L18.4713 160.015H41.4393L41.5317 157.63H18.3745Z" fill="white" stroke="#263238" stroke-width="1.15942" stroke-miterlimit="10"/>
<path d="M41.2635 164.353L41.3251 162.835H18.5859L18.6475 164.353H41.2635Z" fill="white" stroke="#263238" stroke-width="1.15942" stroke-miterlimit="10"/>
<path d="M18.9165 171.085H18.0981V201.705H20.6281V183.793" stroke="#263238" stroke-width="1.15942" stroke-miterlimit="10"/>
<path d="M40.9954 171.085H41.6906V201.705H39.165V183.793" stroke="#263238" stroke-width="1.15942" stroke-miterlimit="10"/>
<path d="M60.2537 139.04C60.2537 139.04 55.2729 110.66 55.2729 104.28C55.2729 97.8996 61.8289 87.7796 77.0353 83.8196C92.2417 79.8596 111.646 82.4996 117.414 85.3596C123.183 88.2196 126.588 94.3796 127.899 104.5C129.211 114.62 131.833 155.32 131.833 155.32L62.6165 156.42L60.2537 139.04Z" fill="#666666" stroke="#263238" stroke-width="1.15942" stroke-linecap="round" stroke-linejoin="round"/>
<path d="M142.661 193.736C141.183 195.346 139.419 196.67 137.46 197.639C134.38 199.1 132.906 200.719 133.06 201.863C133.214 203.007 135.014 203.183 138.098 203.328C141.183 203.474 152.077 203.003 153.868 203.003C155.659 203.003 157.115 202.514 157.115 201.049C157.115 199.584 156.789 195.848 156.789 195.848L142.661 193.736Z" fill="white" stroke="#263238" stroke-width="1.15942" stroke-linecap="round" stroke-linejoin="round"/>
<path d="M149.16 201.7C143.414 201.7 135.692 201.37 133.131 201.26C133.066 201.456 133.045 201.663 133.069 201.867C133.232 203.007 135.023 203.187 138.107 203.333C141.192 203.478 152.086 203.007 153.877 203.007C155.487 203.007 156.834 202.607 157.08 201.454C155.355 201.573 152.724 201.7 149.16 201.7Z" fill="white" stroke="#263238" stroke-width="1.15942" stroke-linecap="round" stroke-linejoin="round"/>
<path d="M158.101 122.386C158.101 122.386 152.086 147.092 152.086 149.041C152.086 150.991 157.775 159.931 157.938 166.919C158.101 173.906 155.5 187.563 155.989 189.024C156.477 190.485 157.309 191.462 157.124 192.764C156.939 194.067 156.477 197.477 156.477 197.477C156.477 197.477 154.198 197.639 149.485 196.663C146.804 196.132 144.187 195.315 141.68 194.225C141.68 194.225 141.354 190.811 141.354 190.164C141.354 189.517 142.005 187.885 142.168 186.587C142.331 185.289 141.68 172.608 140.382 165.946C139.084 159.285 136.642 150.665 136.642 146.115C136.642 141.566 136.479 125.475 136.479 125.475C139.622 123.31 142.938 121.407 146.392 119.786C152.244 117.023 156.31 118.488 156.31 118.488L158.101 122.386Z" fill="#90CAF9" stroke="#263238" stroke-width="1.15942" stroke-linecap="round" stroke-linejoin="round"/>
<path d="M148.562 118.918C147.823 119.167 147.1 119.461 146.397 119.798C143.435 121.201 140.571 122.799 137.821 124.581L138.886 126.874C138.886 126.874 150.392 130.57 156.072 129.857L156.314 129.822C157.318 125.615 158.101 122.399 158.101 122.399L156.992 119.988C156.533 119.698 156.031 119.483 155.505 119.35C154.88 119.262 151.73 119.081 148.562 118.918Z" fill="#263238" stroke="#263238" stroke-width="1.15942" stroke-linecap="round" stroke-linejoin="round"/>
<path d="M160.539 193.736C159.054 195.347 157.285 196.67 155.321 197.639C152.241 199.1 150.771 200.719 150.921 201.863C151.07 203.007 152.87 203.183 155.959 203.328C159.047 203.474 169.937 203.003 171.724 203.003C173.51 203.003 174.975 202.514 174.975 201.049C174.975 199.584 174.65 195.848 174.65 195.848L160.539 193.736Z" fill="white" stroke="#263238" stroke-width="1.15942" stroke-linecap="round" stroke-linejoin="round"/>
<path d="M167.037 201.7C161.291 201.7 153.569 201.37 151.008 201.26C150.943 201.456 150.922 201.663 150.946 201.867C151.109 203.007 152.896 203.187 155.984 203.333C159.073 203.478 169.963 203.007 171.75 203.007C173.364 203.007 174.706 202.607 174.957 201.454C173.232 201.573 170.601 201.7 167.037 201.7Z" fill="white" stroke="#263238" stroke-width="1.15942" stroke-linecap="round" stroke-linejoin="round"/>
<path d="M176 122.386C176 122.386 169.985 147.092 169.985 149.041C169.985 150.991 175.674 159.931 175.837 166.919C176 173.906 173.4 187.563 173.884 189.024C174.368 190.485 175.204 191.462 175.023 192.764C174.843 194.067 174.372 197.477 174.372 197.477C174.372 197.477 172.097 197.639 167.385 196.663C164.705 196.132 162.089 195.315 159.584 194.225C159.584 194.225 159.258 190.811 159.258 190.164C159.258 189.517 159.909 187.885 160.072 186.587C160.235 185.289 159.584 172.608 158.281 165.946C156.979 159.285 154.546 150.665 154.546 146.115C154.546 141.566 154.383 125.475 154.383 125.475C157.525 123.309 160.841 121.406 164.296 119.786C170.148 117.023 174.209 118.488 174.209 118.488L176 122.386Z" fill="#90CAF9" stroke="#263238" stroke-width="1.15942" stroke-linecap="round" stroke-linejoin="round"/>
<path d="M170.601 118.118C168.403 118.251 166.253 118.818 164.274 119.785C160.819 121.406 157.503 123.309 154.361 125.474C154.361 125.474 154.361 127.331 154.405 129.958C155.439 130.174 158.294 130.596 163.742 130.27C169.752 129.91 173.514 128.739 174.53 128.387L174.847 127.067L174.962 121.457C174.962 121.457 172.26 119.24 170.601 118.118Z" fill="#263238" stroke="#263238" stroke-width="1.15942" stroke-linecap="round" stroke-linejoin="round"/>
<path d="M141.003 71.4867C141.003 71.4867 137.043 72.6967 136.053 73.3567C135.063 74.0167 133.523 79.1867 133.083 80.3967C132.643 81.6067 130.333 87.8767 130.333 87.8767L134.073 88.6467C134.073 88.6467 133.963 92.3867 134.513 93.9267C135.063 95.4667 139.023 100.087 139.023 100.087L140.453 103.937L138.913 125.277C138.913 125.277 144.523 128.247 153.983 129.127C163.443 130.007 169.933 129.127 170.703 128.687C171.159 128.425 171.637 128.204 172.133 128.027L172.793 124.947L173.783 127.807C175.018 127.691 176.236 127.433 177.413 127.037C178.733 126.487 180.713 125.387 180.713 125.387C180.713 125.387 176.643 109.987 174.883 105.807C173.123 101.627 170.153 95.1367 170.153 95.1367C170.153 95.1367 168.833 80.0667 166.193 75.0067C163.553 69.9467 158.603 68.6267 155.083 68.2967C151.563 67.9667 141.003 71.4867 141.003 71.4867Z" fill="#90CAF9" stroke="#263238" stroke-width="1.15942" stroke-linecap="round" stroke-linejoin="round"/>
<path d="M139.92 72.0278C139.18 74.541 138.771 77.1398 138.701 79.7586L139.92 72.0278Z" fill="white"/>
<path d="M139.92 72.0278C139.18 74.541 138.771 77.1398 138.701 79.7586" stroke="#263238" stroke-width="2.31884" stroke-linecap="round" stroke-linejoin="round"/>
<path d="M139.234 96.3597C139.186 96.3585 139.139 96.3511 139.093 96.3377C138.858 96.2511 138.63 96.1451 138.411 96.0209C138.213 96.1529 138.05 96.2497 137.971 96.2981C137.872 96.343 137.76 96.3494 137.656 96.3162C137.552 96.283 137.464 96.2125 137.41 96.1183C137.355 96.0242 137.337 95.913 137.36 95.8064C137.382 95.6998 137.443 95.6054 137.531 95.5413L137.654 95.4665C137.245 95.1161 136.94 94.6593 136.774 94.1465C136.334 92.7429 136.053 80.9069 136.823 79.6749C137.03 79.3411 137.337 79.0813 137.701 78.9328C138.064 78.7842 138.465 78.7544 138.847 78.8477C139.287 78.9665 140.382 79.4637 140.484 81.5141C140.611 84.0441 140.765 92.6373 140.616 93.6757C140.528 94.2785 139.868 94.9341 139.221 95.4357C139.269 95.4588 139.319 95.478 139.37 95.4929C139.425 95.5113 139.476 95.5403 139.52 95.5784C139.564 95.6165 139.599 95.6628 139.625 95.7147C139.651 95.7666 139.666 95.8231 139.67 95.881C139.674 95.9388 139.666 95.9968 139.648 96.0517C139.62 96.14 139.565 96.2174 139.491 96.2727C139.416 96.328 139.327 96.3584 139.234 96.3597ZM138.407 79.6397C138.239 79.6421 138.075 79.6865 137.929 79.7687C137.783 79.8509 137.66 79.9685 137.571 80.1105C137.016 81.0653 137.219 92.5273 137.619 93.8649C137.765 94.2917 138.038 94.6635 138.402 94.9297C139.106 94.4105 139.7 93.8473 139.749 93.5217C139.881 92.6021 139.749 84.2421 139.608 81.5273C139.555 80.4933 139.203 79.8157 138.631 79.6705C138.558 79.6495 138.483 79.6391 138.407 79.6397Z" fill="white" stroke="#263238" stroke-width="1.15942" stroke-linecap="round" stroke-linejoin="round"/>
<path d="M137.641 95.4536L138.411 96.008C138.096 96.2707 137.737 96.4762 137.351 96.6152C136.942 96.6988 136.616 96.36 137.641 95.4536Z" fill="#263238" stroke="#263238" stroke-width="1.15942" stroke-linecap="round" stroke-linejoin="round"/>
<path d="M139.225 95.4316L138.411 96.008C138.411 96.008 139.238 97.108 140.14 96.6988C141.042 96.2896 139.225 95.4316 139.225 95.4316Z" fill="#263238" stroke="#263238" stroke-width="1.15942" stroke-linecap="round" stroke-linejoin="round"/>
<path d="M150.92 68.2261C150.92 68.2261 149.16 77.0481 149.16 83.9649" stroke="#263238" stroke-width="2.31884" stroke-linecap="round" stroke-linejoin="round"/>
<path d="M151.175 85.5932C151.175 87.318 150.172 88.7172 148.936 88.7172C147.699 88.7172 146.696 87.318 146.696 85.5932C146.696 83.8684 147.699 82.4736 148.936 82.4736C150.172 82.4736 151.175 83.8728 151.175 85.5932Z" fill="white" stroke="#263238" stroke-width="1.15942" stroke-linecap="round" stroke-linejoin="round"/>
<path d="M149.547 85.1885C149.547 86.2841 148.909 87.1729 148.122 87.1729C147.334 87.1729 146.696 86.2929 146.696 85.1885C146.696 84.0841 147.334 83.2041 148.122 83.2041C148.909 83.2041 149.547 84.0929 149.547 85.1885Z" fill="white" stroke="#263238" stroke-width="1.15942" stroke-linecap="round" stroke-linejoin="round"/>
<path d="M171.288 79.8468L167.953 83.1468L166.083 79.7368L171.288 79.8468Z" fill="#263238" stroke="#263238" stroke-width="1.15942" stroke-linecap="round" stroke-linejoin="round"/>
<path d="M156.767 82.6322L158.087 94.2174C158.087 94.2174 139.022 97.887 136.967 97.7374C134.516 97.474 132.039 97.88 129.8 98.9122C126.865 100.232 125.4 100.967 125.545 101.697C125.69 102.428 127.01 104.777 127.01 104.777C127.01 104.777 129.505 104.927 129.65 104.487C129.747 104.152 129.797 103.806 129.8 103.457C129.8 103.457 132.44 103.607 133.61 103.017C134.362 102.63 135.054 102.136 135.665 101.552C135.665 101.552 151.065 102.727 156.93 102.872C162.795 103.017 169.545 102.577 170.28 101.552C171.015 100.527 167.64 79.5522 167.64 79.5522L156.767 82.6322Z" fill="white" stroke="#263238" stroke-width="1.15942" stroke-linecap="round" stroke-linejoin="round"/>
<path d="M158.088 94.2171C158.088 94.2171 164.01 92.0963 167.328 93.3811" stroke="#263238" stroke-width="1.15942" stroke-linecap="round" stroke-linejoin="round"/>
<path d="M136.968 97.7371L137.311 101.64L139.053 101.913L138.684 97.5083L136.968 97.7371Z" fill="white" stroke="#263238" stroke-width="1.15942" stroke-linecap="round" stroke-linejoin="round"/>
<path d="M139.326 97.429C139.348 97.8338 138.754 98.199 138.007 98.243C137.259 98.287 136.612 97.9966 136.585 97.5918C136.559 97.187 137.157 96.8218 137.905 96.7778C138.653 96.7338 139.3 97.0242 139.326 97.429Z" fill="white" stroke="#263238" stroke-width="1.15942" stroke-linecap="round" stroke-linejoin="round"/>
<path d="M129.783 103.457L128.225 103.017" stroke="#263238" stroke-width="1.15942" stroke-linecap="round" stroke-linejoin="round"/>
<path d="M155.593 76.0318L156.328 84.3918L171.288 79.8466C171.288 79.8466 166.32 71.1918 163.513 68.9918C160.706 66.7918 155.008 68.697 154.273 69.2866" fill="#90CAF9"/>
<path d="M155.593 76.0318L156.328 84.3918L171.288 79.8466C171.288 79.8466 166.32 71.1918 163.513 68.9918C160.706 66.7918 155.008 68.697 154.273 69.2866" stroke="#263238" stroke-width="1.15942" stroke-linecap="round" stroke-linejoin="round"/>
<path d="M127.033 48.2767C127.033 48.2767 121.643 53.3367 123.843 55.7567C126.043 58.1767 129.123 59.7167 129.563 62.4667C130.003 65.2167 130.883 66.8667 129.673 69.2867C128.463 71.7067 127.583 72.2567 127.583 72.2567C127.583 72.2567 132.753 74.8967 136.053 74.6767C139.353 74.4567 144.083 70.7167 144.083 70.7167C144.083 70.7167 151.783 70.6067 155.193 67.6367C158.603 64.6667 158.493 59.6067 157.063 56.0867C155.633 52.5667 150.683 48.3999 148.28 45.7599C145.878 43.1199 141.13 41.3599 136.18 41.9099C131.23 42.4599 127.033 48.2767 127.033 48.2767Z" fill="#263238" stroke="#263238" stroke-width="1.15942" stroke-linecap="round" stroke-linejoin="round"/>
<path d="M139.48 71.8168C139.48 71.8168 140.47 74.3468 141.13 76.6568C141.79 78.9668 143.55 84.7968 143.55 84.4668C143.55 84.1368 147.07 75.3368 147.95 72.8068C148.475 71.3152 148.808 69.7627 148.94 68.1868L145.97 61.2568C145.038 63.3408 143.691 65.2125 142.01 66.7568C139.37 69.0668 138.71 70.1668 138.71 70.1668L139.48 71.8168Z" fill="white" stroke="#263238" stroke-width="1.15942" stroke-linecap="round" stroke-linejoin="round"/>
<path d="M139.973 72.8113C139.973 72.8113 144.518 71.5309 146.507 69.8281C148.495 68.1253 148.636 67.6941 148.636 67.6941L146.221 63.1489L139.973 72.8113Z" fill="#263238" stroke="#263238" stroke-width="1.15942" stroke-linecap="round" stroke-linejoin="round"/>
<path d="M127.692 57.0767C127.692 57.0767 129.672 62.0267 130.002 63.4567C130.332 64.8867 131.542 67.6367 133.412 69.2867C135.282 70.9367 136.492 73.1367 139.462 72.6967C142.432 72.2567 146.062 66.9767 146.722 65.3267C147.382 63.6767 145.842 59.1667 145.842 58.6167C145.834 58.4493 145.777 58.2879 145.68 58.1514C145.582 58.015 145.448 57.9093 145.292 57.8467C145.292 57.8467 140.012 59.9367 136.382 58.3967C133.957 57.3118 131.668 55.9458 129.562 54.3267L127.692 57.0767Z" fill="white" stroke="#263238" stroke-width="1.15942" stroke-linecap="round" stroke-linejoin="round"/>
<path d="M142.763 59.7168C142.763 59.7168 144.193 55.9768 146.283 56.4168C148.373 56.8568 148.153 60.4868 147.053 61.8068C145.953 63.1268 145.073 62.4668 145.073 62.4668" fill="white"/>
<path d="M142.763 59.7168C142.763 59.7168 144.193 55.9768 146.283 56.4168C148.373 56.8568 148.153 60.4868 147.053 61.8068C145.953 63.1268 145.073 62.4668 145.073 62.4668" stroke="#263238" stroke-width="1.15942" stroke-linecap="round" stroke-linejoin="round"/>
<path d="M133.76 60.7197C133.901 61.4076 133.975 62.1076 133.98 62.8097C133.98 63.9097 133.43 65.6697 134.42 66.1097C135.41 66.5497 136.84 66.1097 137.17 65.5597" stroke="#263238" stroke-width="1.15942" stroke-linecap="round" stroke-linejoin="round"/>
<path d="M135.612 67.7598C135.612 67.7598 138.582 68.4198 140.232 65.0098" stroke="#263238" stroke-width="1.15942" stroke-linecap="round" stroke-linejoin="round"/>
<path d="M136.933 61.4768C137.482 61.6848 138.086 61.7001 138.646 61.5203C139.205 61.3404 139.687 60.9761 140.013 60.4868" stroke="#263238" stroke-width="1.15942" stroke-linecap="round" stroke-linejoin="round"/>
<path d="M130.992 62.247C130.992 62.247 132.422 62.907 133.302 61.917" stroke="#263238" stroke-width="1.15942" stroke-linecap="round" stroke-linejoin="round"/>
<path d="M133.193 60.1568C133.193 60.1568 131.763 59.1668 130.553 60.3768" stroke="#263238" stroke-width="1.15942" stroke-linecap="round" stroke-linejoin="round"/>
<path d="M135.172 59.0566C135.172 59.0566 135.832 57.9566 137.922 58.1766" stroke="#263238" stroke-width="1.15942" stroke-linecap="round" stroke-linejoin="round"/>
<path d="M114.285 87.8154C114.285 87.8154 118.245 88.6954 119.565 93.8302C120.885 98.965 127.327 119.68 127.327 119.68C127.327 119.68 134.142 123.574 136.197 123.869C138.252 124.164 140.008 124.309 140.157 126.509C140.307 128.709 139.717 132.229 138.542 132.814C137.368 133.399 132.968 133.404 129.742 133.254C126.517 133.105 124.462 132.374 122.702 131.204C120.942 130.033 119.037 118.444 116.982 112.869C114.928 107.294 110.765 95.7486 111.205 92.8182C111.645 89.8878 112.82 87.8154 114.285 87.8154Z" fill="#90CAF9" stroke="#263238" stroke-width="1.15942" stroke-linecap="round" stroke-linejoin="round"/>
<path d="M129.8 135.96L126.971 135.749C125.833 135.662 124.691 135.814 123.615 136.194C122.54 136.573 121.555 137.173 120.724 137.954C119.893 138.735 119.234 139.68 118.788 140.73C118.342 141.78 118.12 142.911 118.136 144.051L118.664 201.194C118.667 201.631 118.843 202.048 119.153 202.356C119.463 202.663 119.881 202.835 120.318 202.835H146.199L152.843 135.74L129.8 135.96Z" fill="#333333" stroke="#263238" stroke-width="1.15942" stroke-linecap="round" stroke-linejoin="round"/>
<path d="M146.19 202.84C145.754 202.84 145.335 202.667 145.025 202.36C144.715 202.053 144.54 201.635 144.536 201.199L144.008 144.056C143.993 142.915 144.215 141.784 144.66 140.734C145.106 139.685 145.765 138.739 146.597 137.958C147.428 137.177 148.412 136.578 149.488 136.198C150.563 135.818 151.706 135.667 152.843 135.753L155.672 135.964C156.788 136.049 157.875 136.36 158.866 136.878C159.857 137.397 160.732 138.113 161.438 138.982C162.143 139.85 162.663 140.854 162.967 141.93C163.271 143.007 163.352 144.135 163.205 145.244L155.76 201.388C155.709 201.786 155.515 202.151 155.213 202.416C154.912 202.681 154.525 202.827 154.124 202.827L146.19 202.84Z" fill="#666666" stroke="#263238" stroke-width="1.15942" stroke-linecap="round" stroke-linejoin="round"/>
<path d="M86.293 148.72H136.013C137.413 148.72 138.756 149.276 139.746 150.267C140.737 151.257 141.293 152.6 141.293 154V202.84H86.293V148.72Z" fill="#666666" stroke="#263238" stroke-width="1.15942" stroke-linecap="round" stroke-linejoin="round"/>
<path d="M141.513 167.407H89.5928" stroke="#263238" stroke-width="1.15942" stroke-linecap="round" stroke-linejoin="round"/>
<path d="M120.248 127.657L122.593 130.152C127.635 130.392 132.601 131.483 137.28 133.377C144.61 136.457 154 140.127 154.585 144.377C155.17 148.628 147.4 172.537 146.08 178.407C144.76 184.276 144.61 186.327 144.61 186.327C144.61 186.327 145.93 187.497 145.64 188.527C145.35 189.556 143.73 194.537 143.73 194.537C141.416 195.072 139.061 195.417 136.69 195.567C134.282 195.609 131.875 195.412 129.505 194.977C129.505 194.977 129.065 189.992 129.505 188.817C129.945 187.643 131.56 186.327 131.705 185.447C131.85 184.567 132.44 170.632 132.44 165.207C132.44 159.782 135.52 151.127 135.52 151.127C135.52 151.127 121 150.537 116.745 150.097C112.49 149.657 102.225 139.832 101.93 134.992C101.636 130.152 113.208 124.872 120.248 127.657Z" fill="#263238" stroke="#263238" stroke-width="1.15942" stroke-linecap="round" stroke-linejoin="round"/>
<path d="M143.88 192.777C143.88 192.777 142.56 190.287 140.946 191.457C139.331 192.628 139.04 194.247 138.16 194.247C137.28 194.247 129.506 192.777 129.506 192.777C129.506 192.777 127.451 200.847 128.186 201.727C128.92 202.607 135.666 203.337 138.6 203.777C141.535 204.217 147.986 205.832 152.24 205.832C156.495 205.832 155.76 202.752 154.731 201.727C153.701 200.702 146.371 196.737 145.346 195.417C144.726 194.617 144.232 193.727 143.88 192.777Z" fill="white" stroke="#263238" stroke-width="1.15942" stroke-linecap="round" stroke-linejoin="round"/>
<path d="M155.487 203.953C153.738 204.323 151.955 204.51 150.167 204.512C146.353 204.512 143.273 203.047 138.433 202.167C134.627 201.472 129.91 200.328 128.075 199.87C127.974 200.79 127.978 201.498 128.167 201.727C128.902 202.607 135.647 203.337 138.582 203.777C141.517 204.217 147.967 205.832 152.222 205.832C154.51 205.832 155.355 204.939 155.487 203.953Z" fill="white" stroke="#263238" stroke-width="1.15942" stroke-linecap="round" stroke-linejoin="round"/>
<path d="M90.0332 86.5917C90.0332 86.5917 81.2332 89.9665 78.008 92.1665C74.7828 94.3665 76.8332 102.726 76.8332 107.417C76.8332 112.107 75.9532 124.726 75.808 127.217C75.6628 129.707 78.888 133.086 81.088 134.406C83.288 135.726 102.063 136.457 107.048 136.457C112.033 136.457 122.743 133.232 121.863 123.697C120.983 114.162 117.903 106.832 117.463 105.217C117.023 103.602 116.873 98.3265 117.023 96.8569C117.172 95.3873 118.343 90.9917 116.143 88.9369C113.943 86.8821 104.703 84.5369 100.448 84.6865C96.1932 84.8361 90.0332 86.5917 90.0332 86.5917Z" fill="#90CAF9" stroke="#263238" stroke-width="1.15942" stroke-linecap="round" stroke-linejoin="round"/>
<path d="M91.1858 96.2588C91.3998 96.8596 91.7104 97.4213 92.1054 97.922C93.3411 99.4624 94.6633 100.931 96.0654 102.322C99.2642 105.525 104.298 107.659 104.298 107.659C104.298 107.659 105.974 98.8196 106.278 94.8552C106.581 90.8908 104.447 87.692 100.941 86.4952C97.4338 85.2984 91.0362 86.6448 90.121 89.0868C89.4522 90.904 90.5874 94.5736 91.1858 96.2588Z" fill="white" stroke="#263238" stroke-width="1.15942" stroke-linecap="round" stroke-linejoin="round"/>
<path d="M91.6652 83.877C91.3592 83.8911 91.0594 83.9691 90.7852 84.1058C90.1259 84.4397 89.6167 85.0101 89.3596 85.703C88.594 87.5334 87.9868 89.5178 87.9868 89.5178C88.4262 91.7961 89.0381 94.0378 89.8172 96.2234C90.5836 98.2995 91.1537 100.443 91.52 102.625C91.52 102.625 97.0068 98.507 98.0716 97.5962C99.0758 96.8372 100.148 96.1729 101.275 95.6118C101.275 95.6118 104.931 97.4422 106.608 98.507C108.284 99.5718 109.657 100.491 109.657 100.491C109.466 97.4734 108.85 94.4975 107.826 91.6518C106.15 87.0758 105.389 85.703 104.474 84.7922C103.558 83.8814 96.5448 81.2854 91.6652 83.877Z" fill="white" stroke="#263238" stroke-width="1.15942" stroke-linecap="round" stroke-linejoin="round"/>
<path d="M104.28 62.0396C104.28 62.0396 105.362 60.6536 105.987 61.7492C106.333 62.3693 106.753 62.9455 107.237 63.4652C107.237 63.4652 108.482 64.09 108.64 65.1812C108.748 65.8519 108.799 66.5304 108.794 67.2096C108.794 67.676 110.198 67.9884 110.198 68.7716C110.198 69.5548 109.419 69.8628 109.265 70.6416C109.111 71.4204 109.78 72.1112 109.107 73.1364C108.434 74.1616 109.168 73.7876 108.434 74.166C107.699 74.5444 106.924 75.0108 106.924 75.0108L103.334 63.1308L104.28 62.0396Z" fill="#C7C7C7" stroke="#7D7D7D" stroke-width="1.15942" stroke-linecap="round" stroke-linejoin="round"/>
<path d="M92.4879 56.6633C92.4879 56.6633 88.3343 57.8777 86.6007 61.3405C84.8671 64.8033 84.6955 67.4037 85.5623 70.3473C86.4291 73.2909 89.7159 81.6025 90.7587 84.0269C91.8015 86.4513 92.1447 90.9569 94.2215 93.7069C96.2983 96.4569 101.323 98.9033 101.323 98.9033C101.323 98.9033 105.129 93.7069 105.824 91.1109C106.52 88.5149 105.129 83.3185 105.129 83.3185C105.129 83.3185 108.94 78.6413 108.42 74.1401C107.901 69.6389 105.129 63.7649 104.28 62.0401C103.431 60.3153 100.28 54.9341 92.4879 56.6633Z" fill="white" stroke="#263238" stroke-width="1.15942" stroke-linecap="round" stroke-linejoin="round"/>
<path d="M95.48 63.6017C95.48 63.6017 98.5292 62.0793 100.509 62.5369" stroke="#263238" stroke-width="1.15942" stroke-linecap="round" stroke-linejoin="round"/>
<path d="M94.2568 62.9949C94.2568 62.9949 97.0024 61.6221 98.9824 61.6221" stroke="#263238" stroke-width="1.15942" stroke-linecap="round" stroke-linejoin="round"/>
<path d="M105.129 83.3358C105.129 83.3358 102.793 84.7922 100.659 84.7922C98.525 84.7922 94.5606 83.1158 93.3418 81.8926C93.3418 81.8926 96.9542 86.0286 100.791 87.0626C104.628 88.0966 105.662 86.473 105.662 86.473L105.129 83.3358Z" fill="#263238" stroke="#263238" stroke-width="1.15942" stroke-linecap="round" stroke-linejoin="round"/>
<path d="M86.4688 74.3599C86.5863 74.2905 86.6994 74.2141 86.8076 74.1311C87.34 73.7395 88.2992 72.8859 88.1848 71.8651C88.0308 70.4615 88.1848 69.6651 87.406 68.5871C86.6272 67.5091 85.3776 65.1551 85.3776 65.1551C84.4538 65.0801 83.5298 65.2987 82.7376 65.7799C81.6464 66.5587 81.9544 67.1835 81.6464 68.2747C81.3384 69.3659 80.5508 68.5871 80.0844 70.1491C79.618 71.7111 80.2384 72.6439 80.8632 72.9563C81.488 73.2687 81.0216 74.2059 81.0216 75.5963C81.0454 76.1002 81.2458 76.5796 81.5877 76.9505C81.9297 77.3214 82.3913 77.5601 82.8916 77.6247C83.3624 77.6247 83.5164 78.2495 84.1412 78.8743C84.766 79.4991 86.7812 78.7995 86.7812 78.7995C86.7812 78.7995 87.7272 78.2495 87.8812 77.6247C88.0352 76.9999 86.4688 74.3599 86.4688 74.3599Z" fill="#C7C7C7" stroke="#7D7D7D" stroke-width="1.15942" stroke-linecap="round" stroke-linejoin="round"/>
<path d="M87.8153 74.1576C87.8153 74.1576 85.7341 71.3856 84.3481 72.9432C82.9621 74.5008 85.3865 78.3112 86.7725 78.8304C88.1585 79.3496 89.8921 77.9504 89.8921 77.9504" fill="white"/>
<path d="M87.8153 74.1576C87.8153 74.1576 85.7341 71.3856 84.3481 72.9432C82.9621 74.5008 85.3865 78.3112 86.7725 78.8304C88.1585 79.3496 89.8921 77.9504 89.8921 77.9504" stroke="#263238" stroke-width="1.15942" stroke-linecap="round" stroke-linejoin="round"/>
<path d="M100.457 65.8413C100.457 65.8413 100.281 67.4033 100.628 67.9225C100.976 68.4417 103.053 69.3085 102.705 70.8661C102.357 72.4237 100.281 73.8097 99.2422 72.4237" stroke="#263238" stroke-width="1.15942" stroke-linecap="round" stroke-linejoin="round"/>
<path d="M97.856 75.1957C98.8646 75.4687 99.9319 75.4331 100.92 75.0934C101.908 74.7538 102.772 74.1259 103.4 73.2905" stroke="#263238" stroke-width="1.15942" stroke-linecap="round" stroke-linejoin="round"/>
<path d="M92.664 68.0326C92.6148 68.0318 92.566 68.0244 92.5188 68.0107C92.4601 67.9939 92.4054 67.9652 92.3584 67.9262C92.3114 67.8872 92.273 67.8389 92.2457 67.7842C92.2184 67.7296 92.2027 67.6699 92.1997 67.6088C92.1968 67.5478 92.2065 67.4869 92.2284 67.4299C93.0028 65.1066 95.9464 64.7106 96.0696 64.6974C96.1898 64.6823 96.3111 64.7155 96.4068 64.7897C96.5025 64.864 96.5648 64.9733 96.58 65.0934C96.5952 65.2136 96.562 65.3349 96.4877 65.4307C96.4134 65.5264 96.3042 65.5887 96.184 65.6039C96.1576 65.6039 93.6892 65.9427 93.104 67.7203C93.0758 67.8138 93.0172 67.8953 92.9375 67.9518C92.8579 68.0084 92.7616 68.0368 92.664 68.0326Z" fill="#C7C7C7" stroke="#7D7D7D" stroke-width="1.15942" stroke-linecap="round" stroke-linejoin="round"/>
<path d="M103.919 65.1509C103.859 65.1518 103.8 65.1406 103.745 65.1179C103.69 65.0952 103.64 65.0615 103.598 65.0189C103.262 64.6913 102.834 64.4738 102.371 64.3952C101.908 64.3166 101.432 64.3807 101.006 64.5789C100.898 64.6331 100.772 64.6421 100.657 64.6037C100.542 64.5653 100.447 64.4828 100.393 64.3743C100.338 64.2657 100.329 64.1401 100.368 64.025C100.406 63.9099 100.489 63.8147 100.597 63.7605C101.193 63.4745 101.863 63.3794 102.515 63.488C103.167 63.5967 103.769 63.9039 104.24 64.3677C104.285 64.4089 104.321 64.4589 104.345 64.5145C104.369 64.5702 104.382 64.6303 104.382 64.6911C104.382 64.7518 104.369 64.8119 104.345 64.8676C104.321 64.9233 104.285 64.9733 104.24 65.0145C104.199 65.0579 104.149 65.0924 104.094 65.1159C104.039 65.1393 103.979 65.1512 103.919 65.1509Z" fill="#C7C7C7" stroke="#7D7D7D" stroke-width="1.15942" stroke-linecap="round" stroke-linejoin="round"/>
<path d="M97.5128 69.9995C97.4103 70.6385 97.1714 71.2478 96.8122 71.7861C96.4531 72.3244 95.9822 72.7791 95.4316 73.1191" stroke="#263238" stroke-width="1.15942" stroke-linecap="round" stroke-linejoin="round"/>
<path d="M102.881 69.1328C103.806 69.783 104.875 70.1996 105.996 70.3472" stroke="#263238" stroke-width="1.15942" stroke-linecap="round" stroke-linejoin="round"/>
<path d="M96.3602 69.4361C96.5142 69.9861 96.3866 70.5009 96.0742 70.5889C95.7618 70.6769 95.3921 70.2985 95.2381 69.7485C95.0841 69.1985 95.2118 68.6793 95.5242 68.5957C95.8366 68.5121 96.2106 68.8861 96.3602 69.4361Z" fill="#263238"/>
<path d="M103.264 67.4781C103.414 68.0281 103.286 68.5429 102.978 68.6309C102.67 68.7189 102.292 68.3405 102.142 67.7861C101.992 67.2317 102.116 66.7213 102.424 66.6333C102.732 66.5453 103.11 66.9237 103.264 67.4781Z" fill="#263238"/>
<path d="M96.4349 68.1338L94.2173 69.6122" stroke="#263238" stroke-width="1.15942" stroke-linecap="round" stroke-linejoin="round"/>
<path d="M101.711 66.8712L104.14 66.7656" stroke="#263238" stroke-width="1.15942" stroke-linecap="round" stroke-linejoin="round"/>
<path d="M148.562 129.105C148.562 129.105 151.818 130.566 152.416 130.988C153.015 131.41 154.66 133.98 154.797 134.781C154.933 135.582 154.77 135.912 154.269 135.621C153.767 135.331 152.346 133.628 151.246 132.466C150.146 131.305 148.742 130.574 148.399 129.884C148.056 129.193 148.016 128.973 148.562 129.105Z" fill="white" stroke="#263238" stroke-width="1.15942" stroke-linecap="round" stroke-linejoin="round"/>
<path d="M138.807 125.62C138.807 125.62 144.17 127.38 146.054 127.939C147.463 128.375 148.759 129.116 149.851 130.108C150.388 130.614 153.349 133.971 153.67 134.948C153.991 135.925 154.436 138.538 153.886 138.78C153.336 139.022 152.772 138.38 152.526 137.825C152.244 137.305 151.911 136.814 151.532 136.36C151.532 136.36 152.196 138.477 152.082 139.541C151.967 140.606 151.642 141.253 150.762 141.403C149.882 141.552 148.896 140.083 148.214 138.719C147.799 137.893 147.266 137.132 146.63 136.461L144.527 135.485C144.888 136.543 145.363 137.56 145.944 138.516C146.749 139.717 147.704 139.999 147.356 140.655C147.008 141.31 145.407 141.438 144.654 140.527C143.902 139.616 142.692 138.631 142.014 137.407C141.337 136.184 139.766 132.88 139.766 132.88L135.472 132.132C135.472 132.132 132.959 131.375 132.796 128.726C132.634 126.077 137.645 124.929 138.807 125.62Z" fill="white" stroke="#263238" stroke-width="1.15942" stroke-linecap="round" stroke-linejoin="round"/>
<path d="M147.585 134.222C147.585 134.222 149.508 136.716 150.141 137.799C150.775 138.881 150.766 141.411 150.766 141.411" stroke="#263238" stroke-width="1.15942" stroke-linecap="round" stroke-linejoin="round"/>
<path d="M151.532 136.369L149.82 132.497" stroke="#263238" stroke-width="1.15942" stroke-linecap="round" stroke-linejoin="round"/>
<path d="M95.4803 134.697C95.4803 134.697 105.305 133.527 110.291 135.287C115.276 137.047 120.12 143.207 120.12 148.337C120.12 153.468 119.091 181.632 119.385 182.367C119.68 183.102 121.291 183.247 121.291 184.712C121.291 186.177 120.12 193.807 120.12 193.807C120.12 193.807 113.225 196.297 110.88 196.297H108.531C108.531 196.297 105.16 187.352 105.305 185.887C105.451 184.422 106.331 183.247 106.331 182.512C106.331 181.777 102.08 166.377 102.08 161.832V151.712L93.8655 149.952C93.8655 149.952 90.2003 139.537 95.4803 134.697Z" fill="#263238" stroke="#263238" stroke-width="1.15942" stroke-linecap="round" stroke-linejoin="round"/>
<path d="M126.113 200.407C126.113 200.407 121.713 195.272 119.953 192.487C118.193 189.702 114.968 188.087 113.063 189.552C111.157 191.017 111.153 194.687 111.153 194.687L107.928 194.098C107.928 194.098 109.103 198.058 109.688 200.258C110.273 202.458 111.153 203.927 114.968 204.512C118.783 205.097 125.088 205.538 126.848 203.778C128.608 202.018 126.113 200.407 126.113 200.407Z" fill="white" stroke="#263238" stroke-width="1.15942" stroke-linecap="round" stroke-linejoin="round"/>
<path d="M126.848 203.777C127.131 203.547 127.331 203.231 127.419 202.877C127.507 202.523 127.478 202.151 127.336 201.815C126.516 202.28 125.667 202.692 124.793 203.047C121.568 204.367 117.168 204.072 113.503 202.897C112.148 202.508 110.902 201.809 109.864 200.855C110.467 202.725 111.514 203.979 114.968 204.512C118.8 205.097 125.088 205.537 126.848 203.777Z" fill="white" stroke="#263238" stroke-width="1.15942" stroke-linecap="round" stroke-linejoin="round"/>
<path d="M131.877 126.474C131.877 126.474 131.587 129.954 131.49 131.014C131.393 132.075 131.974 133.338 132.37 133.527C132.766 133.716 132.951 133.338 132.951 132.466V131.014C132.937 130.724 131.877 126.474 131.877 126.474Z" fill="white" stroke="#263238" stroke-width="1.15942" stroke-linecap="round" stroke-linejoin="round"/>
<path d="M137.658 119.332C137.658 117.819 139.674 114.629 139.674 114.629L140.452 103.937L139.924 101.864L137.575 101.697C136.646 104.812 133.386 115.777 132.955 117.484C132.454 119.804 132.117 122.157 131.947 124.524C131.947 125.36 131.947 129.224 132.286 130.737C132.625 132.251 134.97 133.756 134.97 133.756C134.97 133.756 138.138 133.756 138.64 133.421C139.141 133.087 137.87 131.969 137.87 131.969C137.68 131.969 137.122 127.824 138.31 126.54C139.269 125.514 142.006 126.707 142.006 126.707C142.006 126.707 141.332 124.859 140.492 123.187C139.652 121.515 137.658 120.842 137.658 119.332Z" fill="white" stroke="#263238" stroke-width="1.15942" stroke-linecap="round" stroke-linejoin="round"/>
<path d="M138.16 133.721C138.16 133.721 135.648 132.37 135.357 131.789C135.067 131.208 134.975 126.764 134.975 126.764" stroke="#263238" stroke-width="1.15942" stroke-linecap="round" stroke-linejoin="round"/>
<path d="M135.547 133.72C135.547 133.72 133.518 131.595 133.518 130.82C133.518 130.046 133.034 126.764 133.034 126.764" stroke="#263238" stroke-width="1.15942" stroke-linecap="round" stroke-linejoin="round"/>
<path d="M87.4899 135.96L70.7215 135.762C70.2896 135.727 69.8555 135.727 69.4235 135.762L66.5899 135.973C65.4744 136.057 64.3878 136.368 63.3967 136.887C62.4057 137.406 61.5309 138.122 60.8261 138.991C60.1213 139.859 59.6013 140.863 59.2978 141.94C58.9944 143.016 58.914 144.144 59.0615 145.253L66.5415 201.41C66.5938 201.808 66.7892 202.173 67.0912 202.438C67.3932 202.703 67.7811 202.849 68.1827 202.849H89.0827L87.4899 135.96Z" fill="#333333" stroke="#263238" stroke-width="1.15942" stroke-linecap="round" stroke-linejoin="round"/>
<path d="M96.9762 202.84C97.4124 202.839 97.8305 202.666 98.1401 202.359C98.4498 202.052 98.626 201.635 98.6306 201.199L99.1586 144.056C99.1734 142.916 98.9508 141.785 98.5049 140.735C98.0591 139.686 97.3997 138.741 96.5687 137.96C95.7377 137.179 94.7533 136.579 93.6782 136.199C92.603 135.82 91.4605 135.668 90.3234 135.753L87.4898 135.964C86.3743 136.049 85.2877 136.36 84.2966 136.879C83.3056 137.397 82.4308 138.113 81.726 138.982C81.0212 139.851 80.5012 140.854 80.1978 141.931C79.8943 143.008 79.8139 144.135 79.9614 145.244L87.4414 201.401C87.4937 201.799 87.6891 202.165 87.9911 202.43C88.2931 202.694 88.681 202.84 89.0826 202.84H96.9762Z" fill="#666666" stroke="#263238" stroke-width="1.15942" stroke-linecap="round" stroke-linejoin="round"/>
<path d="M82.1129 90.5518C82.1129 90.5518 75.9529 90.697 73.6077 94.217C71.2625 97.737 69.3529 109.767 68.9129 112.847C68.4729 115.927 66.5677 126.777 67.3025 128.832C68.0373 130.887 69.9425 131.177 73.4625 131.327C76.9825 131.476 78.5929 129.567 79.3277 127.367C80.0625 125.167 81.9677 104.632 81.9677 104.632" fill="#90CAF9"/>
<path d="M82.1129 90.5518C82.1129 90.5518 75.9529 90.697 73.6077 94.217C71.2625 97.737 69.3529 109.767 68.9129 112.847C68.4729 115.927 66.5677 126.777 67.3025 128.832C68.0373 130.887 69.9425 131.177 73.4625 131.327C76.9825 131.476 78.5929 129.567 79.3277 127.367C80.0625 125.167 81.9677 104.632 81.9677 104.632" stroke="#263238" stroke-width="1.15942" stroke-linecap="round" stroke-linejoin="round"/>
<path d="M73.7531 121.497C74.6331 121.792 82.5531 123.697 83.1427 125.312C83.3291 125.724 83.3869 126.182 83.3084 126.627C83.2299 127.072 83.0188 127.484 82.7027 127.807C82.7027 127.807 80.0627 134.112 77.7131 134.697C75.3635 135.282 70.0879 133.672 67.4479 132.497C64.8079 131.322 67.4479 122.377 67.7427 121.937" fill="#90CAF9"/>
<path d="M73.7531 121.497C74.6331 121.792 82.5531 123.697 83.1427 125.312C83.3291 125.724 83.3869 126.182 83.3084 126.627C83.2299 127.072 83.0188 127.484 82.7027 127.807C82.7027 127.807 80.0627 134.112 77.7131 134.697C75.3635 135.282 70.0879 133.672 67.4479 132.497C64.8079 131.322 67.4479 122.377 67.7427 121.937" stroke="#263238" stroke-width="1.15942" stroke-linecap="round" stroke-linejoin="round"/>
<path d="M84.4803 129.567C84.4803 129.567 85.0655 128.687 84.3307 128.247C83.5959 127.807 82.4255 126.487 81.1055 126.487C79.7855 126.487 77.4403 127.657 76.8507 130.152C76.2611 132.647 76.7055 134.407 77.7307 134.697C78.7559 134.988 80.9603 135.577 81.9855 135.577C83.0107 135.577 83.7455 133.377 83.8907 132.937C84.0359 132.497 84.4803 129.567 84.4803 129.567Z" fill="#90CAF9" stroke="#263238" stroke-width="1.15942" stroke-linecap="round" stroke-linejoin="round"/>
<path d="M93.9932 130.447C93.9932 130.447 96.488 133.527 97.6628 134.112C98.8376 134.697 99.8628 135.432 98.9828 136.312C98.1028 137.192 96.048 136.752 95.168 135.577C94.288 134.402 93.9932 130.447 93.9932 130.447Z" fill="white" stroke="#263238" stroke-width="1.15942" stroke-linecap="round" stroke-linejoin="round"/>
<path d="M85.4877 129.567C85.4877 129.567 92.3825 128.537 93.4077 128.537C94.4329 128.537 96.0477 135.872 96.1929 137.047C96.3381 138.222 96.9277 138.952 96.1929 139.537C95.8732 139.85 95.4642 140.056 95.0225 140.127C94.6187 140.471 94.1757 140.766 93.7025 141.007C93.2625 141.152 91.6477 140.857 91.6477 140.857C91.6477 140.857 91.5025 141.447 90.3277 141.297C89.1529 141.148 85.1929 136.167 85.1929 136.167C85.1929 136.167 82.2625 135.432 81.0877 134.407C79.9129 133.382 80.3529 131.617 81.0877 130.447C81.8225 129.276 83.4329 128.977 83.4329 128.977L85.4877 129.567Z" fill="white" stroke="#263238" stroke-width="1.15942" stroke-linecap="round" stroke-linejoin="round"/>
<path d="M91.9429 131.912L95.6081 139.832" stroke="#263238" stroke-width="1.15942" stroke-linecap="round" stroke-linejoin="round"/>
<path d="M89.1528 133.232L93.7024 141.007" stroke="#263238" stroke-width="1.15942" stroke-linecap="round" stroke-linejoin="round"/>
<path d="M91.6479 140.857L87.3931 134.697" stroke="#263238" stroke-width="1.15942" stroke-linecap="round" stroke-linejoin="round"/>
</svg>
