<svg width="262" height="272" viewBox="0 0 262 272" fill="none" xmlns="http://www.w3.org/2000/svg">
<path opacity="0.2" d="M162.954 194.632C162.954 194.632 83.6636 229.78 83.6636 263.081H242.266C242.255 229.78 162.954 194.632 162.954 194.632Z" fill="#407BFF"/>
<path opacity="0.2" d="M162.954 236.568C162.954 236.568 89.7378 250.185 89.7378 263.081H236.17C236.17 250.185 162.954 236.568 162.954 236.568Z" fill="#407BFF"/>
<path opacity="0.3" d="M172.578 204.337C187.467 215.329 216.404 239.687 216.404 263.081H196.563C196.563 239.687 180.724 215.329 172.578 204.337Z" fill="white"/>
<path opacity="0.2" d="M162.954 194.632C162.954 194.632 83.6636 159.485 83.6636 126.184H242.266C242.255 159.485 162.954 194.632 162.954 194.632Z" fill="#407BFF"/>
<path opacity="0.2" d="M162.954 191.425C162.954 191.425 122.473 176.844 122.473 162.992H203.446C203.446 176.82 162.954 191.425 162.954 191.425Z" fill="#407BFF"/>
<path opacity="0.3" d="M154.312 184.928C139.433 173.936 110.529 149.578 110.529 126.184H130.37C130.327 149.578 146.133 173.936 154.312 184.928Z" fill="white"/>
<path opacity="0.3" d="M172.578 184.928C187.467 173.936 215.681 146.759 216.404 126.184H211.118C208.636 151.271 184.36 174.292 172.578 184.928Z" fill="white"/>
<path d="M231.487 114.43H222.5V115.24H231.487V114.43Z" fill="#407BFF"/>
<path d="M262 125.56H260.921C260.918 122.825 259.47 120.202 256.895 118.268C254.321 116.333 250.829 115.244 247.186 115.24H237.702V114.43H247.186C251.114 114.436 254.879 115.611 257.655 117.697C260.432 119.783 261.994 122.611 262 125.56Z" fill="#407BFF"/>
<path d="M247.175 117.265H78.7328C72.631 117.265 67.6846 120.978 67.6846 125.56V126.807C67.6846 131.388 72.631 135.102 78.7328 135.102H247.175C253.277 135.102 258.224 131.388 258.224 126.807V125.56C258.224 120.978 253.277 117.265 247.175 117.265Z" fill="#407BFF"/>
<path d="M247.175 254.162H78.7328C72.631 254.162 67.6846 257.876 67.6846 262.457V263.704C67.6846 268.286 72.631 271.999 78.7328 271.999H247.175C253.277 271.999 258.224 268.286 258.224 263.704V262.457C258.224 257.876 253.277 254.162 247.175 254.162Z" fill="#407BFF"/>
<path d="M23.9118 181.502L16.5967 176.625L29.0691 162.247L36.3842 167.115L23.9118 181.502Z" fill="#FF8B7B"/>
<path d="M18.1072 173.531L27.4076 178.391C27.487 178.428 27.5558 178.477 27.6102 178.534C27.6646 178.591 27.7034 178.656 27.7244 178.724C27.7454 178.793 27.7483 178.863 27.7328 178.933C27.7174 179.002 27.6838 179.068 27.6342 179.128L22.9732 184.895C22.7048 185.186 22.2952 185.385 21.8329 185.45C21.3706 185.515 20.8927 185.441 20.5025 185.244C17.2657 183.518 16.0681 182.676 12.1947 180.327C8.36634 178.068 4.69325 175.664 1.18962 173.126C-1.68033 170.89 1.35146 168.727 2.87275 169.497C6.46559 171.327 12.7126 173.344 16.327 173.182C16.9557 173.145 17.5828 173.267 18.1072 173.531Z" fill="#263238"/>
<path opacity="0.2" d="M36.3736 167.124L29.0584 162.247L23.0596 169.173L30.5582 173.847L36.3736 167.124Z" fill="black"/>
<path d="M110.798 95.297C110.798 95.297 61.7067 92.7778 55.6215 105.269C41.7788 133.669 23.7715 163.794 23.7715 163.794L38.2399 171.66C38.2399 171.66 68.8276 136.544 78.1603 114.001C97.0416 117.444 131.179 120.384 142.173 110.907C151.56 102.806 144.536 95.297 144.536 95.297H110.798Z" fill="#263238"/>
<path opacity="0.3" d="M68.7522 117.37C67.6085 120.837 65.8714 130.768 64.7925 137.354C67.1769 133.887 69.4427 130.371 71.4818 126.937L68.7522 117.37Z" fill="black"/>
<path d="M37.3124 175.216L20.9019 165.561L24.2573 160.149L42.5991 170.672L37.3124 175.216Z" fill="#407BFF"/>
<path d="M14.1693 173.085C14.9301 173.457 15.7399 173.77 16.5861 174.017C16.6282 174.028 16.6736 174.03 16.717 174.022C16.7605 174.015 16.8003 173.998 16.8318 173.975C16.8633 173.951 16.8853 173.921 16.8953 173.888C16.9053 173.856 16.9028 173.822 16.8882 173.79C16.7479 173.515 15.5179 171.093 14.234 170.858C14.0867 170.832 13.9334 170.836 13.7881 170.867C13.6428 170.898 13.5104 170.956 13.4032 171.036C13.2227 171.143 13.0829 171.284 12.9977 171.445C12.9125 171.606 12.8849 171.78 12.9177 171.951C13.136 172.432 13.5813 172.835 14.1693 173.085ZM16.2516 173.531C14.5577 172.98 13.5003 172.373 13.3817 171.911C13.3631 171.798 13.3853 171.684 13.4461 171.58C13.5068 171.475 13.6039 171.386 13.7269 171.32C13.7768 171.279 13.8401 171.25 13.9103 171.234C13.9805 171.218 14.055 171.217 14.1261 171.23C14.8166 171.36 15.7121 172.567 16.2516 173.531Z" fill="#407BFF"/>
<path d="M16.532 173.992C16.5673 174 16.6047 174 16.6399 173.992C16.6802 173.996 16.7209 173.991 16.7585 173.98C16.7962 173.969 16.8295 173.951 16.8557 173.928C16.9312 173.863 18.7654 172.17 18.4957 171.125C18.4601 170.991 18.3843 170.866 18.2739 170.757C18.1636 170.649 18.0217 170.562 17.8591 170.501C17.6933 170.423 17.4981 170.388 17.3033 170.401C17.1085 170.414 16.9247 170.475 16.7802 170.574C15.9602 171.149 15.9926 173.093 16.4781 173.895C16.4852 173.93 16.5038 173.964 16.532 173.992ZM17.7296 170.89C17.8077 170.929 17.8746 170.979 17.9265 171.037C17.9784 171.096 18.0141 171.161 18.0317 171.23C18.1936 171.846 17.3196 172.907 16.7478 173.49C16.4457 172.68 16.5428 171.238 17.0715 170.866C17.1794 170.793 17.3304 170.72 17.6433 170.866L17.7296 170.89Z" fill="#407BFF"/>
<path d="M88.4102 189.999L78.9695 191.417L77.2217 172.438L86.8134 172.664L88.4102 189.999Z" fill="#FF8B7B"/>
<path d="M77.6856 188.824L88.4749 185.414C88.5632 185.381 88.6593 185.362 88.7575 185.358C88.8557 185.354 88.9541 185.365 89.0467 185.39C89.1393 185.415 89.2243 185.453 89.2966 185.503C89.3689 185.554 89.427 185.614 89.4675 185.681L93.589 191.903C93.7776 192.239 93.7826 192.618 93.6031 192.957C93.4235 193.297 93.0736 193.569 92.6288 193.717C88.8525 194.859 86.9752 195.256 82.2387 196.763C79.3256 197.686 71.4494 200.359 67.2416 201.145C63.0338 201.931 62.0843 198.764 63.789 198.148C67.8242 196.69 74.5136 192.243 76.3154 189.788C76.6223 189.365 77.1028 189.027 77.6856 188.824Z" fill="#263238"/>
<path d="M74.9993 191.158C75.8494 190.866 76.6559 190.508 77.4053 190.089C77.4425 190.067 77.4712 190.038 77.4883 190.005C77.5054 189.973 77.5103 189.937 77.5024 189.902C77.4898 189.868 77.465 189.837 77.4308 189.813C77.3966 189.789 77.3542 189.772 77.3082 189.765C76.9198 189.7 73.4241 189.173 72.4423 189.886C72.3304 189.967 72.2487 190.069 72.2051 190.181C72.1616 190.294 72.1578 190.412 72.1941 190.526C72.2183 190.701 72.3039 190.869 72.4423 191.011C72.5806 191.153 72.7668 191.265 72.9817 191.336C73.6604 191.466 74.3794 191.403 74.9993 191.158ZM76.6501 190.04C75.0856 190.85 73.8017 191.198 73.1651 191.012C73.0231 190.963 72.9017 190.886 72.8142 190.789C72.7267 190.692 72.6764 190.578 72.6688 190.461C72.648 190.406 72.647 190.348 72.666 190.292C72.6849 190.237 72.7231 190.186 72.7767 190.145C73.3054 189.765 75.2475 189.862 76.6501 190.04Z" fill="#407BFF"/>
<path d="M77.3512 190.113C77.3879 190.098 77.4208 190.079 77.4483 190.056C77.4662 190.03 77.4756 190 77.4756 189.971C77.4756 189.941 77.4662 189.912 77.4483 189.886C77.4483 189.797 76.4556 187.658 75.0962 187.261C74.9214 187.209 74.7326 187.188 74.5451 187.201C74.3577 187.214 74.1768 187.259 74.0173 187.334C73.828 187.398 73.6734 187.508 73.5791 187.646C73.4849 187.785 73.4567 187.943 73.4994 188.096C73.7151 188.906 75.9917 189.999 77.1893 190.121C77.2426 190.134 77.3007 190.131 77.3512 190.113ZM74.4057 187.61C74.4945 187.581 74.5898 187.567 74.6862 187.567C74.7825 187.567 74.8779 187.581 74.9667 187.61C75.7759 187.844 76.5204 189.003 76.8872 189.7C75.8083 189.432 74.1575 188.598 74.0173 188.031C74.0173 187.925 74.0172 187.788 74.3086 187.658L74.4057 187.61Z" fill="#407BFF"/>
<path opacity="0.2" d="M86.8241 172.672L77.2217 172.438L78.1388 182.352L87.6981 182.223L86.8241 172.672Z" fill="black"/>
<path d="M134.643 95.2969C134.643 95.2969 64.5121 100.279 67.0368 116.131C70.7267 138.999 73.424 179.039 73.424 179.039L91.3019 179.566C91.3019 179.566 98.0128 144.361 94.0855 120.943C112.244 120.943 151.69 121.664 158.627 114.616C166.859 106.257 163.051 95.2969 163.051 95.2969H134.643Z" fill="#263238"/>
<path d="M93.2762 180.392L71.8163 179.59L71.0503 172.583L94.5817 173.798L93.2762 180.392Z" fill="#407BFF"/>
<path d="M119.073 48.8732C118.922 50.3232 118.75 51.6111 118.512 52.9639C118.275 54.3167 118.048 55.6371 117.768 56.9736C117.25 59.6387 116.538 62.2875 115.739 64.9526C114.941 67.6176 113.959 70.2746 112.729 72.9558C111.48 75.7765 109.842 78.4914 107.842 81.0563C106.647 82.5653 105.196 83.9513 103.526 85.1794C103.084 85.4899 102.619 85.7819 102.134 86.0543C101.692 86.3297 101.249 86.5646 100.796 86.7995C99.9336 87.2564 99.0366 87.6756 98.1098 88.0551C94.6883 89.4526 91.0694 90.5584 87.3205 91.352C85.5402 91.7651 83.7492 92.0972 81.9258 92.3969C80.1024 92.6966 78.3654 92.9558 76.5312 93.1665C72.9607 93.6051 69.3573 93.8756 65.7419 93.9765C64.8505 94.0048 63.9757 93.7897 63.2794 93.371C62.583 92.9523 62.1123 92.3584 61.9543 91.6992C61.7963 91.0399 61.9618 90.3601 62.4202 89.7854C62.8785 89.2108 63.5986 88.7802 64.4471 88.5735L64.5874 88.533C70.9144 87.0303 77.1213 85.2561 83.1774 83.2191C85.962 82.2729 88.6271 81.1396 91.1399 79.8331C91.7117 79.5253 92.2188 79.2094 92.7367 78.8935C92.9741 78.7396 93.2222 78.5857 93.4272 78.4236C93.6184 78.2946 93.7986 78.1566 93.9667 78.0105C94.683 77.3603 95.2983 76.651 95.8009 75.8963C97.11 73.8999 98.1614 71.814 98.9405 69.6671C99.8145 67.3908 100.57 65.0174 101.196 62.6035C101.821 60.1895 102.382 57.7432 102.911 55.2644C103.44 52.7857 103.839 50.2584 104.206 47.9092V47.7715C104.476 46.351 105.466 45.0638 106.971 44.1785C108.475 43.2933 110.376 42.8784 112.278 43.0206C114.18 43.1627 115.935 43.8509 117.177 44.9414C118.419 46.032 119.052 47.4406 118.944 48.8732H119.073Z" fill="#407BFF"/>
<path d="M66.0983 87.1152L60.7036 87.3663L65.0193 94.8187C65.0193 94.8187 74.3521 94.6648 74.1578 91.2141L72.4747 89.594C71.7044 88.8669 70.7382 88.2702 69.6393 87.843C68.5404 87.4158 67.3337 87.1678 66.0983 87.1152Z" fill="#FF8B7B"/>
<path d="M54.791 87.9823L59.452 94.8352H65.0085L60.6928 87.3828L54.791 87.9823Z" fill="#FF8B7B"/>
<path d="M118.296 37.3865L128.73 35.7664L137.037 34.8673C138.225 34.7216 139.43 34.6808 140.63 34.7458C143.818 34.9628 146.843 35.9051 149.299 37.4466C151.755 38.9881 153.526 41.0555 154.376 43.3727C156.458 49.0431 158.336 56.0013 159.77 62.1658C161.777 70.728 162.813 83.5915 163.007 95.2885H113.581C112.503 74.1059 106.504 60.4566 104.465 51.9916C103.85 49.4361 104.372 46.7998 105.949 44.4886C107.526 42.1775 110.072 40.3196 113.193 39.201L118.296 37.3865Z" fill="#407BFF"/>
<path d="M113.582 42.0443C113.7 45.5275 114.66 57.9455 119.634 65.001C120.508 58.3911 130.963 38.2695 130.963 38.2695L113.582 42.0443Z" fill="#F5F5F5"/>
<path opacity="0.3" d="M160.904 67.9817C160.904 67.8521 160.904 67.7306 160.839 67.5928L160.742 67.0096C160.688 66.6937 160.634 66.3778 160.58 66.0781L160.418 65.2113L160.256 64.4013C160.256 64.1745 160.159 63.9395 160.116 63.7208C160.008 63.2024 159.9 62.7002 159.781 62.2061C159.425 60.6913 159.048 59.1198 158.638 57.5402V57.4106C158.228 55.7905 157.807 54.2271 157.354 52.6475V52.5422C157.17 51.8618 156.976 51.1975 156.771 50.5252L156.545 49.78L156.156 48.492L155.833 47.4875L155.768 47.2769C155.336 45.9485 154.894 44.6443 154.441 43.413L146.942 40.4482C147.805 42.9351 148.625 45.673 149.402 48.4758C148.505 48.8284 147.677 49.2727 146.942 49.7962C145.151 50.995 145.216 53.5467 147.007 56.5681C151.965 65.208 154.71 74.4718 155.099 83.8748C155.325 87.6901 155.466 91.554 155.53 95.3045H163.083C162.867 86.0133 162.177 76.0011 160.904 67.9817Z" fill="black"/>
<path d="M124.846 21.7773L120.605 26.6376L114.844 33.2395C115.585 33.8066 116.188 34.4675 116.624 35.1917C117.703 36.8118 118.545 37.9782 114.089 40.2545C113.139 40.7405 113.107 41.51 113.323 42.3606C113.582 43.3974 114.402 44.4829 119.192 43.843C123.822 43.1743 128.047 41.4151 131.254 38.8207C132.851 37.6137 132.484 36.7146 130.942 35.4671C126.583 31.9434 125.277 26.3136 124.846 21.7773Z" fill="#FF8B7B"/>
<path d="M114.661 43.9645L117.714 45.4064L122.677 43.8268C121.507 42.9401 119.999 42.3485 118.361 42.1338C116.935 42.4891 115.658 43.1205 114.661 43.9645Z" fill="#263238"/>
<path d="M118.308 42.134C120.584 42.8387 121.728 44.4264 122.764 46.2571C122.764 46.2571 133.672 40.0522 133.898 35.9614C133.316 34.5682 130.586 34.8112 130.586 34.8112C130.586 34.8112 127.263 39.1368 118.308 42.134Z" fill="white"/>
<path d="M118.308 42.1332C117.244 42.4563 116.34 43.0197 115.722 43.7453C115.103 44.4709 114.8 45.3229 114.855 46.1834C114.855 46.1834 110 41.9064 113.949 38.6743C115.02 38.2523 116.159 37.9338 117.337 37.7266C117.337 37.7266 116.15 39.5087 118.308 42.1332Z" fill="white"/>
<path d="M118.674 44.7334H117.283C116.829 45.3166 116.204 52.9149 115.956 56.957C116.622 59.3169 117.602 61.6207 118.879 63.8343C118.875 63.8612 118.875 63.8884 118.879 63.9153C118.955 64.0449 119.031 64.1664 119.117 64.2879C119.268 64.5309 119.419 64.7739 119.592 65.0007C120.09 62.4914 120.866 60.0176 121.911 57.605C120.487 52.923 118.674 44.7334 118.674 44.7334Z" fill="#263238"/>
<path opacity="0.2" d="M116.268 31.6107L119.807 26.9043C119.872 27.0177 119.958 27.1554 120.045 27.285C120.355 27.8725 120.607 28.4762 120.8 29.0914C121.447 31.1894 119.289 34.1704 116.905 35.5718C116.808 35.4422 116.722 35.3045 116.624 35.1668C116.2 34.4866 115.652 33.8542 114.995 33.2875L114.855 33.2064L116.268 31.6107Z" fill="black"/>
<path d="M99.0271 21.5021C98.1748 18.6264 104.271 14.6491 104.271 14.6491L97.0527 12.7617C93.7943 14.5195 95.909 19.5337 99.0271 21.5021Z" fill="#263238"/>
<path d="M123.346 13.1907C125.051 20.3839 126.583 24.5314 122.979 29.1243C121.85 30.6324 120.193 31.88 118.187 32.7319C116.182 33.5838 113.904 34.0077 111.6 33.9576C109.297 33.9076 107.056 33.3855 105.119 32.4479C103.182 31.5103 101.624 30.1929 100.613 28.6383C96.567 22.7088 94.4631 11.9514 102.695 7.2288C104.44 6.1728 106.523 5.47961 108.737 5.21868C110.951 4.95776 113.217 5.13826 115.309 5.74212C117.4 6.34597 119.244 7.35195 120.655 8.65926C122.065 9.96656 122.993 11.5293 123.346 13.1907Z" fill="#FF8B7B"/>
<path d="M123.476 20.4648L118.944 19.5333V15.159C118.944 15.159 113.215 12.7289 114.1 9.6912C114.539 7.98342 115.155 6.30417 115.945 4.66893C115.945 4.66893 125.029 4.2315 127.813 5.10635C127.092 5.69285 126.309 6.23464 125.472 6.72644C127.65 7.85791 129.518 9.29348 130.974 10.9549C129.837 11.1452 128.773 11.5305 127.867 12.0808C127.867 12.0808 129.054 18.0833 123.476 20.4648Z" fill="#263238"/>
<path d="M113.053 0.00311669C116.387 1.5746 114.456 4.45836 114.456 4.45836L123.379 4.59607C122.904 2.48185 115.168 -0.102189 113.053 0.00311669Z" fill="#263238"/>
<path d="M116.538 11.1656C115.901 12.5103 108.672 14.1628 102.08 14.3248C98.7944 14.2713 95.5428 13.8115 92.4561 12.9639C93.3868 12.2462 94.4836 11.6616 95.6929 11.2385C91.7117 10.5014 86.6731 7.87683 85.2812 5.73831C88.1881 4.95833 91.3283 4.80677 94.3443 5.30089C93.3572 4.67534 92.5463 3.90823 91.959 3.04446C91.3717 2.1807 91.0198 1.23764 90.924 0.270508C90.924 0.270508 107.799 5.29279 114.294 3.21097C121.35 0.942843 126.712 5.19558 122.073 8.43576C117.433 11.6759 116.538 11.1656 116.538 11.1656Z" fill="#263238"/>
<path d="M128.503 18.3988C128.595 19.9853 127.908 21.5418 126.572 22.773C124.824 24.3364 122.105 23.0889 121.479 21.1529C120.918 19.3951 121.652 16.6815 123.95 15.839C126.248 14.9966 128.385 16.4304 128.503 18.3988Z" fill="#FF8B7B"/>
<path d="M108.759 19.882C108.996 20.449 108.759 21.008 108.327 21.1457C107.896 21.2834 107.248 20.927 107 20.3356C106.752 19.7443 107 19.2097 107.432 19.072C107.863 18.9343 108.511 19.2826 108.759 19.882Z" fill="#263238"/>
<path d="M100.397 22.1493C100.635 22.7082 100.397 23.2753 99.9658 23.4049C99.5342 23.5345 98.8868 23.1943 98.6387 22.5948C98.3905 21.9954 98.6387 21.4689 99.0703 21.3393C99.5018 21.2097 100.149 21.5823 100.397 22.1493Z" fill="#263238"/>
<path d="M103.256 21.8496C103.291 23.526 103.03 25.1985 102.479 26.8233C103.027 26.9107 103.594 26.906 104.138 26.8093C104.683 26.7127 105.193 26.5265 105.63 26.2644L103.256 21.8496Z" fill="#A02724"/>
<path d="M108.371 28.4276C109.237 28.2095 110.037 27.8635 110.722 27.41C111.408 26.9565 111.965 26.4046 112.363 25.7868C112.384 25.7438 112.383 25.6961 112.359 25.6539C112.335 25.6116 112.29 25.578 112.233 25.56C112.206 25.5506 112.176 25.5455 112.146 25.545C112.115 25.5444 112.085 25.5484 112.057 25.5567C112.029 25.565 112.003 25.5775 111.982 25.5933C111.96 25.6092 111.943 25.6282 111.931 25.6491C111.493 26.319 110.856 26.9042 110.068 27.3594C109.28 27.8145 108.364 28.1273 107.389 28.2736C107.359 28.2784 107.33 28.2877 107.305 28.301C107.28 28.3143 107.258 28.3313 107.242 28.351C107.226 28.3707 107.215 28.3927 107.211 28.4156C107.206 28.4385 107.208 28.4619 107.216 28.4843C107.229 28.5283 107.265 28.5667 107.315 28.591C107.366 28.6153 107.427 28.6235 107.486 28.6139C107.786 28.5663 108.081 28.504 108.371 28.4276Z" fill="#263238"/>
<path d="M110.615 16.5609C110.681 16.5312 110.737 16.4894 110.777 16.4394C110.811 16.4018 110.834 16.3595 110.846 16.3149C110.858 16.2704 110.858 16.2245 110.846 16.1799C110.834 16.1353 110.81 16.0931 110.776 16.0555C110.742 16.018 110.698 15.986 110.647 15.9615C110.041 15.6567 109.344 15.4679 108.618 15.4115C107.892 15.355 107.159 15.4326 106.482 15.6374C106.427 15.6571 106.378 15.6848 106.337 15.7188C106.296 15.7529 106.264 15.7927 106.243 15.8359C106.223 15.8792 106.214 15.9251 106.217 15.9709C106.22 16.0168 106.235 16.0617 106.261 16.1032C106.287 16.1447 106.324 16.1819 106.37 16.2127C106.415 16.2435 106.468 16.2673 106.526 16.2827C106.583 16.2981 106.644 16.3049 106.705 16.3026C106.766 16.3003 106.826 16.289 106.882 16.2693C107.411 16.1152 107.981 16.0597 108.545 16.1077C109.109 16.1556 109.649 16.3056 110.118 16.5447C110.191 16.5824 110.276 16.604 110.363 16.6069C110.451 16.6097 110.538 16.5938 110.615 16.5609Z" fill="#263238"/>
<path d="M98.7359 18.7392C98.7566 18.6835 98.7566 18.6247 98.7359 18.5691C98.6882 18.4845 98.598 18.4175 98.4848 18.3826C98.3717 18.3477 98.2447 18.3477 98.1316 18.3828C97.4522 18.5808 96.8485 18.9019 96.3741 19.3174C95.8998 19.7328 95.5695 20.2299 95.4127 20.7643C95.4099 20.8482 95.4476 20.9301 95.5188 20.9948C95.59 21.0596 95.6899 21.1028 95.8003 21.1166C95.9106 21.1304 96.0238 21.1139 96.1191 21.07C96.2145 21.0261 96.2854 20.9578 96.319 20.8777C96.4534 20.461 96.7198 20.0748 97.0954 19.7518C97.4711 19.4289 97.945 19.1788 98.4769 19.0227C98.549 18.9963 98.6108 18.9563 98.6562 18.9066C98.7016 18.8569 98.729 18.7992 98.7359 18.7392Z" fill="#263238"/>
<path d="M152.078 39.8899C153.265 40.9916 154.3 41.988 155.315 43.0491C156.329 44.1103 157.386 45.1633 158.379 46.2407C160.396 48.3873 162.274 50.6149 164.108 52.8831C165.942 55.1512 167.647 57.5165 169.179 60.0196C170.842 62.6163 172.161 65.3295 173.117 68.12C173.654 69.7423 173.936 71.406 173.959 73.0775C173.932 74.7487 173.613 76.41 173.009 78.0188C171.935 80.8196 170.367 83.5002 168.348 85.9896C167.42 87.1804 166.417 88.3225 165.37 89.4242C164.324 90.5259 163.212 91.5951 162.133 92.6239C159.881 94.6926 157.433 96.6363 154.808 98.44C154.151 98.8795 153.306 99.129 152.427 99.1435C151.547 99.158 150.689 98.9366 150.007 98.5192C149.325 98.1017 148.863 97.5155 148.705 96.8656C148.547 96.2157 148.702 95.5447 149.143 94.973L149.24 94.8515C152.591 90.7703 155.52 86.5024 158.001 82.0852C159.115 80.0944 159.925 78.0156 160.418 75.8883C160.599 75.034 160.646 74.1668 160.558 73.3043C160.428 72.4507 160.182 71.6093 159.825 70.7932C158.891 68.7219 157.718 66.7161 156.318 64.7988C154.883 62.7656 153.265 60.7486 151.538 58.6992C149.812 56.6498 148 54.649 146.144 52.6806L143.306 49.7158C142.357 48.7518 141.364 47.7231 140.469 46.8401L140.404 46.7753C139.188 45.6174 138.634 44.1441 138.865 42.6797C139.095 41.2152 140.091 39.8795 141.634 38.9665C143.176 38.0534 145.138 37.6378 147.089 37.811C149.04 37.9841 150.819 38.732 152.035 39.8899H152.078Z" fill="#407BFF"/>
<path d="M49.2775 99.6466L141.073 96.5279C141.362 96.5136 141.653 96.5434 141.927 96.6154C142.201 96.6873 142.452 96.8 142.667 96.9468C142.881 97.0935 143.054 97.2712 143.175 97.4692C143.296 97.6673 143.363 97.8816 143.371 98.0994L47.1844 101.34C47.1713 101.125 47.2154 100.91 47.314 100.708C47.4126 100.506 47.5636 100.321 47.7585 100.164C47.9533 100.006 48.1879 99.8793 48.4487 99.7905C48.7095 99.7017 48.9912 99.6528 49.2775 99.6466Z" fill="#407BFF"/>
<g opacity="0.6">
<path d="M49.2775 99.6466L141.073 96.5279C141.362 96.5136 141.653 96.5434 141.927 96.6154C142.201 96.6873 142.452 96.8 142.667 96.9468C142.881 97.0935 143.054 97.2712 143.175 97.4692C143.296 97.6673 143.363 97.8816 143.371 98.0994L47.1844 101.34C47.1713 101.125 47.2154 100.91 47.314 100.708C47.4126 100.506 47.5636 100.321 47.7585 100.164C47.9533 100.006 48.1879 99.8793 48.4487 99.7905C48.7095 99.7017 48.9912 99.6528 49.2775 99.6466Z" fill="white"/>
</g>
<path d="M34.6688 67.6746L99.9764 65.4551C100.395 65.4593 100.802 65.5603 101.142 65.7444C101.482 65.9285 101.738 66.1867 101.875 66.4838L114.412 96.3502C114.48 96.4736 114.506 96.6075 114.488 96.7402C114.47 96.8729 114.408 97.0001 114.309 97.1107C114.21 97.2213 114.076 97.3118 113.919 97.3741C113.762 97.4365 113.587 97.4687 113.409 97.4681L48.1014 99.6876C47.6849 99.6846 47.2798 99.5849 46.9417 99.4022C46.6036 99.2194 46.3492 98.9626 46.2133 98.6669L33.6762 68.7925C33.609 68.6698 33.583 68.5365 33.6005 68.4045C33.618 68.2725 33.6784 68.1457 33.7764 68.0353C33.8744 67.9249 34.0071 67.8343 34.1627 67.7714C34.3183 67.7085 34.4921 67.6753 34.6688 67.6746Z" fill="#407BFF"/>
<path opacity="0.6" d="M34.6688 67.6746L99.9764 65.4551C100.395 65.4593 100.802 65.5603 101.142 65.7444C101.482 65.9285 101.738 66.1867 101.875 66.4838L114.412 96.3502C114.48 96.4736 114.506 96.6075 114.488 96.7402C114.47 96.8729 114.408 97.0001 114.309 97.1107C114.21 97.2213 114.076 97.3118 113.919 97.3741C113.762 97.4365 113.587 97.4687 113.409 97.4681L48.1014 99.6876C47.6849 99.6846 47.2798 99.5849 46.9417 99.4022C46.6036 99.2194 46.3492 98.9626 46.2133 98.6669L33.6762 68.7925C33.609 68.6698 33.583 68.5365 33.6005 68.4045C33.618 68.2725 33.6784 68.1457 33.7764 68.0353C33.8744 67.9249 34.0071 67.8343 34.1627 67.7714C34.3183 67.7085 34.4921 67.6753 34.6688 67.6746Z" fill="white"/>
<path opacity="0.5" d="M101.897 66.475L114.434 96.3414C114.504 96.4651 114.532 96.6 114.515 96.7338C114.498 96.8676 114.437 96.9961 114.337 97.1078C114.238 97.2195 114.103 97.3108 113.945 97.3736C113.786 97.4364 113.61 97.4686 113.431 97.4674L99.998 65.4463C100.417 65.4505 100.824 65.5516 101.164 65.7356C101.504 65.9197 101.76 66.1779 101.897 66.475Z" fill="#407BFF"/>
<path opacity="0.5" d="M116.937 97.3467L141.073 96.5367C141.362 96.5224 141.653 96.5522 141.927 96.6241C142.201 96.6961 142.452 96.8088 142.667 96.9555C142.881 97.1022 143.054 97.2799 143.175 97.478C143.296 97.676 143.363 97.8904 143.371 98.1082L114.844 99.0721C114.825 98.8547 114.865 98.6367 114.96 98.431C115.056 98.2254 115.206 98.0364 115.402 97.8753C115.597 97.7142 115.834 97.5844 116.098 97.4935C116.362 97.4027 116.647 97.3528 116.937 97.3467Z" fill="#407BFF"/>
<path d="M147.428 94.6329L141.256 95.3052L147.579 101.907C147.579 101.907 157.624 100.7 156.458 97.3547L154.301 96.01C153.347 95.4324 152.243 95.0114 151.059 94.7742C149.875 94.537 148.638 94.4889 147.428 94.6329Z" fill="#FF8B7B"/>
<path d="M133.704 97.2812L141.44 102.344L147.579 101.907L141.256 95.3047L133.704 97.2812Z" fill="#FF8B7B"/>
</svg>
