<svg width="420" height="240" fill="none" xmlns="http://www.w3.org/2000/svg"><path d="M419.5 239.84c0 .086-93.804.16-209.491.16C94.323 240 .5 239.926.5 239.84c0-.086 93.786-.16 209.509-.16 115.723 0 209.491.074 209.491.16Z" fill="#263238"/><path d="M33.206 169.469c.166-.517 19.34-63.174 19.34-63.174l-.48-7.782 5.016-8.255 6.227 2.061-.85 9.227-4.43 6.73-19.285 62.995-5.538-1.802Z" fill="#E0E0E0"/><path d="m33.206 169.469.37.105 1.064.332 4.104 1.285-.068.037c3.12-10.217 10.332-33.863 19.218-62.977l4.424-6.723v.067l.85-9.227.11.166-.517-.166-5.71-1.888.185-.068-5.015 8.255v-.092c.16 2.653.317 5.247.473 7.781v.056c-5.606 18.202-10.46 33.967-13.913 45.187-1.735 5.617-3.126 10.089-4.08 13.17-.474 1.538-.849 2.725-1.101 3.537l-.29.917-.104.314c.02-.102.048-.203.08-.302.062-.215.148-.516.265-.904.246-.812.615-1.993 1.058-3.519.93-3.075 2.283-7.553 3.981-13.163 3.434-11.257 8.246-27.066 13.809-45.33v.056c-.16-2.535-.322-5.128-.486-7.782v-.092l5.015-8.255.061-.11.123.042 5.717 1.883.51.172.124.037v.129c-.29 3.168-.578 6.299-.855 9.227v.074l-4.425 6.729v-.043c-8.978 29.053-16.251 52.668-19.402 62.885v.056h-.055l-4.11-1.36-1.04-.35-.37-.148Z" fill="#263238"/><path d="M28.585 172.502 19.97 184.14 7.928 227.814s-1.73 8.907 8.11 11.436c11.076 2.842 13.6-5.623 13.6-5.623l11.69-42.647-.122-14.788 2.886-3.254a1.228 1.228 0 0 0-.523-1.962l-13.833-4.564a1.234 1.234 0 0 0-1.497.686 1.23 1.23 0 0 0-.097.587l.443 4.817Z" fill="#C53F3F"/><path d="M41.28 176.703c-.031.086-2.93-.757-6.474-1.882-3.544-1.126-6.406-2.11-6.375-2.196.03-.086 2.923.762 6.473 1.888 3.551 1.126 6.4 2.104 6.375 2.19ZM41.354 190.986a4.125 4.125 0 0 1-.862-.147 69.262 69.262 0 0 1-2.32-.554 123.23 123.23 0 0 1-7.562-2.165 134.828 134.828 0 0 1-7.428-2.615 86.938 86.938 0 0 1-2.209-.898 4.343 4.343 0 0 1-.787-.375c.286.059.567.145.836.258l2.24.8c1.896.677 4.517 1.593 7.44 2.522 2.923.929 5.593 1.71 7.526 2.258l2.295.646c.285.064.563.155.83.27Z" fill="#263238"/><path d="m25.157 188.77-.301-.088a2.03 2.03 0 0 0-2.518 1.381l-10.66 36.548a2.03 2.03 0 0 0 1.38 2.518l.302.088a2.03 2.03 0 0 0 2.518-1.381l10.66-36.548a2.03 2.03 0 0 0-1.381-2.518ZM31.33 190.771l-.301-.087a2.03 2.03 0 0 0-2.518 1.38l-10.66 36.549a2.03 2.03 0 0 0 1.38 2.517l.302.088a2.03 2.03 0 0 0 2.518-1.38l10.66-36.549a2.031 2.031 0 0 0-1.381-2.518ZM36.9 192.613l-.301-.089a2.03 2.03 0 0 0-2.524 1.37L23.27 230.399a2.03 2.03 0 0 0 1.37 2.523l.301.089a2.03 2.03 0 0 0 2.524-1.37l10.806-36.505a2.03 2.03 0 0 0-1.37-2.523Z" fill="#000" opacity=".3"/><path d="M57.986 108.282a12.78 12.78 0 0 1-2.745-.781 12.3 12.3 0 0 1-2.634-1.083 13.36 13.36 0 0 1 2.739.781c.918.259 1.804.623 2.64 1.083ZM63.321 92.32a4.996 4.996 0 0 1-.215.86c-.179.615-.413 1.39-.702 2.35l-2.461 7.997-.05.154-.153-.05-2.837-.99-2.917-1.021-.141-.049.043-.142c.886-3.162 1.667-5.936 2.246-7.996.283-.954.51-1.741.689-2.332.072-.286.167-.565.283-.837a4.993 4.993 0 0 1-.178.868l-.616 2.356c-.547 2.048-1.286 4.829-2.135 7.997l-.098-.191L57 102.315l2.831.99-.203.105 2.585-7.941c.32-.954.615-1.729.787-2.32.083-.285.19-.563.32-.83ZM376.168 68.212c4.166-5.02 8.332-10.088 11.581-15.747 3.249-5.66 5.538-11.983 5.704-18.504 0-.99-.4-7.849-1.354-8.125-.676-.197-1.144 5.862-1.698 6.299-5.317 4.158-8.769 10.328-10.756 16.774a88.463 88.463 0 0 0-3.477 19.303Z" fill="#263238"/><path d="M321.899 106.363c1.662-4.306 9.846-25.836 9.803-25.836-.043 0-14.098-7.332-9.23-22.268 2.338-7.215 8.362-21.677 13.962-34.706a29.258 29.258 0 0 1 14.963-15.15 29.27 29.27 0 0 1 21.275-.997l1.434.486c15.175 6.151 18.461 22.434 11.895 37.425l-30.152 69.817-26.424-8.162-7.526-.609Z" fill="#FFBF9D"/><path d="M331.708 80.54s9.187 3.69 21.297.811c0 0-8.381 9.467-22.768 3.119l1.471-3.93Z" fill="#FF9A6C"/><path d="M336.41 37.929a2.244 2.244 0 0 0 1.323 2.836 2.15 2.15 0 0 0 2.836-1.175 2.237 2.237 0 0 0-1.323-2.836 2.135 2.135 0 0 0-2.371.463c-.201.204-.36.446-.465.712ZM337.505 30.812c.172.37 2.184-.283 4.467.498 2.283.782 3.576 2.46 3.914 2.289.166-.08.068-.671-.486-1.452a6.118 6.118 0 0 0-3.015-2.172 5.885 5.885 0 0 0-3.692-.049c-.887.302-1.274.72-1.188.886ZM356.464 45.993a2.23 2.23 0 0 0 1.323 2.83 2.143 2.143 0 0 0 2.837-1.175 2.249 2.249 0 0 0-1.323-2.836 2.152 2.152 0 0 0-2.372.47 2.146 2.146 0 0 0-.465.712ZM359.589 39.295c.167.369 2.185-.277 4.468.498s3.569 2.46 3.914 2.294c.16-.086.067-.676-.487-1.451a6.148 6.148 0 0 0-3.021-2.178 5.865 5.865 0 0 0-3.692-.05c-.862.302-1.268.72-1.182.887ZM345.455 54.089c.056-.124-1.286-.85-3.489-1.92-.56-.258-1.077-.56-1.04-.996.037-.437.462-1.015.973-1.593l3.23-3.863c4.535-5.537 8.031-10.132 7.803-10.316-.228-.185-4.08 4.146-8.615 9.663-1.102 1.366-2.16 2.664-3.163 3.913-.443.615-1.077 1.23-1.077 2.19a1.555 1.555 0 0 0 .671 1.175c.295.195.614.354.948.473 2.264.904 3.704 1.403 3.759 1.274ZM351.652 57.94c-.369-.142-1.231 2.337-3.926 3.376-2.695 1.04-5.274-.117-5.409.222-.086.141.431.676 1.532 1.089a6.57 6.57 0 0 0 4.468-.044 5.694 5.694 0 0 0 3.132-2.884c.443-.997.375-1.717.203-1.76ZM362.845 30.068c0 .695 2.4 1.174 4.972 2.399 2.572 1.224 4.498 2.694 5.04 2.257.246-.215.067-.929-.616-1.845a9.567 9.567 0 0 0-7.624-3.55c-1.108.087-1.766.412-1.772.739ZM341.018 23.535c.228.658 1.981.615 3.883 1.23 1.901.615 3.384 1.532 3.932 1.113.252-.209.178-.812-.357-1.544a5.926 5.926 0 0 0-6.301-1.913c-.849.339-1.249.8-1.157 1.114Z" fill="#263238"/><path d="M381.041 55.934c.296 0 11.243.424 7.489 10.457-3.754 10.033-13.088 4.214-12.996 3.918.092-.295 5.507-14.375 5.507-14.375Z" fill="#FFBF9D"/><path d="M380.032 67.67c.055 0 .129.191.375.437.348.336.815.522 1.298.517 1.231 0 2.733-1.347 3.459-3.143.35-.853.503-1.774.449-2.694a2.136 2.136 0 0 0-.819-1.846.946.946 0 0 0-1.23.092c-.24.234-.253.456-.308.456-.055 0-.154-.253.08-.616.147-.224.363-.395.615-.485a1.423 1.423 0 0 1 1.065.104 2.636 2.636 0 0 1 1.231 2.245 6.428 6.428 0 0 1-.443 3.033c-.825 2-2.566 3.512-4.179 3.39a2.034 2.034 0 0 1-1.507-.868c-.16-.363-.129-.615-.086-.621Z" fill="#FF9A6C"/><path d="M349.277 9.448c-1.28-1.513 5.606-4.92 10.289-5.18 7.076-.417 16.928 1.428 21.875 5.137 5.969 4.46 10.246 9.922 11.268 17.298 1.021 7.375-.437 14.954-3.299 21.83-.874 2.099-1.944 4.22-3.766 5.58-2.246 1.68-5.47 2.042-6.529 5.149a4.49 4.49 0 0 1-2.215 2.657c-2.584 1.23-4.123-1.445-4.449-3.69-.695-4.774.855-9.554 2.388-14.149 1.089-3.248 2.215-6.563 4.307-9.288 1.132-1.483 2.523-2.756 3.575-4.306 1.053-1.55 1.736-3.488 1.231-5.278a6.305 6.305 0 0 0-.498-1.138 11.203 11.203 0 0 0-9.612-5.954c-6.418-.166-17.23-.886-18.984-3.765-2.566-4.146-2.744-6.274-2.744-6.274l-2.837 1.371Z" fill="#263238"/><path d="M382.727 3.266c.646.326 15.766 9.664 15.667 23.283-.098 13.619-2.59 16.953-2.59 16.953a8.372 8.372 0 0 1 1.23 2.06c.406 1.034-1.914 4.54-3.901 3.372-13.575-12.592-32.282-19.826-53.622-26.451l-16.098-5.764c-4.713-1.027-5.889-2.78-3.587-3.254 1.766-.369 16.387-1.107 16.387-1.107l3.156-.972 9.846-6.957s-.381-1.575 1.619-2.085c1.999-.511 19.18-5.537 31.893.922Z" fill="#C53F3F"/><path d="M339.357 11.41s.216.087.616.222l1.846.578c1.587.474 3.846 1.274 6.627 2.295a132.401 132.401 0 0 1 20.744 10.137 203.056 203.056 0 0 1 19.076 13.078c2.363 1.79 4.239 3.279 5.538 4.306l1.507 1.175c.345.264.536.393.536.393s-.166-.16-.505-.442l-1.47-1.23a263.66 263.66 0 0 0-5.496-4.368A189.054 189.054 0 0 0 369.3 24.39a126.384 126.384 0 0 0-20.848-10.082 95.034 95.034 0 0 0-9.095-2.897Z" fill="#263238"/><path d="M395.244 15.643s-16.689-8.932-25.907-7.85l1.083-.147-8.615.714c-1.458.123-3.126.166-4.122-.899 0 0 5.224-2.214 13.476-2.171 8.252.043 20.362 2.971 24.085 10.353Z" fill="#000" opacity=".3"/><path d="M395.465 15.79a13.402 13.402 0 0 0-1.231-1.58 23.32 23.32 0 0 0-4.049-3.655 27.534 27.534 0 0 0-7.193-3.69 23.188 23.188 0 0 0-9.79-1.36c-1.706.172-3.4.451-5.071.837-1.612.363-3.181.615-4.664 1.045-1.36.451-2.756.785-4.172.997a8.061 8.061 0 0 1-3.655-.486c-4.363-1.433-6.72-3.248-6.425-3.45a.713.713 0 0 0 .228.46c.354.347.751.646 1.181.892a25.353 25.353 0 0 0 4.96 2.283c1.19.46 2.47.64 3.741.529 1.433-.2 2.845-.524 4.222-.966 1.452-.4 3.04-.67 4.652-1.034 1.66-.37 3.341-.64 5.033-.812a23.338 23.338 0 0 1 9.68 1.323 28.17 28.17 0 0 1 7.163 3.599 24.702 24.702 0 0 1 4.079 3.561c.437.474.764.855.973 1.12.209.264.338.387.338.387Z" fill="#263238"/><path d="M398.198 32.177c-3.163-1.113-5.28-2.755-8.191-4.527-3.077-1.882-6.221-3.605-9.23-5.635-2.283-1.537-5.046-3.161-6.061-5.536a3.87 3.87 0 0 0-.056 3.808c.646 1.23 3.385 3.426 4.554 4.22 6.652 4.52 11.273 7.609 18.707 10.752a23.3 23.3 0 0 0 .27-3.075" fill="#000" opacity=".3"/><path d="M398.357 25.042c1.711 1.556 2.739 2.565 2.209 4.306-.437 1.44-1.323 3.076-2.812 2.848a3.638 3.638 0 0 1-1.231-.541l-20.38-11.928a3.375 3.375 0 0 1-1.686-1.624c-.406-1.156.615-2.423 1.791-2.743 1.175-.32 2.43 0 3.599.406 6.634 2.147 12.683 5.444 18.51 9.27" fill="#C53F3F"/><path d="M374.678 18.546a2.257 2.257 0 0 1-.259-1.156 2.896 2.896 0 0 1 1.846-2.46c1.305-.444 3.034-.149 4.732.54 1.699.69 3.612 1.47 5.538 2.363a61.561 61.561 0 0 1 9.582 5.314c1.156.794 2.049 1.495 2.67 1.981l.702.572c.079.07.166.133.258.185 0 0-.068-.086-.221-.228l-.671-.615c-.616-.51-1.471-1.23-2.622-2.06a56.274 56.274 0 0 0-9.581-5.408 108.71 108.71 0 0 0-5.581-2.356c-1.735-.682-3.514-.978-4.923-.48a2.996 2.996 0 0 0-1.883 2.64 1.95 1.95 0 0 0 .191.891c.057.105.132.199.222.277Z" fill="#263238"/><path d="m346.126 6.637 13.851 4.435-2.492 3.476-14.848-5.45 3.489-2.46Z" fill="#fff"/><path d="M362.741 25.983c.031-.074-5.797-3.076-13.027-6.656-7.23-3.58-13.138-6.477-13.138-6.403 0 .074 5.797 3.075 13.027 6.655 7.231 3.58 13.101 6.472 13.138 6.404Z" fill="#263238"/><path d="m366.229 100.611.185-9.092-31.125 11.559s-5.753-18.682-5.753-19.562l-6.898 4.306-11.464-4.92-11.464-5.66-23.187 40.599-24.325 71.687 57.302 38.213 42.496-45.52 25.845-39.369 14.202-24.925-25.814-17.316Z" fill="#C53F3F"/><path d="M332.521 102.942a6.15 6.15 0 0 1-.043-.91c0-.615 0-1.489-.037-2.547l.141.087a39 39 0 0 0-9.371 6.415l-.247.234v-.338c0-.406-.049-.837-.073-1.274-.253-4.459-.462-8.495-.616-11.423l-.147-3.463v-.941a.166.166 0 0 1-.135-.179.17.17 0 0 1 .053-.107.168.168 0 0 1 .112-.043.166.166 0 0 1 .031.33c0 .245.049.559.086.934.062.867.142 2.036.24 3.457.197 2.922.437 6.957.689 11.417 0 .437.05.867.068 1.273l-.264-.11a36.735 36.735 0 0 1 9.501-6.36l.147-.062v.153c0 1.058-.043 1.913-.055 2.547a6.166 6.166 0 0 1-.08.91ZM363.362 101.048a1.775 1.775 0 0 1-.357.191l-1.04.498-3.852 1.765-12.775 5.709-6.067 2.682-.258.11.049-.276c.501-2.884.735-5.808.701-8.735l.142.086-2.874 1.396-.769.357c-.172.08-.265.117-.271.104.076-.061.158-.113.246-.153l.745-.406 2.837-1.477.135-.073v.166a44.634 44.634 0 0 1-.615 8.814l-.209-.166 6.061-2.694 12.811-5.628 3.902-1.673 1.064-.437a1.77 1.77 0 0 1 .394-.16Z" fill="#263238"/><path d="M308.946 55.553H74.558c-4.951 0-8.965 4.012-8.965 8.962V226.75c0 4.95 4.014 8.963 8.965 8.963h234.388c4.952 0 8.966-4.013 8.966-8.963V64.515c0-4.95-4.014-8.962-8.966-8.962Z" fill="#455A64"/><path d="M55.728 224.074H329.1v4.817a10.952 10.952 0 0 1-10.953 10.949H66.682a10.953 10.953 0 0 1-10.954-10.949v-4.817Z" fill="#455A64"/><path d="M310.436 62.713H72.368v152.14h238.068V62.713ZM166.88 222.389l3.39 5.825h47.733l3.151-5.825H166.88Z" fill="#263238"/><path d="M304.005 67.862H79.278c-1.112 0-2.012.9-2.012 2.01V212.35c0 1.111.9 2.011 2.012 2.011h224.727c1.111 0 2.012-.9 2.012-2.011V69.873c0-1.111-.901-2.011-2.012-2.011Z" fill="#EBEBEB"/><path d="M305.778 214.577H77.026l.24-135.766h228.512v135.766Z" fill="#FAFAFA"/><path d="M96.49 73.52a1.883 1.883 0 1 1-1.884-1.974 1.932 1.932 0 0 1 1.883 1.974ZM85.068 73.52a1.883 1.883 0 1 1-1.883-1.974 1.932 1.932 0 0 1 1.883 1.974ZM90.939 73.52a1.882 1.882 0 0 1-3.734.243 1.882 1.882 0 0 1 1.85-2.217 1.933 1.933 0 0 1 1.883 1.974ZM315.746 222.389c0 .098-55.997.172-125.07.172-69.074 0-125.083-.074-125.083-.172 0-.098 55.997-.178 125.083-.178 69.085 0 125.07.08 125.07.178Z" fill="#263238"/><path d="M167.071 104.837a48.812 48.812 0 0 1 11.9-5.167l2.462-11.78 19.9-.35 2.868 11.687a49.008 49.008 0 0 1 12.073 4.749l10.061-6.588 14.319 13.822-6.227 10.291a48.702 48.702 0 0 1 5.169 11.903l11.778 2.46.351 19.894-11.692 2.866a48.713 48.713 0 0 1-4.757 12.032l6.597 10.058-13.827 14.314-10.283-6.232a48.727 48.727 0 0 1-11.907 5.168l-2.461 11.779-19.907.345-2.861-11.688a48.65 48.65 0 0 1-12.043-4.718l-10.061 6.595-14.319-13.823 6.234-10.278a48.74 48.74 0 0 1-5.176-11.903l-11.777-2.461-.351-19.893 11.692-2.867a48.865 48.865 0 0 1 4.75-12.069l-6.59-10.057 13.827-14.314 10.258 6.225Zm10.608 26.506a21.344 21.344 0 0 0-4.218 23.339 21.353 21.353 0 0 0 31.752 9.024 21.345 21.345 0 0 0 2.662-32.892 21.368 21.368 0 0 0-15.212-5.978c-2.804.05-5.57.653-8.141 1.773a21.334 21.334 0 0 0-6.843 4.753v-.019Z" fill="#E0E0E0"/><path d="M246.58 112.446c.273-1.471.738-2.9 1.385-4.25l-2.462-3.322 4.455-5.216 3.692 1.931a16.866 16.866 0 0 1 3.982-2.024l.615-4.103 6.837-.535 1.23 3.955a16.82 16.82 0 0 1 4.253 1.391l3.322-2.46 5.219 4.459-1.933 3.691a16.76 16.76 0 0 1 2.031 3.986l4.098.615.536 6.84-3.957 1.23a16.628 16.628 0 0 1-1.391 4.251l2.462 3.328-4.455 5.21-3.693-1.931a16.76 16.76 0 0 1-3.987 2.029l-.615 4.103-6.837.536-1.231-3.962a16.802 16.802 0 0 1-4.252-1.384l-3.329 2.461-5.206-4.509 1.932-3.691a16.907 16.907 0 0 1-2.03-3.986l-4.098-.615-.536-6.841 3.957-1.23.006.043Zm9.273 2.073a7.379 7.379 0 0 0 4.344 7.439 7.389 7.389 0 0 0 8.438-1.74 7.375 7.375 0 0 0-2.242-11.659 7.382 7.382 0 0 0-10.54 5.96ZM96.723 181.113c.05-1.767.338-3.519.856-5.21l-3.49-3.402 4.271-6.877 4.628 1.6a19.882 19.882 0 0 1 4.307-3.076l-.037-4.89 7.889-1.846 2.135 4.398c1.768.05 3.521.337 5.212.855l3.44-3.487 6.88 4.269-1.6 4.625a19.914 19.914 0 0 1 3.077 4.306l4.892-.037 1.846 7.88-4.406 2.123a19.942 19.942 0 0 1-.862 5.21l3.489 3.432-4.27 6.883-4.628-1.599a19.766 19.766 0 0 1-4.307 3.076l.037 4.89-7.883 1.845-2.141-4.398a19.668 19.668 0 0 1-5.194-.886l-3.434 3.488-6.885-4.269 1.599-4.626a19.912 19.912 0 0 1-3.076-4.305l-4.923.036-1.846-7.879 4.4-2.141.024.012Zm11.403 2.215a8.685 8.685 0 0 0 7.061 6.574 8.696 8.696 0 0 0 8.781-4 8.681 8.681 0 0 0-.329-9.64 8.696 8.696 0 0 0-9.034-3.392 8.683 8.683 0 0 0-6.479 10.476v-.018Z" fill="#E0E0E0"/><path d="M110.882 115.405a12.396 12.396 0 0 1 1.046-3.205l-1.846-2.51 3.36-3.93 2.769 1.457a12.828 12.828 0 0 1 3.003-1.531l.455-3.076 5.157-.406.923 2.984c1.11.206 2.188.558 3.206 1.045l2.511-1.845 3.926 3.359-1.453 2.768a12.5 12.5 0 0 1 1.526 3.001l3.077.449.406 5.155-2.978.898a12.76 12.76 0 0 1-1.04 3.205l1.846 2.504-3.36 3.931-2.769-1.458a12.529 12.529 0 0 1-3.003 1.531l-.449 3.076-5.157.4-.929-2.984a12.451 12.451 0 0 1-3.206-1.045l-2.504 1.845-3.932-3.359 1.452-2.768a12.5 12.5 0 0 1-1.526-3.001l-3.077-.456-.4-5.154 2.984-.923-.018.043Zm6.984 2.504a5.536 5.536 0 0 0 7.022 4.888 5.54 5.54 0 0 0 3.998-4.671 5.534 5.534 0 0 0-2.782-5.482 5.536 5.536 0 0 0-6.925 1.225 5.535 5.535 0 0 0-1.313 4.04ZM246.839 170.92c.178-.953.48-1.88.898-2.755l-1.606-2.153 2.886-3.377 2.382 1.23a10.834 10.834 0 0 1 2.578-1.316l.388-2.658 4.43-.344.794 2.565c.955.175 1.882.477 2.757.898l2.154-1.606 3.378 2.885-1.231 2.375c.553.798.995 1.667 1.317 2.583l2.658.388.345 4.429-2.566.793a10.862 10.862 0 0 1-.898 2.756l1.606 2.153-2.886 3.371-2.376-1.23c-.8.549-1.669.992-2.584 1.316l-.388 2.651-4.43.345-.794-2.559a11.153 11.153 0 0 1-2.757-.898l-2.154 1.605-3.39-2.885 1.231-2.374a10.794 10.794 0 0 1-1.317-2.577l-2.653-.388-.35-4.429 2.566-.794h.012Zm6 2.147a4.762 4.762 0 0 0 3.282 4.167 4.77 4.77 0 0 0 5.714-6.713 4.776 4.776 0 0 0-7.875-.912 4.756 4.756 0 0 0-1.121 3.458Z" fill="#EBEBEB"/><path d="M192.417 177.595h-30.602a10.281 10.281 0 0 1-8.871-5.132 10.28 10.28 0 0 1-1.38-5.121 10.279 10.279 0 0 1 1.36-5.126l15.31-26.506 15.303-26.506a10.282 10.282 0 0 1 14.029-3.754c1.562.9 2.859 2.195 3.761 3.754l15.31 26.506 15.31 26.506a10.272 10.272 0 0 1-8.898 15.379h-30.632Z" fill="#C53F3F"/><path d="M225.375 165.255s.079.154.233.474a4.202 4.202 0 0 1-.406 3.949 4.124 4.124 0 0 1-1.151 1.144 3.754 3.754 0 0 1-1.759.579c-5.219.055-12.751.043-22.067.067l-32.724.037h-4.677a4.028 4.028 0 0 1-3.772-2.731 4.392 4.392 0 0 1-.154-2.461c.049-.203.117-.406.185-.615.067-.209.178-.387.27-.572l.616-1.076c.787-1.446 1.587-2.898 2.387-4.368l9.92-18.201 9.981-18.19c1.604-2.94 3.183-5.825 4.738-8.655.394-.701.757-1.409 1.175-2.104a4.74 4.74 0 0 1 1.723-1.71 5.065 5.065 0 0 1 4.628-.209 4.86 4.86 0 0 1 1.846 1.464c.42.638.8 1.302 1.138 1.987.72 1.316 1.434 2.614 2.129 3.894a2488.7 2488.7 0 0 1 4.068 7.449 13641.476 13641.476 0 0 1 17.845 32.744l2.855 5.271c.32.615.566 1.058.733 1.378l.246.474s-.099-.154-.271-.461l-.763-1.36-2.911-5.247c-2.51-4.57-6.153-11.165-10.633-19.321l-7.329-13.355-4.086-7.437c-.701-1.279-1.409-2.577-2.135-3.894a19.997 19.997 0 0 0-1.126-1.931 4.575 4.575 0 0 0-1.723-1.372 4.775 4.775 0 0 0-4.357.197 4.496 4.496 0 0 0-1.612 1.612c-.406.67-.775 1.39-1.163 2.091l-4.738 8.655c-3.213 5.881-6.548 11.964-9.957 18.202l-9.962 18.189c-.806 1.47-1.6 2.928-2.394 4.368a9.127 9.127 0 0 0-1.015 2.177 4.086 4.086 0 0 0 .141 2.307 3.689 3.689 0 0 0 3.483 2.528h4.677l32.724.031 22.061.031a3.633 3.633 0 0 0 1.704-.542 4.097 4.097 0 0 0 1.139-1.107c.473-.696.726-1.52.726-2.362a4.652 4.652 0 0 0-.486-2.018Z" fill="#263238"/><path d="M187.457 159.584c0-2.713 2.166-4.737 5.249-4.737 3.083 0 5.2 2.024 5.2 4.737s-2.117 4.829-5.2 4.829-5.249-2.153-5.249-4.829Zm.049-27.786h10.4l-1.748 20.472h-6.947l-1.705-20.472ZM193.882 106.141a8.344 8.344 0 0 0-1.945-.406 6.934 6.934 0 0 0-4.443 1.489 11.007 11.007 0 0 0-2.91 3.764c-.56 1.108-.825 1.846-.874 1.815.017-.182.06-.36.129-.529.154-.471.335-.933.542-1.384a10.362 10.362 0 0 1 2.935-3.925 6.77 6.77 0 0 1 4.652-1.451c.503.037.995.158 1.458.356.302.142.468.253.456.271ZM181.082 117.387a4.22 4.22 0 0 1 .671-1.477c.449-.757.874-1.336.954-1.293a4.183 4.183 0 0 1-.677 1.453c-.228.496-.55.943-.948 1.317Z" fill="#fff"/><path d="m207.776 120.375-47.683 29.367-6.191 10.727 57.24-34.269-3.366-5.825ZM215.283 133.391l-63.203 37.265a6.779 6.779 0 0 0 1.372 2.658l62.945-37.991-1.114-1.932Z" fill="#fff" opacity=".3"/><path d="M371.478 202.889a18.618 18.618 0 0 0-19.476-5.216l-5.889-6.459-.818-.917-46.601-51.111a18.599 18.599 0 0 0-2.292-18.661 18.612 18.612 0 0 0-17.399-7.138l-2.277.904 7.92 5.309-.425 8.643-6.406 5.813-8.645-.425-5.649-6.225-2.332.917c-.671 5.21 2.824 11.779 6.633 15.993a18.614 18.614 0 0 0 19.445 5.222l47.382 51.967 1.453 1.618 4.492 4.921a18.583 18.583 0 0 0 3.316 19.819c3.791 4.183 8.825 6.976 14.061 6.834l2.339-.91-5.655-6.231.424-8.612 6.406-5.813 8.615.418 3.311 7.142 2.338-.917a18.586 18.586 0 0 0-4.271-16.885Z" fill="#E0E0E0"/><path d="M371.478 202.889a18.618 18.618 0 0 0-19.476-5.216l-5.889-6.459-.818-.917-46.601-51.111a18.599 18.599 0 0 0-2.292-18.661 18.612 18.612 0 0 0-17.399-7.138l-2.277.904 7.92 5.309-.425 8.643-6.406 5.813-8.645-.425-5.649-6.225-2.332.917c-.671 5.21 2.824 11.779 6.633 15.993a18.614 18.614 0 0 0 19.445 5.222l47.382 51.967 1.453 1.618 4.492 4.921a18.583 18.583 0 0 0 3.316 19.819c3.791 4.183 8.825 6.976 14.061 6.834l2.339-.91-5.655-6.231.424-8.612 6.406-5.813 8.615.418 3.311 7.142 2.338-.917a18.586 18.586 0 0 0-4.271-16.885Z" fill="#000" opacity=".3"/><path d="M369.14 203.8a18.61 18.61 0 0 0-19.469-5.211l-5.895-6.465-.819-.916-46.6-51.112a18.604 18.604 0 0 0-2.291-18.659 18.616 18.616 0 0 0-17.401-7.133l5.649 6.225-.418 8.612-6.418 5.837-8.615-.418-5.649-6.225a18.594 18.594 0 0 0 14.01 22.542c3.225.722 6.583.572 9.73-.434l47.382 51.966 1.459 1.618 4.492 4.921a18.596 18.596 0 0 0 10.033 24.559 18.615 18.615 0 0 0 9.658 1.209l-5.655-6.237.418-8.612 6.412-5.813 8.615.424 5.649 6.225a18.566 18.566 0 0 0-4.277-16.903Z" fill="#E0E0E0"/><path d="M369.14 203.8s.271.295.781.892c.728.908 1.372 1.88 1.926 2.903a18.608 18.608 0 0 1 1.662 13.108v.123l-.086-.092-5.655-6.219.049.031-8.615-.412h.061l-6.399 5.819v-.068a3143.41 3143.41 0 0 1-.413 8.643v-.08l5.606 6.182.148.16-.215.031a18.682 18.682 0 0 1-16.88-6.342 18.506 18.506 0 0 1-4.245-9.117 18.836 18.836 0 0 1 1.267-10.457v.148l-53.345-58.493.166.043a18.98 18.98 0 0 1-10.399.295 18.764 18.764 0 0 1-13.538-22.594l.074-.295.203.222 5.649 6.225-.111-.05 8.646.419-.117.043 6.449-5.819-.055.11c.141-2.915.283-5.788.424-8.642l.037.11-5.649-6.225-.191-.215.283-.037a18.767 18.767 0 0 1 17.907 7.689 18.653 18.653 0 0 1 3.391 9.061 19.077 19.077 0 0 1-1.446 9.227v-.147l53.258 58.536h-.073a18.662 18.662 0 0 1 15.322 1.802 19.56 19.56 0 0 1 3.224 2.46c.616.659.948.997.948.997l-.972-.972a20.579 20.579 0 0 0-3.237-2.46 18.622 18.622 0 0 0-15.242-1.735h-.043v-.037l-53.358-58.438-.061-.067.037-.08a18.844 18.844 0 0 0 1.415-9.117 18.288 18.288 0 0 0-3.347-8.919 18.457 18.457 0 0 0-17.624-7.56l.092-.252 5.575 6.286.043.044v.067a4413.11 4413.11 0 0 1-.418 8.612v.068l-.049.043-6.406 5.813-.049.043h-.068l-8.615-.425h-.068l-.043-.049-5.655-6.225.277-.068a18.45 18.45 0 0 0 13.87 22.356c3.194.721 6.522.58 9.643-.408h.092l.074.074c19.371 21.271 37.536 41.183 53.308 58.518l.061.067-.037.087a18.64 18.64 0 0 0-1.261 10.285 18.568 18.568 0 0 0 11.938 14.387 18.534 18.534 0 0 0 8.898.923l-.074.191-5.643-6.225-.031-.037v-.086c.148-3.033.29-5.955.425-8.612v-.074l6.418-5.801h.037l8.615.431c2.068 2.288 3.969 4.386 5.637 6.237h-.111a18.578 18.578 0 0 0-1.594-13.047 20.488 20.488 0 0 0-1.889-2.915c-.357-.585-.609-.898-.609-.898Z" fill="#263238"/><path d="M294.233 143.08a1.653 1.653 0 0 1-.203.461c-.216.4-.456.787-.72 1.157a14.924 14.924 0 0 1-7.052 5.419c-.426.16-.862.292-1.305.394a1.55 1.55 0 0 1-.492.08c0-.056.671-.24 1.717-.683a17.005 17.005 0 0 0 6.953-5.34c.696-.904 1.053-1.513 1.102-1.488Z" fill="#263238"/><path d="m346.274 165.28-17.698-8.243-15.82-1.974 5.809 4.921s-20.455 7.129-20.812 8.735c-.357 1.605 1.613 5.923 5.219 5.124 0 0-2.025 2.46-1.182 5.173s2.708 3.223 6.154 2.59c0 0-2.339 3.5-.505 5.284 1.834 1.784 4.689 1.334 4.689 1.334s.037 4.263 2.289 4.632c2.252.37 8.529-.067 10.873-.787l11.907-3.691 7.717-1.728 1.36-21.37Z" fill="#FFBF9D"/><path d="M313.697 170.693c.067.234-2.29 1.119-5.256 1.987-2.966.867-5.439 1.372-5.507 1.138-.068-.234 2.289-1.126 5.255-1.987 2.966-.861 5.44-1.372 5.508-1.138ZM316.706 179.102c.067.234-1.797 1.003-4.172 1.723-2.376.72-4.363 1.101-4.437.868-.074-.234 1.803-1.003 4.178-1.717 2.375-.714 4.363-1.102 4.431-.874ZM319.407 186.096c.043.265-1.655.615-3.649 1.12-1.994.504-3.55 1.231-3.692.978-.141-.252 1.323-1.267 3.446-1.846 2.123-.578 3.864-.467 3.895-.252ZM321.641 159.276c.068.24-2.252 1.083-5.126 2.073-2.874.991-5.218 1.747-5.317 1.52-.098-.228 2.13-1.36 5.034-2.356 2.905-.997 5.347-1.471 5.409-1.237Z" fill="#FF9A6C"/><path d="m342.939 163.73 38.33 13.877-2.24 26.297-42.201-17.008 6.111-23.166Z" fill="#FFBF9D"/><path d="M392.117 117.712s4.997 5.161 7.907 14.443c2.911 9.282 16.615 48.633 16.283 61.15-.363 12.949-9.083 22.188-28.245 17.07-11.433-3.075-25.057-7.996-25.057-7.996l9.686-31.827 7.575 1.95-12.234-22.957 24.085-31.833Z" fill="#C53F3F"/><path d="M383.342 132.752c.074.055-5.23 7.603-11.839 16.86-6.609 9.258-12.018 16.738-12.092 16.677-.074-.062 5.23-7.603 11.839-16.861 6.609-9.258 12.024-16.726 12.092-16.676ZM398.012 176.807s-.332-.159-.929-.436c-.85-.379-1.729-.69-2.628-.929-1.138-.314-2.517-.615-4.049-.941l-4.972-1.095c-3.526-.788-6.72-1.52-9.021-2.067l-2.726-.664a5.87 5.87 0 0 1-.991-.283 6.35 6.35 0 0 1 1.016.166l2.75.56c2.32.492 5.538 1.187 9.046 1.974l4.966 1.126c1.526.344 2.904.664 4.043 1.009a15.14 15.14 0 0 1 2.621 1.033c.227.116.447.245.659.388.078.043.15.097.215.159Z" fill="#263238"/><path d="M407.809 178.21a4.747 4.747 0 0 0-2.633-3.519 12.772 12.772 0 0 0-4.406-1.181c-6.886-.947-13.852-1.23-20.799-1.47l.615.277a129.686 129.686 0 0 1 25.076 7.308c.442.245.964.307 1.452.172a1.515 1.515 0 0 0 .695-1.587ZM249.897 56.192c-6.461-1.1-14.19.775-20.651-.326-.96-.16-2.019-.313-2.868.179-1.021.584-1.372 1.888-1.421 3.075a11.678 11.678 0 0 0 3.692 8.71 16.546 16.546 0 0 0 8.682 4.147c2.579.436 5.354.35 7.649-.892 4.037-2.19 5.975-10.458 4.917-14.893Z" fill="#000" opacity=".3"/><path d="M224.822 68.009s-3.92-4.595-4.486-6.711c-.376-1.403-.191-5.333 0-7.825a4.298 4.298 0 0 1 2.8-3.813 1.42 1.42 0 0 1 1.458.116 14.637 14.637 0 0 1 1.785-2.005c1.538-1.575 2.27-2.639 5.655-1.66 0 0 2.492-2.627 3.926-2.43a22.15 22.15 0 0 1 2.849.615s5.458-.234 6.578 1.5a5.003 5.003 0 0 0 2.461 1.643 6.77 6.77 0 0 1 3.895 3.55 14.09 14.09 0 0 1 1.09 4.754l-5.539.222s.394 12.74-1.003 13.766c-1.396 1.028-1.926.659-1.926.659s-1.064 2.99-5.218.78c0 0-3.446 1.04-4.923-.38-1.476-1.422-6.879-15.071-6.879-15.071l.154 6.766s2.849 4.386 1.452 5.413c-1.397 1.028-4.129.111-4.129.111Z" fill="#FFBF9D"/><path d="M231.738 50.742c.131.256.236.523.314.8l.751 2.214a454.557 454.557 0 0 1 2.357 7.351c.898 2.873 1.649 5.536 2.498 7.283.327.704.705 1.382 1.132 2.03.302.462.492.695.474.714-.018.018-.068-.043-.166-.154a5.694 5.694 0 0 1-.406-.486 12.41 12.41 0 0 1-1.231-2.005c-.917-1.778-1.686-4.417-2.597-7.284a456.369 456.369 0 0 1-2.27-7.381c-.259-.904-.48-1.655-.653-2.245a4.714 4.714 0 0 1-.203-.837ZM238.55 49.167c.123.264.218.54.283.825l.658 2.282c.536 1.925 1.231 4.595 2.043 7.548.813 2.952 1.471 5.634 1.951 7.578.228.923.412 1.698.56 2.3.083.281.136.57.16.862a5.336 5.336 0 0 1-.283-.825c-.172-.615-.388-1.365-.652-2.282a464.004 464.004 0 0 1-2.043-7.547 707.865 707.865 0 0 1-1.957-7.579c-.222-.929-.413-1.697-.554-2.306a4.526 4.526 0 0 1-.166-.856Z" fill="#FF9A6C"/></svg>