<svg width="20" height="20" viewBox="0 0 20 20" fill="none" xmlns="http://www.w3.org/2000/svg">
<path d="M19.1668 10L17.1335 7.675L17.4168 4.6L14.4085 3.91667L12.8335 1.25L10.0002 2.46667L7.16683 1.25L5.59183 3.90833L2.5835 4.58333L2.86683 7.66667L0.833496 10L2.86683 12.325L2.5835 15.4083L5.59183 16.0917L7.16683 18.75L10.0002 17.525L12.8335 18.7417L14.4085 16.0833L17.4168 15.4L17.1335 12.325L19.1668 10ZM7.81683 13.3417L5.8335 11.3417C5.5085 11.0167 5.5085 10.4917 5.8335 10.1667L5.89183 10.1083C6.21683 9.78333 6.75016 9.78333 7.07516 10.1083L8.41683 11.4583L12.7085 7.15833C13.0335 6.83333 13.5668 6.83333 13.8918 7.15833L13.9502 7.21667C14.2752 7.54167 14.2752 8.06667 13.9502 8.39167L9.01683 13.3417C8.67516 13.6667 8.15016 13.6667 7.81683 13.3417Z" fill="#1E88E5"/>
</svg>
