<svg width="24" height="24" viewBox="0 0 24 24" fill="none" xmlns="http://www.w3.org/2000/svg">
<path fill-rule="evenodd" clip-rule="evenodd" d="M0 3.75C0 1.67893 1.67893 0 3.75 0H20.25C22.3211 0 24 1.67893 24 3.75V20.25C24 22.3211 22.3211 24 20.25 24H3.75C1.67893 24 0 22.3211 0 20.25V3.75ZM6.84 6.84C6 7.688 6 9.044 6 11.76V12.24C6 14.952 6 16.308 6.84 17.16C7.688 18 9.044 18 11.76 18H12.24C14.952 18 16.308 18 17.16 17.16C18 16.312 18 14.956 18 12.24V11.76C18 9.048 18 7.692 17.16 6.84C16.312 6 14.956 6 12.24 6H11.76C9.048 6 7.692 6 6.84 6.84Z" fill="black"/>
<path d="M12.384 14.644C9.648 14.644 8.088 12.772 8.024 9.65199H9.4C9.444 11.94 10.452 12.908 11.252 13.108V9.65199H12.544V11.624C13.332 11.54 14.164 10.64 14.444 9.64799H15.732C15.627 10.1615 15.4172 10.6478 15.1157 11.0766C14.8143 11.5054 14.4277 11.8674 13.98 12.14C14.4796 12.3886 14.9208 12.7404 15.2745 13.172C15.6282 13.6036 15.8864 14.1053 16.032 14.644H14.612C14.308 13.696 13.548 12.96 12.544 12.86V14.644H12.384Z" fill="black"/>
</svg>
