<svg width="32" height="32" fill="none" xmlns="http://www.w3.org/2000/svg"><path fill-rule="evenodd" clip-rule="evenodd" d="M13.818 0c.569 0 1.26.173 2.742.995l.813-.498A3.39 3.39 0 0 1 19.16 0c.528 0 1.198.108 1.503.238.325.108.874.54 1.26.908.365.39.812 1.016.954 1.384.163.389.285 1.102.285 1.578s-.142 1.232-.325 1.686c-.183.476-1.483 2.054-6.278 7.178l-3.006-3.178c-1.666-1.773-3.109-3.394-3.23-3.632-.122-.238-.305-.779-.387-1.19-.101-.432-.08-1.188.041-1.729a7 7 0 0 1 .67-1.708c.285-.41.874-.886 1.362-1.124C12.497.195 13.31 0 13.818 0Zm9.853 12.778c.244 0 .954.562 1.828 1.492 1.3 1.405 1.625 1.621 6.501 3.805v10.118l-6.5 2.53-1.91-.281c-1.037-.152-1.93-.346-1.971-.433-.04-.108.02-.346.142-.54.163-.282.488-.39 1.24-.39.873 0 1.076-.086 1.604-.691.467-.563.59-.909.59-1.687 0-.735.121-1.124.507-1.556.346-.39.528-.844.508-1.298 0-.389-.122-.973-.284-1.297-.183-.39-.935-.973-2.133-1.686-1.016-.584-1.85-1.211-1.85-1.34 0-.152.346-.368.752-.476.427-.13 1.037-.281 1.382-.346a27.18 27.18 0 0 0 1.26-.346c.467-.13.67-.325.67-.627 0-.238-.122-.476-.264-.54-.122-.066-1.178.129-2.336.432-1.138.302-2.337.54-2.682.54-.345 0-.65-.108-.711-.216a.24.24 0 0 1 .102-.324c.101-.065.203-.303.203-.54 0-.239-.122-.476-.264-.52-.122-.043-1.727.735-3.556 1.73-1.97 1.102-3.534 1.816-3.9 1.816-.406 0-.677-.144-.813-.432a2.124 2.124 0 0 1-.203-.8c-.02-.238.995-1.32 4.977-4.908l3.352-.584c1.849-.324 3.535-.584 3.759-.605Zm-19.869.41c.02 0 1.178.606 5.038 2.66l1.829-.238c.995-.108 1.91-.151 1.99-.087.102.087-.304.584-.873 1.125-.63.605-1.117 1.254-1.26 1.73-.182.626-.142.907.163 1.6.224.453.63.972.935 1.123.325.174.792.303 1.076.303.285 0 1.605-.584 5.384-2.594l3.474 2.119c1.99 1.21 3.494 2.248 3.555 2.464.04.216-.02.584-.122.822-.122.238-.386.476-.61.54-.263.065-1.442-.497-3.351-1.621-1.626-.951-3.048-1.687-3.15-1.622-.121.065-.202.303-.202.54 0 .325.731.866 3.148 2.314 2.032 1.233 3.19 2.054 3.271 2.335.061.26-.04.584-.264.822-.203.216-.589.367-.873.367-.285 0-1.971-.886-3.759-1.967-1.788-1.06-3.392-1.903-3.555-1.881-.162.043-.305.26-.305.497 0 .303.711.843 2.743 2.097 1.503.908 2.763 1.773 2.783 1.881.04.13-.122.433-.345.67-.224.238-.67.433-1.016.433-.366 0-1.483-.519-2.803-1.297-1.2-.714-2.337-1.297-2.54-1.297-.183 0-.63-.282-.955-.65-.345-.367-.792-.648-1.015-.648-.224 0-.691-.28-1.016-.648-.407-.433-.813-.649-1.22-.649-.446 0-.629-.13-.71-.432-.061-.238-.407-.584-.772-.779-.57-.324-.732-.324-1.341-.065-.447.195-.853.627-1.158 1.211-.264.52-.59.93-.69.93-.123 0-1.321-.649-2.703-1.449-1.36-.8-2.519-1.47-2.58-1.513-.06-.022.752-2.097 1.808-4.605 1.057-2.487 1.95-4.54 1.991-4.54Zm12.25 16.216c.061 0 .549.26 1.097.584.549.324 1.037.756 1.098.93.06.172-.102.496-.387.713-.264.216-.73.389-1.056.367-.305 0-.792-.173-1.117-.367a5.745 5.745 0 0 1-.61-.433c-.02-.043.163-.454.407-.93.243-.475.508-.864.568-.864Zm-8.248-5.146c.244.043.447.26.488.497.04.238-.183.887-.508 1.449-.305.584-.69 1.08-.833 1.146-.122.065-.386.065-.548 0-.163-.065-.325-.303-.346-.54-.02-.238.264-.93.65-1.514.508-.843.772-1.081 1.097-1.038Zm2.093 1.297c.183.044.406.216.528.39.142.237-.02.735-.65 1.902-.69 1.276-.914 1.557-1.34 1.557-.285 0-.55-.152-.61-.325-.061-.172 0-.54.122-.8.142-.28.548-1.016.934-1.643.447-.735.813-1.124 1.016-1.08Zm2.174 1.514c.223.043.447.238.467.454.04.194-.366 1.146-.914 2.097-.529.951-1.097 1.73-1.26 1.73-.162.021-.427-.13-.569-.325-.203-.26-.122-.54.407-1.556.345-.692.812-1.536 1.036-1.86.257-.403.535-.584.833-.54Zm2.092 1.254c.264 0 .508.151.569.324.06.173-.224.951-.61 1.73-.589 1.146-.792 1.405-1.219 1.405-.284 0-.548-.151-.609-.324-.06-.173.244-.952.65-1.73.569-1.103.833-1.405 1.22-1.405Z" fill="#5FC2D1"/></svg>